<svg viewBox="0 0 30 30" xmlns="http://www.w3.org/2000/svg"><circle cx="15" cy="15.02" fill="#73e5ff" r="14.98"/><path d="m24.57 15.07a8 8 0 0 0 -.57-1.31c.16-.38.31-.78.45-1.22.63-2 .75-3.73.25-3.89s-1.39 1.31-2 3.28a10.47 10.47 0 0 0 -7.39-3.19v-.94a.93.93 0 1 0 -.56 0v.94a10.47 10.47 0 0 0 -7.39 3.19c-.63-2-1.53-3.43-2-3.28s-.38 1.9.25 3.89c.14.44.29.84.45 1.22a8 8 0 0 0 -1 3.88 8.38 8.38 0 0 0 3.21 6.55.93.93 0 0 0 -.62.87 1 1 0 0 0 .94.94h12.88a.93.93 0 0 0 .31-1.81 8.41 8.41 0 0 0 3.22-6.55 7.17 7.17 0 0 0 -.07-1" opacity=".2"/><ellipse cx="6.45" cy="11.26" fill="#6ce577" rx=".94" ry="3.78" transform="matrix(.95313788 -.30253625 .30253625 .95313788 -3.1 2.48)"/><ellipse cx="6.45" cy="11.26" fill="#009245" rx=".64" ry="2.57" transform="matrix(.95313788 -.30253625 .30253625 .95313788 -3.1 2.48)"/><ellipse cx="23.55" cy="11.26" fill="#6ce577" rx="3.78" ry=".94" transform="matrix(.30253625 -.95313788 .95313788 .30253625 5.7 30.3)"/><ellipse cx="23.55" cy="11.26" fill="#009245" rx="2.57" ry=".64" transform="matrix(.30253625 -.95313788 .95313788 .30253625 5.7 30.3)"/><path d="m19.1 24.76a8.79 8.79 0 0 0 5.9-8.12c0-4.92-4.48-8.91-10-8.91s-10 4-10 8.91a8.77 8.77 0 0 0 5.9 8.12" fill="#6ce577"/><circle cx="9.67" cy="16.64" fill="#fff" r="2.87"/><circle cx="9.67" cy="16.64" r="1.51"/><circle cx="15" cy="13.53" fill="#fff" r="2.87"/><circle cx="15" cy="13.53" r="1.51"/><circle cx="20.33" cy="16.64" fill="#fff" r="2.87"/><circle cx="20.33" cy="16.64" r="1.51"/><rect fill="#662d91" height="1.88" rx=".94" stroke="#333" stroke-miterlimit="10" stroke-width=".25" width="14.81" x="7.59" y="23.12"/><rect fill="#6ce577" height="3.5" rx=".28" width=".56" x="14.72" y="6.31"/><circle cx="15" cy="5.93" fill="#6ce577" r=".93"/><path d="m14.07 5.93a.92.92 0 0 0 .65.87v.94a10.47 10.47 0 0 0 -7.39 3.19c-.63-1.93-1.53-3.43-2.02-3.28s-.38 1.9.25 3.89c.14.44.29.84.45 1.22a8 8 0 0 0 -1 3.88 8.38 8.38 0 0 0 3.21 6.55.93.93 0 0 0 -.62.87 1 1 0 0 0 .94.94h6.46v-20a.93.93 0 0 0 -.93.93z" fill="#fff" opacity=".2"/><path d="m24.57 14.07a8 8 0 0 0 -.57-1.31c.16-.38.31-.78.45-1.22.63-2 .75-3.73.25-3.89s-1.39 1.31-2 3.28a10.47 10.47 0 0 0 -7.39-3.19v-.94a.92.92 0 0 0 .65-.87.93.93 0 0 0 -1.86 0 .92.92 0 0 0 .65.87v.94a10.47 10.47 0 0 0 -7.39 3.19c-.66-1.93-1.56-3.43-2.05-3.28s-.38 1.9.25 3.89c.14.44.29.84.45 1.22a8 8 0 0 0 -1 3.88 8.38 8.38 0 0 0 3.21 6.55.93.93 0 0 0 -.62.87 1 1 0 0 0 .94.94h12.93a.93.93 0 0 0 .31-1.81 8.41 8.41 0 0 0 3.22-6.55 7.17 7.17 0 0 0 -.07-1" fill="none" stroke="#333" stroke-linecap="round" stroke-linejoin="round" stroke-width=".25"/><path d="m24.76 14.9a.13.13 0 1 0 0-.25.13.13 0 0 0 0 .25z" fill="#333"/></svg>