<svg enable-background="new 0 0 30 30" viewBox="0 0 30 30" xmlns="http://www.w3.org/2000/svg" xmlns:xlink="http://www.w3.org/1999/xlink"><clipPath id="a"><path d="m7.6 5h7.2v20h-7.2z"/></clipPath><circle cx="15" cy="15" fill="#808080" r="15"/><path d="m22.1 20v-14c-1.3 0-3.4 4.1-3.5 5.8-1-.8-2.3-1.2-3.7-1.2s-2.7.5-3.7 1.2c-.2-1.7-2.3-5.8-3.6-5.8v14 3.5l7.2 2.5 7.2-2.5z" opacity=".2"/><path d="m22.1 19v-14c-1.3 0-3.4 4.1-3.5 5.8-1-.8-2.3-1.2-3.7-1.2s-2.7.5-3.7 1.2c-.2-1.7-2.3-5.8-3.6-5.8v14 3.5l7.2 2.5 7.2-2.5z"/><path d="m11.4 19.5c-.8-.3-1.6 0-1.8.5l1.5.5 1.5.4c.1-.5-.4-1.1-1.2-1.4z" fill="#fff"/><path d="m18.6 19.5c.8-.3 1.6 0 1.8.5l-1.5.5-1.4.5c-.2-.6.3-1.2 1.1-1.5z" fill="#fff"/><path d="m22.1 11.1v-6.1c-1.3 0-3.4 4.1-3.5 5.8-1-.8-2.3-1.2-3.7-1.2s-2.7.5-3.7 1.2c-.2-1.7-2.3-5.8-3.6-5.8v14 3.5l7.2 2.5 7.2-2.5v-3.5-6.1" style="fill:none;stroke:#e6e6e6;stroke-width:.25;stroke-linecap:round;stroke-linejoin:round;stroke-miterlimit:10"/><path d="m22.1 12.2c.2 0 .2-.3 0-.3-.1.1-.1.3 0 .3z" fill="#e6e6e6"/><g clip-path="url(#a)" opacity=".1"><path d="m22.1 19v-14c-1.3 0-3.4 4.1-3.5 5.8-1-.8-2.3-1.2-3.7-1.2s-2.7.5-3.7 1.2c-.2-1.7-2.3-5.8-3.6-5.8v14 3.5l7.2 2.5 7.2-2.5z" fill="#fff"/></g></svg>