<svg enable-background="new 0 0 30 30" viewBox="0 0 30 30" xmlns="http://www.w3.org/2000/svg" xmlns:xlink="http://www.w3.org/1999/xlink"><clipPath id="a"><path d="m10 4.4h5.2v20.9h-5.2z"/></clipPath><circle cx="15" cy="15" fill="#f9ddc0" r="15"/><g opacity=".2"><path d="m16.2 6c-.5 0-.9.2-1.2.5-.3-.3-.7-.5-1.2-.5-.9 0-1.6.7-1.6 1.6s.7 1.6 1.6 1.6h.3v3.1h1.7v-3.1h.3c.9 0 1.6-.7 1.6-1.6.1-.9-.7-1.6-1.5-1.6z"/><path d="m18.2 16.3s-1-1.4-.9-2.5v-.1c0-1.2-1-2.3-2.3-2.3-1.2 0-2.3 1-2.3 2.3v.1c.1 1.1-.9 2.5-.9 2.5-2 2.9-1.9 4.6-1.9 4.6v.1c0 2.8 2.3 5 5 5 2.8 0 5-2.3 5-5v-.1c.1 0 .3-1.7-1.7-4.6z"/></g><path d="m16.2 5c-.5 0-.9.2-1.2.5-.3-.3-.7-.5-1.2-.5-.9 0-1.6.7-1.6 1.6s.7 1.6 1.6 1.6h.3v3.1h1.7v-3.1h.3c.9 0 1.6-.7 1.6-1.6.1-.9-.7-1.6-1.5-1.6z" fill="#c1bfbd"/><path d="m18.2 15.3s-1-1.4-.9-2.5v-.1c0-1.2-1-2.3-2.3-2.3-1.2 0-2.3 1-2.3 2.3v.1c.1 1.1-.9 2.5-.9 2.5-2 2.9-1.9 4.6-1.9 4.6v.1c0 2.8 2.3 5 5 5 2.8 0 5-2.3 5-5v-.1c.1 0 .3-1.7-1.7-4.6z" fill="#ea9a3b"/><g clip-path="url(#a)" fill="#fff" opacity=".2"><path d="m16.4 5c-.5 0-.9.2-1.2.5-.3-.3-.7-.5-1.2-.5-.9 0-1.6.7-1.6 1.6s.7 1.6 1.6 1.6h.3v3.1h1.7v-3.1h.3c.9 0 1.6-.7 1.6-1.6s-.7-1.6-1.5-1.6z"/><path d="m18.3 15.3s-1-1.4-.9-2.5v-.1c0-1.2-1-2.3-2.3-2.3-1.2 0-2.3 1-2.3 2.3v.1c.1 1.1-.9 2.5-.9 2.5-2 2.9-1.9 4.6-1.9 4.6v.1c0 2.8 2.3 5 5 5 2.8 0 5-2.3 5-5v-.1c.2 0 .4-1.7-1.7-4.6z"/></g><path d="m17.2 12.8v-.1c0-1-.6-1.8-1.4-2.1v-2.5h.3c.9 0 1.6-.7 1.6-1.6.1-.8-.7-1.5-1.5-1.5-.5 0-.9.2-1.2.5-.3-.3-.7-.5-1.2-.5-.9 0-1.6.7-1.6 1.6s.7 1.6 1.6 1.6h.3v2.5c-.8.3-1.4 1.1-1.4 2.1v.1c.1 1.1-.9 2.5-.9 2.5-2 2.9-1.9 4.6-1.9 4.6v.1c0 2.8 2.3 5 5 5 2.8 0 5-2.3 5-5v-.1s.2-1.7-1.9-4.6" style="fill:none;stroke:#333;stroke-width:.25;stroke-linecap:round;stroke-linejoin:round;stroke-miterlimit:10"/><path d="m17.5 14.2c-.2-.4-.3-.9-.3-1.4v-.1c0-1.2-1-2.3-2.3-2.3-1.2 0-2.3 1-2.3 2.3v.1c.1 1.1-.9 2.5-.9 2.5-2 2.9-1.9 4.6-1.9 4.6v.1c0 2.8 2.3 5 5 5 2.8 0 5-2.3 5-5v-.1s.2-1.7-1.9-4.6" style="fill:none;stroke:#333;stroke-width:.25;stroke-linecap:round;stroke-linejoin:round;stroke-miterlimit:10"/><path d="m17.8 14.9c.2 0 .2-.3 0-.3s-.2.3 0 .3z" fill="#333"/></svg>