<svg viewBox="0 0 30 30" xmlns="http://www.w3.org/2000/svg" xmlns:xlink="http://www.w3.org/1999/xlink"><clipPath id="a"><path d="m7.45 5.02h7.41v19.98h-7.41z"/></clipPath><circle cx="15" cy="15.02" fill="#f7d5ba" r="14.98"/><path d="m22 12.06a.84.84 0 0 0 -1.1-.43l-.14.06v-4.93a.76.76 0 0 0 -.76-.76h-10.22a.76.76 0 0 0 -.78.76v10l-.92.39a.86.86 0 0 0 -.43 1.11.84.84 0 0 0 1.11.43l.24-.1v4.58a.76.76 0 0 0 .75.76h.25a.47.47 0 0 0 -.48.48v1.06a.48.48 0 0 0 .48.53h9.77a.48.48 0 0 0 .48-.48v-1.06a.47.47 0 0 0 -.48-.48h.23a.74.74 0 0 0 .69-.47.72.72 0 0 0 .06-.29v-9.7l.81-.35a.84.84 0 0 0 .44-1.11z" opacity=".2"/><rect fill="#a67c52" height="17.98" rx=".76" width="11.74" x="9.03" y="5"/><rect fill="#754c24" height="3.07" rx=".62" width="3.6" x="10.39" y="6.28"/><rect fill="#754c24" height="3.07" rx=".62" width="3.6" x="15.68" y="6.28"/><path d="m19.28 11.34a.62.62 0 0 0 -.62-.6h-2.36a.62.62 0 0 0 -.62.62v1.54z" fill="#754c24"/><path d="m9 17.64v4.58a.76.76 0 0 0 .75.76h10.25a.76.76 0 0 0 .75-.76v-9.7z" fill="#f33"/><path d="m12.34 16.2v.33a.75.75 0 0 0 .74.75h3.52a.76.76 0 0 0 .75-.75v-2.53z" fill="#f9aae4" stroke="#333" stroke-miterlimit="10" stroke-width=".25"/><rect fill="#754c24" height="3.07" rx=".62" width="3.6" x="10.39" y="10.74"/><rect fill="#ccc" height="15.63" rx=".84" stroke="#333" stroke-miterlimit="10" stroke-width=".25" transform="matrix(.39970919 .916642 -.916642 .39970919 21.91 -5.09)" width="1.68" x="14" y="6.37"/><rect fill="#e03636" height="2.02" rx=".48" stroke="#333" stroke-miterlimit="10" stroke-width=".25" width="10.74" x="9.5" y="22.98"/><g fill="#682121"><rect height="1.73" rx=".17" width=".35" x="10.6" y="22.98"/><rect height="1.73" rx=".17" width=".35" x="11.96" y="22.98"/><rect height="1.73" rx=".17" width=".35" x="13.33" y="22.98"/><rect height="1.73" rx=".17" width=".35" x="14.69" y="22.98"/><rect height="1.73" rx=".17" width=".35" x="16.05" y="22.98"/><rect height="1.73" rx=".17" width=".35" x="17.42" y="22.98"/><rect height="1.73" rx=".17" width=".35" x="18.78" y="22.98"/></g><g clip-path="url(#a)" opacity=".2"><path d="m22 11.06a.86.86 0 0 0 -1.11-.43l-.14.06v-4.93a.75.75 0 0 0 -.75-.76h-10.19a.76.76 0 0 0 -.76.76v10.05l-.91.39a.84.84 0 1 0 .67 1.54l.24-.1v4.58a.76.76 0 0 0 .76.76h.19a.47.47 0 0 0 -.48.48v1.06a.48.48 0 0 0 .48.48h9.77a.48.48 0 0 0 .48-.48v-1.06a.47.47 0 0 0 -.48-.48h.23a.76.76 0 0 0 .7-.47.93.93 0 0 0 .05-.29v-9.7l.81-.35a.85.85 0 0 0 .44-1.11z" fill="#fff"/></g><path d="m20.76 7.43v-1.65a.76.76 0 0 0 -.76-.78h-10.22a.76.76 0 0 0 -.78.78v10.05l-.92.4a.84.84 0 0 0 -.43 1.1.85.85 0 0 0 1.11.44l.24-.11v4.58a.76.76 0 0 0 .75.76h.25a.47.47 0 0 0 -.48.48v1.06a.48.48 0 0 0 .48.46h9.77a.48.48 0 0 0 .48-.48v-1.04a.47.47 0 0 0 -.48-.48h.23a.75.75 0 0 0 .69-.46.73.73 0 0 0 .06-.3v-9.7l.81-.35a.84.84 0 0 0 -.67-1.54l-.14.06v-2.23" fill="none" stroke="#333" stroke-linecap="round" stroke-linejoin="round" stroke-width=".25"/><rect fill="none" height="2.02" rx=".48" stroke="#333" stroke-miterlimit="10" stroke-width=".25" width="10.74" x="9.5" y="22.98"/><path d="m20.76 8.12a.13.13 0 0 0 0-.25.13.13 0 0 0 0 .25z" fill="#333"/></svg>