<svg enable-background="new 0 0 30 30" viewBox="0 0 30 30" xmlns="http://www.w3.org/2000/svg" xmlns:xlink="http://www.w3.org/1999/xlink"><clipPath id="a"><path d="m6.5 7.4h10v22.2h-10z" transform="matrix(.7071 -.7071 .7071 .7071 -9.7442 13.5366)"/></clipPath><circle cx="15" cy="15" fill="#ffb199" r="15"/><circle cx="15" cy="16" opacity=".2" r="10"/><circle cx="15" cy="15" fill="#fff" r="8.4"/><circle cx="15" cy="15" fill="#3838fc" r="5.3"/><path d="m15 12.1.9 1.9 2.1.3-1.5 1.5.4 2.1-1.9-1-1.9 1 .4-2.1-1.5-1.5 2.1-.3z" fill="#fff"/><path d="m15 8.1c-3.8 0-6.9 3.1-6.9 6.9s3.1 6.9 6.9 6.9 6.9-3.1 6.9-6.9-3.1-6.9-6.9-6.9zm0 12.2c-2.9 0-5.3-2.4-5.3-5.3s2.4-5.3 5.3-5.3 5.3 2.4 5.3 5.3-2.4 5.3-5.3 5.3z" fill="#e83434"/><path d="m15 5c-5.5 0-10 4.5-10 10s4.5 10 10 10 10-4.5 10-10-4.5-10-10-10zm0 18.2c-4.5 0-8.2-3.7-8.2-8.2s3.7-8.2 8.2-8.2 8.2 3.7 8.2 8.2-3.7 8.2-8.2 8.2z" fill="#e83434"/><path d="m24.3 11.4c.2 0 .2-.2 0-.2-.2-.1-.2.2 0 .2z" fill="#333"/><circle clip-path="url(#a)" cx="15" cy="15" fill="#fff" opacity=".2" r="10"/><path d="m24 10.6c-1.6-3.3-5-5.6-9-5.6-5.5 0-10 4.5-10 10s4.5 10 10 10 10-4.5 10-10c0-1.1-.2-2.1-.5-3.1" style="fill:none;stroke:#333;stroke-width:.2458;stroke-linecap:round;stroke-linejoin:round;stroke-miterlimit:10"/></svg>