<svg enable-background="new 0 0 30 30" viewBox="0 0 30 30" xmlns="http://www.w3.org/2000/svg" xmlns:xlink="http://www.w3.org/1999/xlink"><clipPath id="a"><path d="m6.6 6.8h8.3v15.7h-8.3z"/></clipPath><circle cx="15" cy="15" fill="#f7aa63" r="15"/><path d="m22.9 20.4c.2-.1.3-.3.3-.5v-1.2c0-.3-.2-.5-.5-.5.3 0 .5-.2.5-.5v-1.2c0-.3-.2-.5-.5-.5.3 0 .5-.2.5-.5v-1.2c0-.3-.2-.5-.5-.5h.2c.2 0 .4-.2.3-.3-.3-2.8-3.9-5.7-8.3-5.7s-8 2.9-8.3 5.7c0 .2.1.3.3.3h.1c-.3 0-.5.2-.5.5v1.2c0 .3.2.5.5.5-.3 0-.5.2-.5.5v1.2c0 .3.2.5.5.5-.3 0-.5.2-.5.5v1.2c0 .2.1.4.3.5-.2 0-.3.2-.3.3v1.3c0 .8.6 1.4 1.4 1.4h13.6c.9 0 1.6-.7 1.6-1.6v-1.2c.2 0 0-.2-.2-.2z" opacity=".2"/><path d="m15 6.9c-4.4 0-8 2.5-8.3 5.6 0 .2.1.4.3.4h16c.2 0 .4-.2.3-.4-.3-3.2-3.9-5.6-8.3-5.6z" fill="#fbb03b"/><path d="m21.7 22.5h-13.6c-.8 0-1.4-.6-1.4-1.4v-1.3c0-.2.2-.3.3-.3h16c.2 0 .3.2.3.3v1.2c0 .8-.7 1.5-1.6 1.5z" fill="#fbb03b"/><path d="m22.8 15h-15.6c-.3 0-.5-.2-.5-.5v-1.2c0-.3.2-.5.5-.5h15.6c.3 0 .5.2.5.5v1.2c0 .3-.2.5-.5.5z" fill="#db0000"/><path d="m23 20.1h-16c-.2 0-.3-.1-.3-.3 0-.2.1-.3.3-.3h16c.2 0 .3.1.3.3 0 .1-.1.3-.3.3z" fill="#ffc373"/><path d="m23 12.7h-16c-.2 0-.3-.1-.3-.3 0-.2.1-.3.3-.3h16c.2 0 .3.1.3.3 0 .2-.1.3-.3.3z" fill="#ffc373"/><path d="m22.8 15h-8.7c-.3 0-.5-.2-.5-.5v-1.2c0-.3.2-.5.5-.5h8.7c.3 0 .5.2.5.5v1.2c0 .3-.2.5-.5.5z" fill="#f33"/><path d="m22.8 17.2h-15.6c-.3 0-.5-.2-.5-.5v-1.2c0-.3.2-.5.5-.5h15.6c.3 0 .5.2.5.5v1.2c0 .3-.2.5-.5.5z" fill="#7ad383"/><path d="m15.9 17.2h-8.7c-.3 0-.5-.2-.5-.5v-1.2c0-.3.2-.5.5-.5h8.7c.3 0 .5.2.5.5v1.2c0 .3-.2.5-.5.5z" fill="#39b54a"/><path d="m22.8 19.4h-15.6c-.3 0-.5-.2-.5-.5v-1.2c0-.3.2-.5.5-.5h15.6c.3 0 .5.2.5.5v1.2c0 .3-.2.5-.5.5z" fill="#a67c52"/><path d="m10.9 19.3-1.3-1-1.3-1.1h2.6 2.5l-1.3 1.1z" fill="#fbae17"/><path d="m22.8 15h-15.6c-.3 0-.5-.2-.5-.5v-1.2c0-.3.2-.5.5-.5h15.6c.3 0 .5.2.5.5v1.2c0 .3-.2.5-.5.5z" style="fill:none;stroke:#333;stroke-width:.25;stroke-linecap:round;stroke-linejoin:round;stroke-miterlimit:10"/><path d="m22.8 17.2h-15.6c-.3 0-.5-.2-.5-.5v-1.2c0-.3.2-.5.5-.5h15.6c.3 0 .5.2.5.5v1.2c0 .3-.2.5-.5.5z" style="fill:none;stroke:#333;stroke-width:.25;stroke-linecap:round;stroke-linejoin:round;stroke-miterlimit:10"/><path d="m19.3 19.3-1.3-1-1.3-1.1h2.6 2.5l-1.3 1.1z" fill="#fbae17"/><path d="m22.8 19.4h-15.6c-.3 0-.5-.2-.5-.5v-1.2c0-.3.2-.5.5-.5h15.6c.3 0 .5.2.5.5v1.2c0 .3-.2.5-.5.5z" style="fill:none;stroke:#333;stroke-width:.25;stroke-linecap:round;stroke-linejoin:round;stroke-miterlimit:10"/><path clip-path="url(#a)" d="m22.9 19.4c.2-.1.3-.3.3-.5v-1.2c0-.3-.2-.5-.5-.5.3 0 .5-.2.5-.5v-1.2c0-.3-.2-.5-.5-.5.3 0 .5-.2.5-.5v-1.2c0-.3-.2-.5-.5-.5h.2c.2 0 .4-.2.3-.3-.3-2.8-3.9-5.7-8.3-5.7s-8 2.9-8.3 5.7c0 .2.1.3.3.3h.1c-.3 0-.5.2-.5.5v1.2c0 .3.2.5.5.5-.3 0-.5.2-.5.5v1.2c0 .3.2.5.5.5-.3 0-.5.2-.5.5v1.2c0 .2.1.4.3.5-.2 0-.3.2-.3.3v1.3c0 .8.6 1.4 1.4 1.4h13.6c.9 0 1.6-.7 1.6-1.6v-1.2c.2 0 0-.2-.2-.2z" fill="#fff" opacity=".2"/><path d="m16.3 6.9c-.4-.1-.8-.1-1.3-.1-4.4 0-8 2.9-8.3 5.7 0 .2.1.3.3.3h.1c-.3 0-.5.2-.5.5v1.2c0 .3.2.5.5.5-.3 0-.5.2-.5.5v1.2c0 .3.2.5.5.5-.3 0-.5.2-.5.5v1.2c0 .2.1.4.3.5-.2 0-.3.2-.3.3v1.3c0 .8.6 1.4 1.4 1.4h13.6c.9 0 1.6-.7 1.6-1.6v-1.2c0-.2-.2-.3-.3-.3.2-.1.3-.3.3-.5v-1.2c0-.3-.2-.5-.5-.5.3 0 .5-.2.5-.5v-1.2c0-.3-.2-.5-.5-.5.3 0 .5-.2.5-.5v-1.2c0-.3-.2-.5-.5-.5h.3c.2 0 .4-.2.3-.3-.2-2.2-2.7-4.6-6-5.4" style="fill:none;stroke:#333;stroke-width:.25;stroke-linecap:round;stroke-linejoin:round;stroke-miterlimit:10"/><path d="m16.8 7.1c.2 0 .2-.3 0-.3-.1.1-.1.3 0 .3z" fill="#333"/></svg>