<svg enable-background="new 0 0 30 30" viewBox="0 0 30 30" xmlns="http://www.w3.org/2000/svg" xmlns:xlink="http://www.w3.org/1999/xlink"><clipPath id="a"><path d="m17.1 7.2h2.5v15h-2.5z"/></clipPath><clipPath id="b"><path d="m13 7.2h2.5v15h-2.5z"/></clipPath><clipPath id="c"><path d="m10.2 5h4.8v20h-4.8z"/></clipPath><circle cx="15" cy="15" fill="#ccfffe" r="15"/><path d="m19.4 21.8h-8.7c-.2 0-.4-.2-.4-.4v-4.5h9.6v4.5c-.1.2-.3.4-.5.4z" opacity=".2"/><path d="m13.8 21.8v2.9c0 .7.6 1.2 1.2 1.2.7 0 1.2-.6 1.2-1.2v-2.9" style="opacity:.2;stroke:#333;stroke-width:.25;stroke-linecap:round;stroke-linejoin:round;stroke-miterlimit:10"/><path d="m15 16.6c-.7 0-1.2.6-1.2 1.2v5.9c0 .7.6 1.2 1.2 1.2.7 0 1.2-.6 1.2-1.2v-5.9c.1-.6-.5-1.2-1.2-1.2z" fill="#ffc48a"/><path d="m19.4 20.8h-8.7c-.2 0-.4-.2-.4-.4v-10.6c-.1-2.7 2.1-4.8 4.7-4.8 2.6 0 4.8 2.1 4.8 4.8v10.6c0 .2-.2.4-.4.4z" fill="#91e291"/><path d="m19.4 20.8h-8.7c-.2 0-.4-.2-.4-.4v-4.5h9.6v4.5c-.1.2-.3.4-.5.4z" fill="#ff8d8d"/><path d="m19.8 15.9h-9.6v-5h9.6" fill="#73fffb"/><path d="m13 10.2c-.6 0-1.1.5-1.1 1.1v9.4h2.3v-9.4c-.1-.6-.6-1.1-1.2-1.1z" opacity=".15"/><path d="m17.1 10.2c-.6 0-1.1.5-1.1 1.1v9.4h2.3v-9.4c-.1-.6-.6-1.1-1.2-1.1z" opacity=".15"/><path clip-path="url(#a)" d="m17.1 10.2c-.6 0-1.1.5-1.1 1.1v9.4h2.3v-9.4c-.1-.6-.6-1.1-1.2-1.1z" opacity=".05"/><path clip-path="url(#b)" d="m13 10.2c-.6 0-1.1.5-1.1 1.1v9.4h2.3v-9.4c-.1-.6-.6-1.1-1.2-1.1z" opacity=".05"/><path clip-path="url(#c)" d="m15 5c-2.6 0-4.8 2.1-4.8 4.8v1.2 4.9 4.5c0 .2.2.4.4.4h1.2 1.9v2.9c0 .7.6 1.2 1.2 1.2.7 0 1.2-.6 1.2-1.2v-2.9h1.9 1.2c.2 0 .4-.2.4-.4v-4.5-4.9-1.2c.2-2.7-2-4.8-4.6-4.8z" fill="#fff" opacity=".2"/><path d="m19.8 12.7v7.7c0 .2-.2.4-.4.4h-8.7c-.2 0-.4-.2-.4-.4v-10.6c-.1-2.7 2.1-4.8 4.7-4.8 2.6 0 4.8 2.1 4.8 4.8v1.7" style="fill:none;stroke:#333;stroke-width:.25;stroke-linecap:round;stroke-linejoin:round;stroke-miterlimit:10"/><path d="m19.8 12.3c.2 0 .2-.3 0-.3s-.2.3 0 .3z" fill="#333"/><path d="m13.8 20.8v2.9c0 .7.6 1.2 1.2 1.2.7 0 1.2-.6 1.2-1.2v-2.9" style="fill:none;stroke:#333;stroke-width:.25;stroke-linecap:round;stroke-linejoin:round;stroke-miterlimit:10"/></svg>