<svg enable-background="new 0 0 30 30" viewBox="0 0 30 30" xmlns="http://www.w3.org/2000/svg" xmlns:xlink="http://www.w3.org/1999/xlink"><clipPath id="a"><path d="m7.6 5h7.2v20h-7.2z"/></clipPath><circle cx="15" cy="15" fill="#ff5a5a" r="15"/><g opacity=".2"><path d="m17.3 23.2h-4.6l-.9.8-1.4-.5c-.2.7-.4 1.4-.4 1.5s0 .4.5.7.8.5 1.5-.1c.7-.5 1-.6 1.4-.6h.7l.1-.3h1.3l.2.3h.7s.7.1 1.4.6 1 .4 1.5.1.6-.6.5-.7c0 0-.2-.7-.4-1.5l-1.4.5z"/><path d="m8.3 8.3.1 5.4v.2l-.6 2.5s-.2 1.1.4 1.8 2.3 2.8 2.4 3.7c.1.8 0 1.1 0 1.1l1.1.5.8-.8h2 .9 2l.8.8 1.1-.5s0-.3 0-1.1c.1-.8 1.8-2.9 2.4-3.7.6-.7.4-1.8.4-1.8l-.6-2.5v-.1l.1-5.4-3.4-2.4-1.1 3.4h-4.2l-1.1-3.4z"/><path d="m12.8 15.8s-1.3.4-2.3.3-1.7-.4-1.7-.7c0-.2.4-1.2.4-1.2l3.6 1.1z"/><path d="m19.4 16.1c-1 .1-2.3-.3-2.3-.3v-.5l3.6-1.1s.4 1 .4 1.2c0 .3-.6.6-1.7.7z"/></g><path d="m17.3 22.2h-4.6l-.9.8-1.4-.5c-.2.7-.4 1.4-.4 1.5s0 .4.5.7.8.5 1.5-.1c.7-.5 1-.6 1.4-.6h.7l.1-.3h1.3l.2.3h.7s.7.1 1.4.6 1 .4 1.5.1.6-.6.5-.7c0 0-.2-.7-.4-1.5l-1.4.5z" fill="#f7d361"/><path d="m8.3 7.3.1 5.4v.2l-.6 2.5s-.2 1.1.4 1.8 2.3 2.8 2.4 3.7c.1.8 0 1.1 0 1.1l1.1.5.8-.8h2 .9 2l.8.8 1.1-.5s0-.3 0-1.1c.1-.8 1.8-2.9 2.4-3.7.6-.7.4-1.8.4-1.8l-.6-2.5v-.1l.1-5.4-3.4-2.4-1.1 3.4h-4.2l-1.1-3.4z" fill="#f7d361"/><path d="m12.8 14.8s-1.3.4-2.3.3-1.7-.4-1.7-.7c0-.2.4-1.2.4-1.2l3.6 1.1z" fill="#f2f2f2"/><path d="m19.4 15.1c-1 .1-2.3-.3-2.3-.3v-.5l3.6-1.1s.4 1 .4 1.2c0 .3-.6.7-1.7.7z" fill="#f2f2f2"/><path d="m17.3 22.2h-4.6l-.9.8-1.4-.5c-.2.7-.4 1.4-.4 1.5s0 .4.5.7.8.5 1.5-.1c.7-.5 1-.6 1.4-.6h.7l.1-.3h1.3l.2.3h.7s.7.1 1.4.6 1 .4 1.5.1.6-.6.5-.7c0 0-.2-.7-.4-1.5l-1.4.5z" style="fill:none;stroke:#333;stroke-width:.25;stroke-linecap:round;stroke-linejoin:round;stroke-miterlimit:10"/><path d="m21.7 9.7v-2.4l-3.5-2.3-1.1 3.4h-4.2l-1.1-3.4-3.5 2.3.1 5.4v.2l-.6 2.5s-.2 1.1.4 1.8 2.3 2.8 2.4 3.7c.1.8 0 1.1 0 1.1l1.1.5.8-.8h2 .9 2l.8.8 1.1-.5s0-.3 0-1.1c.1-.8 1.8-2.9 2.4-3.7.6-.7.4-1.8.4-1.8l-.6-2.5v-.1-2" style="fill:none;stroke:#333;stroke-width:.25;stroke-linecap:round;stroke-linejoin:round;stroke-miterlimit:10"/><path d="m21.7 10.4c.2 0 .2-.3 0-.3s-.2.3 0 .3z" fill="#333"/><g clip-path="url(#a)" opacity=".1"><path d="m17.2 22.2h-4.6l-.9.8-1.4-.5c-.2.8-.4 1.5-.4 1.5 0 .1 0 .4.5.7s.8.5 1.5-.1c.7-.5 1-.6 1.4-.6h.7l.1-.3h1.3l.2.3h.7c.4 0 .7.1 1.4.6s1 .4 1.5.1.6-.6.5-.7c0 0-.2-.7-.4-1.5l-1.4.5z"/><path d="m22.1 15.4-.6-2.5v-.1l.1-5.4-3.6-2.4-1.1 3.4h-4.2l-1-3.4-3.5 2.3.1 5.4v.2l-.6 2.5s-.2 1.1.4 1.8 2.3 2.8 2.4 3.7c.1.8 0 1.1 0 1.1l1.1.5.8-.8h2 .9 2l.8.8 1.1-.5s0-.3 0-1.1c.1-.8 1.8-2.9 2.4-3.7.7-.7.5-1.8.5-1.8z"/></g></svg>