<svg viewBox="0 0 30 30" xmlns="http://www.w3.org/2000/svg"><circle cx="15" cy="15.02" fill="#abefac" r="14.98"/><g opacity=".2"><path d="m21.65 12.34a6.89 6.89 0 0 0 -4.32-2.8.61.61 0 0 0 -.3-.45 3 3 0 0 0 .05-.52 2.4 2.4 0 0 0 -2.24-2.57 2.35 2.35 0 0 0 -2.21 2.23v-.05a.31.31 0 0 0 0-.09v.08a.45.45 0 0 1 -.13.33s0 0 0 .05a.76.76 0 0 0 -.5-.14.45.45 0 0 1 -.32-.13.23.23 0 0 0 -.06-.07l.06.06a.47.47 0 0 1 .08.35.59.59 0 0 0 0 .29.2.2 0 0 0 -.08 0 .41.41 0 0 1 -.34.07h-.09.08a.45.45 0 0 1 .26.24.86.86 0 0 0 .37.34c-3.34.9-5.41 3.6-5.41 7.82 0 5.28 2.72 8.5 7.62 8.5s9.1-2.26 9.1-8.33a12.59 12.59 0 0 0 -1.05-4.14"/><path d="m12.61 8.17v-.1a.67.67 0 0 0 0 .1z"/></g><ellipse cx="14.84" cy="7.53" rx="2.24" ry="2.53"/><ellipse cx="14.84" cy="8.5" fill="#f00" rx="2.5" ry=".97"/><path d="m14.76 8.27c-4.9 0-8.12 2.9-8.12 8.17s2.72 8.5 7.62 8.5 9.1-2.26 9.1-8.33c-.59-5.93-3.71-8.34-8.6-8.34zm-.19 16.06a7.62 7.62 0 0 1 -5.77-2.49 3.3 3.3 0 0 1 1.32-4.79 13.5 13.5 0 0 0 4.14-4.61s.62 2.27-1 3.2a3.85 3.85 0 0 0 -1.87 1.81 4.23 4.23 0 0 1 1.92-1.67c1.85-1 1.69-3.5 1.69-3.5s7 2.05 6.57 5.72a6.65 6.65 0 0 1 -7 6.33z"/><circle cx="20.94" cy="19" fill="#efcdb1" r="1.72"/><circle cx="20.94" cy="19" fill="#c9af9b" r="1.25"/><path d="m15.43 24.31h.33l.4-.07.44-.12a1.8 1.8 0 0 0 .22-.06 6.81 6.81 0 0 0 2.93-1.53 6.12 6.12 0 0 0 1.77-4.53c.15-4.18-6.57-5.72-6.57-5.72s.16 2.46-1.69 3.5a4.23 4.23 0 0 0 -1.92 1.67 3.85 3.85 0 0 1 1.87-1.81c1.67-.93 1-3.2 1-3.2a13.5 13.5 0 0 1 -4.14 4.61c-2.39 1.44-2.07 3.95-1.3 4.69a7 7 0 0 0 4.23 2.52h.19l.44.06h.74s.47 0 .69 0z" fill="#f9d6b4"/><ellipse cx="17.84" cy="19.7" rx=".94" ry="1.74"/><ellipse cx="11.85" cy="19.7" rx=".94" ry="1.74"/><g fill="#fff"><circle cx="12.22" cy="20.32" r=".46"/><circle cx="18.21" cy="20.32" r=".46"/><path d="m12.59 7.67a.87.87 0 0 0 -.59-.26.45.45 0 0 1 -.32-.13.23.23 0 0 0 -.06-.07l.06.06a.47.47 0 0 1 .08.35.83.83 0 0 0 .12.5v.07s0 0 0 0a.42.42 0 1 0 .64-.54z"/><path d="m11.7 7.27-.06-.07z"/><path d="m13.11 8a.88.88 0 0 0 -.3-.48.46.46 0 0 1 -.19-.29.31.31 0 0 0 0-.09v.08a.45.45 0 0 1 -.13.33.84.84 0 0 0 -.19.45.19.19 0 0 0 0 .08.42.42 0 0 0 .82-.08s0 0-.01 0z"/><path d="m12.61 7.17v-.1a.67.67 0 0 0 0 .1z"/><path d="m12.35 7.86a1 1 0 0 0 -.55.1.41.41 0 0 1 -.34.07h-.09.08a.45.45 0 0 1 .26.24.88.88 0 0 0 .38.34h.07a.42.42 0 0 0 .22-.81z"/><path d="m11.4 8h-.09z"/><g opacity=".1"><path d="m17.43 8.59s0 0 0 0a.58.58 0 0 0 -.3-.45 3 3 0 0 0 .05-.52 2.4 2.4 0 0 0 -2.18-2.57 2.36 2.36 0 0 0 -2.22 2.23.31.31 0 0 0 0-.09v.08a.44.44 0 0 1 -.13.33s0 0 0 0a.84.84 0 0 0 -.43-.16.45.45 0 0 1 -.32-.13l-.06-.07.06.07a.43.43 0 0 1 .08.34.58.58 0 0 0 0 .29h-.08a.46.46 0 0 1 -.34.08h-.09.08a.45.45 0 0 1 .26.24.86.86 0 0 0 .37.34c-3.34.91-5.41 3.6-5.41 7.83 0 5.27 2.72 8.49 7.62 8.49s9.1-2.26 9.1-8.33c-.49-4.74-2.65-7.23-6.06-8z"/><path d="m12.69 7.19v-.1a.67.67 0 0 0 0 .1z"/></g></g><path d="m21.65 11.34a6.89 6.89 0 0 0 -4.32-2.8.61.61 0 0 0 -.3-.45 3 3 0 0 0 .05-.52 2.4 2.4 0 0 0 -2.24-2.57 2.35 2.35 0 0 0 -2.21 2.23.17.17 0 0 1 0-.05.31.31 0 0 0 0-.09v.08a.45.45 0 0 1 -.13.33s0 0 0 .05a.76.76 0 0 0 -.5-.14.45.45 0 0 1 -.32-.13.23.23 0 0 0 -.06-.07l.06.06a.47.47 0 0 1 .08.35.59.59 0 0 0 0 .29h-.08a.41.41 0 0 1 -.34.07h-.09.08a.45.45 0 0 1 .26.24.86.86 0 0 0 .37.34c-3.34.9-5.41 3.6-5.41 7.82 0 5.28 2.72 8.5 7.62 8.5s9.1-2.26 9.1-8.33a12.59 12.59 0 0 0 -1.05-4.14" fill="none" stroke="#fff" stroke-linecap="round" stroke-linejoin="round" stroke-width=".25"/><path d="m12.61 7.17v-.1a.67.67 0 0 0 0 .1z" fill="none" stroke="#fff" stroke-linejoin="round" stroke-width=".25"/><path d="m22 12a.13.13 0 1 0 0-.25.13.13 0 0 0 0 .25z" fill="#fff"/></svg>