<svg enable-background="new 0 0 30 30" viewBox="0 0 30 30" xmlns="http://www.w3.org/2000/svg" xmlns:xlink="http://www.w3.org/1999/xlink"><clipPath id="a"><path d="m22.2 19.5c-1.8 2-4.3 3.3-7.2 3.3s-5.5-1.3-7.3-3.3l2.3-4.5 4.7-9.8c.1-.3.5-.3.6 0l4.7 9.8z"/></clipPath><clipPath id="b"><path d="m6.9 5h8.2v20h-8.2z"/></clipPath><circle cx="15" cy="15" fill="#ffaf99" r="15"/><path d="m22.2 20.5c-1.8 2-4.3 3.3-7.2 3.3s-5.5-1.3-7.3-3.4l-.4.7-.6 1.2c-.1.2-.1.4.1.5 2.1 2 5 3.2 8.1 3.2s5.9-1.2 8-3.1c.1-.1.2-.4.1-.5z" opacity=".2"/><path d="m22.2 19.5c-1.8 2-4.3 3.3-7.2 3.3s-5.5-1.3-7.3-3.4l-.4.7-.6 1.2c-.1.2-.1.4.1.5 2.1 2 5 3.2 8.1 3.2s5.9-1.2 8-3.1c.1-.1.2-.4.1-.5z" fill="#fbb03b"/><path d="m22.2 19.5c-1.8 2-4.3 3.3-7.2 3.3s-5.5-1.3-7.3-3.3l2.3-4.5 4.7-9.8c.1-.3.5-.3.6 0l4.7 9.8z" fill="#f9b964"/><g clip-path="url(#a)" fill="#fc6738"><circle cx="17.3" cy="7.9" r="2.9"/><circle cx="10.4" cy="16" r="2.9"/><circle cx="20.9" cy="17.7" r="2.9"/><circle cx="14.2" cy="22.6" r="2.9"/></g><path d="m18.4 11.8-3.1-6.6c-.1-.3-.5-.3-.6 0l-4.7 9.8-2.2 4.4-.4.7-.6 1.2c-.1.2-.1.4.1.5 2.1 2 5 3.2 8.1 3.2s5.9-1.2 8-3.1c.1-.1.2-.4.1-.5l-.9-1.8m0-.1-2.2-4.5-1-2.1" style="fill:none;stroke:#333;stroke-width:.25;stroke-linecap:round;stroke-linejoin:round;stroke-miterlimit:10"/><path d="m22.2 19.5c-1.8 2-4.3 3.3-7.2 3.3s-5.5-1.3-7.3-3.4l-.4.7-.6 1.2c-.1.2-.1.4.1.5 2.1 2 5 3.2 8.1 3.2s5.9-1.2 8-3.1c.1-.1.2-.4.1-.5z" style="fill:none;stroke:#333;stroke-width:.25;stroke-linecap:round;stroke-linejoin:round;stroke-miterlimit:10"/><path clip-path="url(#b)" d="m23.3 21.3-.9-1.8-2.3-4.5-4.7-9.8c-.1-.3-.5-.3-.6 0l-4.7 9.8-2.2 4.4-.4.7-.5 1.1c0 .1-.1.2 0 .3 0 .1.1.2.1.2 1.3 1.3 2.9 2.3 4.7 2.8 1.1.3 2.2.5 3.4.5 3.1 0 5.9-1.2 8-3.1.1-.1.1-.2.1-.2 0-.2 0-.3 0-.4z" fill="#fff" opacity=".2"/><path d="m18.8 12.5c.2 0 .2-.3 0-.3-.2.1-.2.3 0 .3z" fill="#333"/></svg>