<svg viewBox="0 0 30 30" xmlns="http://www.w3.org/2000/svg"><circle cx="15" cy="15.02" fill="#ffd15f" r="14.98"/><path d="m23.81 14.25a8.25 8.25 0 0 1 0 3.32 1.11 1.11 0 0 0 .13.81 4 4 0 0 1 -.48 4.38 9.28 9.28 0 0 1 -5.21 2.85 15.64 15.64 0 0 1 -5.15.22 11.21 11.21 0 0 1 -4.89-1.69 5.39 5.39 0 0 1 -2-2.05 3.87 3.87 0 0 1 0-3.84.67.67 0 0 0 .09-.41 9.29 9.29 0 0 1 .59-5.58s0 0 0-.07c-2.13-.75-2.37-3.76-1.18-5.19a2.19 2.19 0 0 1 3.71.27 11.51 11.51 0 0 1 .58 1.34 8.9 8.9 0 0 1 5-1.61 8.73 8.73 0 0 1 5 1.5 10 10 0 0 1 .86-1.59 2.13 2.13 0 0 1 3.24-.19 3.56 3.56 0 0 1 -.27 5.07c-.19.14-.41.24-.59.35l.36 1.17" opacity=".2"/><path d="m20 7.5a10 10 0 0 1 .86-1.59 2.13 2.13 0 0 1 3.24-.19 3.56 3.56 0 0 1 -.27 5.07c-.19.14-.41.24-.59.35.21.7.45 1.4.6 2.12a8.2 8.2 0 0 1 0 3.31 1.11 1.11 0 0 0 .13.81 4 4 0 0 1 -.48 4.38 9.28 9.28 0 0 1 -5.21 2.85 15.64 15.64 0 0 1 -5.15.22 11.21 11.21 0 0 1 -4.89-1.69 5.39 5.39 0 0 1 -2-2.05 3.87 3.87 0 0 1 0-3.84.67.67 0 0 0 .09-.41 9.29 9.29 0 0 1 .59-5.58s0 0 0-.07c-2.16-.75-2.4-3.76-1.21-5.19a2.19 2.19 0 0 1 3.71.27 11.51 11.51 0 0 1 .58 1.34 8.9 8.9 0 0 1 5-1.61 8.73 8.73 0 0 1 5 1.5z" fill="#faa40f"/><path d="m7.17 10.6a20.21 20.21 0 0 1 1.74-2.07 1.12 1.12 0 0 0 .29-1.38 3.77 3.77 0 0 0 -.28-.57 1.68 1.68 0 0 0 -3 0 3 3 0 0 0 .08 3.17 1.81 1.81 0 0 0 1.17.85z"/><path d="m24.06 9.75a3 3 0 0 0 0-3.17 1.68 1.68 0 0 0 -3 0 3.77 3.77 0 0 0 -.28.57 1.1 1.1 0 0 0 .29 1.38 20.21 20.21 0 0 1 1.74 2.07 1.81 1.81 0 0 0 1.25-.85z"/><path d="m15 16.5c.79 0 1.38.47 1.38 1.09a1.55 1.55 0 0 1 -1.38 1.41 1.55 1.55 0 0 1 -1.38-1.4c.03-.6.64-1.1 1.38-1.1z"/><path d="m10 16a6.15 6.15 0 0 1 .48-1 .74.74 0 0 1 1.2 0 1.7 1.7 0 0 1 0 2.11.75.75 0 0 1 -1.23 0 5.43 5.43 0 0 1 -.45-1.11z"/><path d="m20.14 16a6.17 6.17 0 0 1 -.5 1 .73.73 0 0 1 -1.17 0 1.69 1.69 0 0 1 0-2.14.74.74 0 0 1 1.2 0 5.86 5.86 0 0 1 .47 1.14z"/><path d="m11.74 11.55a2.22 2.22 0 0 0 -2.11.9.14.14 0 0 0 0 .06.17.17 0 0 0 .17.13h.11a2 2 0 0 1 1.78-.75.15.15 0 0 0 .15-.15.15.15 0 0 0 -.1-.19z"/><path d="m18.53 11.55a2.23 2.23 0 0 1 2.12.9.13.13 0 0 1 0 .06.15.15 0 0 1 -.16.13h-.11a1.94 1.94 0 0 0 -1.78-.75.14.14 0 0 1 -.14-.15.16.16 0 0 1 .07-.19z"/><ellipse cx="11.04" cy="15.97" rx="1.13" ry="1.56"/><circle cx="11.68" cy="16.73" fill="#fff" r=".4"/><ellipse cx="19.11" cy="15.97" rx="1.13" ry="1.56"/><circle cx="19.75" cy="16.73" fill="#fff" r=".4"/><path d="m23.72 12.94a.13.13 0 0 0 0-.25.13.13 0 0 0 0 .25z" fill="#333"/><path d="m20 7.5a11.91 11.91 0 0 1 .86-1.59 2.13 2.13 0 0 1 3.24-.19 3.56 3.56 0 0 1 -.27 5.07c-.19.14-.41.24-.59.35.21.7.45 1.4.61 2.12a8.38 8.38 0 0 1 0 3.31 1.11 1.11 0 0 0 .13.81 4 4 0 0 1 -.48 4.38 9.28 9.28 0 0 1 -5.21 2.85 15.64 15.64 0 0 1 -5.15.22 11.21 11.21 0 0 1 -4.89-1.69 5.3 5.3 0 0 1 -2-2.05 3.85 3.85 0 0 1 0-3.84.76.76 0 0 0 .1-.41 9.21 9.21 0 0 1 .65-5.58s0 0 0-.07c-2.23-.75-2.47-3.76-1.28-5.19a2.19 2.19 0 0 1 3.71.27 11.51 11.51 0 0 1 .57 1.34 8.9 8.9 0 0 1 5-1.61 8.73 8.73 0 0 1 5 1.5z" fill="#fff" opacity=".2"/><path d="m23.81 13.26a8.2 8.2 0 0 1 0 3.31 1.11 1.11 0 0 0 .13.81 4 4 0 0 1 -.48 4.38 9.28 9.28 0 0 1 -5.21 2.85 15.64 15.64 0 0 1 -5.15.22 11.21 11.21 0 0 1 -4.89-1.69 5.39 5.39 0 0 1 -2-2.05 3.87 3.87 0 0 1 0-3.84.67.67 0 0 0 .09-.41 9.29 9.29 0 0 1 .59-5.58s0 0 0-.07c-2.13-.75-2.37-3.76-1.18-5.19a2.19 2.19 0 0 1 3.71.27 11.51 11.51 0 0 1 .58 1.34 8.9 8.9 0 0 1 5-1.61 8.73 8.73 0 0 1 5 1.5 10 10 0 0 1 .86-1.59 2.13 2.13 0 0 1 3.24-.19 3.56 3.56 0 0 1 -.27 5.07c-.19.14-.41.24-.59.35l.36 1.17" fill="none" stroke="#333" stroke-linecap="round" stroke-linejoin="round" stroke-width=".25"/></svg>