<svg enable-background="new 0 0 30 30" viewBox="0 0 30 30" xmlns="http://www.w3.org/2000/svg" xmlns:xlink="http://www.w3.org/1999/xlink"><clipPath id="a"><path d="m19 24.5h-8c-.5 0-1-.4-1-.8l-1.2-10.6c-.1-.5.4-1 1-1h10.4c.6 0 1.1.5 1 1l-1.2 10.6c0 .5-.4.8-1 .8z"/></clipPath><clipPath id="b"><path d="m8.8 2.4h6.2v23h-6.2z"/></clipPath><circle cx="15" cy="15" fill="#f7e07f" r="15"/><path d="m20.8 13.1c.1-.2.2-.4.2-.7 0-.7-.6-1.3-1.3-1.3-.3 0-.6.1-.8.3.3-.3.4-.6.4-1 0-.8-.7-1.5-1.5-1.5 0-.1 0-.1 0-.2 0-.6-.4-1-1-1.2 0-.1 0-.1 0-.2 0-.7-.5-1.2-1.2-1.2s-1.2.5-1.2 1.2c0 .2 0 .3.1.5-.9.1-1.7.8-1.7 1.7-.7-.6-1.8-.6-2.5.1-.4.7-.5 1.4-.3 2-.5.1-.9.6-.9 1.1 0 .1 0 .2.1.4-.2.2-.4.5-.4.8l1.2 10.6c.1.5.5.8 1 .8h8c.5 0 1-.4 1-.8l1.2-10.6c0-.3-.1-.6-.4-.8z" opacity=".2"/><path d="m19.8 10.4c-.3 0-.6.1-.8.3.3-.3.4-.6.4-1 0-.8-.7-1.5-1.5-1.5 0-.1 0-.1 0-.2 0-.6-.4-1-1-1.2 0-.1 0-.1 0-.2 0-.7-.5-1.2-1.2-1.2s-1.2.6-1.2 1.3c0 .2 0 .3.1.5-.9.1-1.7.8-1.7 1.7-.7-.6-1.8-.6-2.5.1-.5.5-.6 1.2-.4 1.8-.5.1-.9.6-.9 1.1 0 .7.5 1.2 1.2 1.2.6 0 1.1-.5 1.2-1.1.1 0 .2.1.3.1.1 1 .9 1.8 2 1.8.6 0 1.2-.3 1.6-.8.4.4.9.7 1.5.7.9 0 1.7-.7 2-1.5.2.3.6.6 1 .6.7 0 1.3-.6 1.3-1.3-.2-.7-.7-1.2-1.4-1.2z" fill="#fbb03b"/><g clip-path="url(#a)"><path d="m8.8 11.7h1.9v12.9h-1.9z" fill="#f33"/><path d="m10.7 11.7h1.9v12.9h-1.9z" fill="#fff"/><path d="m12.6 11.7h1.9v12.9h-1.9z" fill="#f33"/><path d="m14.5 11.7h1.9v12.9h-1.9z" fill="#fff"/><path d="m16.4 11.7h1.9v12.9h-1.9z" fill="#f33"/><path d="m18.3 11.7h1.9v12.9h-1.9z" fill="#fff"/><path d="m20.2 11.7h1.9v12.9h-1.9z" fill="#f33"/></g><path clip-path="url(#a)" d="m19 24.5h-8c-.5 0-1-.4-1-.8l-1.2-10.6c-.1-.5.4-1 1-1h10.4c.6 0 1.1.5 1 1l-1.2 10.6c0 .5-.4.8-1 .8z" fill="none"/><path clip-path="url(#b)" d="m20.9 12.3c.1-.2.2-.4.2-.7 0-.7-.6-1.3-1.3-1.3-.3 0-.6.1-.8.3.3-.3.4-.6.4-1 0-.8-.7-1.5-1.5-1.5 0-.1 0-.1 0-.2 0-.6-.4-1-1-1.2 0-.1 0-.1 0-.2 0-.7-.5-1.2-1.2-1.2s-1.2.5-1.2 1.2c0 .2 0 .3.1.5-.9.3-1.6 1-1.7 1.9-.7-.6-1.8-.6-2.5.1-.4.5-.6 1.2-.4 1.8-.5.1-.9.6-.9 1.1 0 .1 0 .2.1.4-.2.2-.4.5-.4.8l1.2 10.6c.1.5.5.8 1 .8h8.1c.5 0 1-.4 1-.8l1.2-10.6c0-.3-.2-.6-.4-.8z" fill="#fff" opacity=".2"/><path d="m20.8 12.3c.1-.2.2-.4.2-.7 0-.7-.6-1.3-1.3-1.3-.3 0-.6.1-.8.3.3-.3.4-.6.4-1 0-.2 0-.4-.1-.6m-.5-.5c-.2-.2-.5-.3-.8-.3 0-.1 0-.1 0-.2 0-.6-.4-1-1-1.2 0-.1 0-.1 0-.2 0-.7-.5-1.2-1.2-1.2s-1.2.6-1.2 1.3c0 .2 0 .3.1.5-.9.1-1.7.8-1.7 1.7-.7-.6-1.8-.6-2.5.1-.5.5-.6 1.2-.4 1.8-.5.1-.9.6-.9 1.1v.3" style="fill:none;stroke:#333;stroke-width:.25;stroke-linecap:round;stroke-linejoin:round;stroke-miterlimit:10"/><circle cx="11.8" cy="16.6" fill="#fff" r=".2"/><circle cx="19" cy="16.6" fill="#fff" r=".2"/><path d="m19 8.9c.2 0 .2-.3 0-.3-.2.1-.2.3 0 .3z" fill="#333"/><path d="m19 24.5h-8c-.5 0-1-.4-1-.8l-1.2-10.6c-.1-.5.4-1 1-1h10.4c.6 0 1.1.5 1 1l-1.2 10.6c0 .5-.4.8-1 .8z" style="fill:none;stroke:#333;stroke-width:.25;stroke-linecap:round;stroke-linejoin:round;stroke-miterlimit:10"/><path d="m19 24.5h-8c-.5 0-1-.4-1-.8l-1.2-10.6c-.1-.5.4-1 1-1h10.4c.6 0 1.1.5 1 1l-1.2 10.6c0 .5-.4.8-1 .8z" opacity=".05"/></svg>