<?xml version="1.0" encoding="utf-8"?>
<!-- Generator: Adobe Illustrator 23.0.1, SVG Export Plug-In . SVG Version: 6.00 Build 0)  -->
<svg version="1.1" xmlns="http://www.w3.org/2000/svg" xmlns:xlink="http://www.w3.org/1999/xlink" x="0px" y="0px" width="200px"
	 height="200px" viewBox="0 0 200 200" style="enable-background:new 0 0 200 200;" xml:space="preserve">
<style type="text/css">
	.st0{display:none;}
	.st1{display:inline;opacity:0.5;}
	.st2{fill:#FFFFFF;}
	.st3{fill:#B3B4B4;}
	.st4{fill:#4D4D4E;}
	.st5{fill:#666766;}
	.st6{fill:#E6E6E6;}
</style>
<g id="Grid" class="st0">
	<rect x="223.9" y="25" class="st1" width="150" height="150"/>
	<rect x="431.7" y="25" class="st1" width="150" height="150"/>
	<rect x="639.5" y="25" class="st1" width="150" height="150"/>
	<rect x="847.3" y="25" class="st1" width="150" height="150"/>
	<rect x="1055.1" y="25" class="st1" width="150" height="150"/>
	<rect x="1262.9" y="25" class="st1" width="150" height="150"/>
	<rect x="1470.7" y="25" class="st1" width="150" height="150"/>
	<rect x="1678.5" y="25" class="st1" width="150" height="150"/>
	<rect x="1886.3" y="25" class="st1" width="150" height="150"/>
	<rect x="2105.3" y="25" class="st1" width="150" height="150"/>
	<rect x="2301.8" y="25" class="st1" width="150" height="150"/>
	<rect x="2509.6" y="25" class="st1" width="150" height="150"/>
	<rect x="2717.4" y="25" class="st1" width="150" height="150"/>
	<rect x="2925.2" y="25" class="st1" width="150" height="150"/>
</g>
<g id="Add_Friend">
	<circle cx="285.5" cy="73.1" r="31.4"/>
	<path d="M307.3,158.3h-42.8c-5.5,0-10-4.5-10-10v-8.6c0-17.3,14.1-31.4,31.4-31.4h0c17.3,0,31.4,14.1,31.4,31.4v8.6
		C317.3,153.8,312.8,158.3,307.3,158.3z"/>
	<g>
		<path d="M336.5,39.4L336.5,39.4c-2.8,0-5,2.2-5,5v29.5c0,2.8,2.2,5,5,5h0c2.8,0,5-2.2,5-5V44.4C341.5,41.7,339.2,39.4,336.5,39.4z
			"/>
		<path d="M356.2,59.2L356.2,59.2c0-2.8-2.2-5-5-5h-29.5c-2.8,0-5,2.2-5,5v0c0,2.8,2.2,5,5,5h29.5C354,64.2,356.2,61.9,356.2,59.2z"
			/>
	</g>
	<g>
		<path class="st2" d="M506.7,41.7L506.7,41.7c-12.4,0-22.5,10.1-22.5,22.5v35.3c0,12.4,10.1,22.5,22.5,22.5h0
			c12.4,0,22.5-10.1,22.5-22.5V64.2C529.2,51.8,519.1,41.7,506.7,41.7z"/>
		<circle class="st2" cx="506.7" cy="136.3" r="5"/>
		<g>
			<circle class="st2" cx="475.3" cy="100.7" r="5"/>
			<circle class="st2" cx="538" cy="100.7" r="5"/>
			<path class="st2" d="M533,100.7c-0.4,14.2-12.1,25.6-26.3,25.6c-14.3,0-26-11.5-26.3-25.6h-10c0.4,19.6,16.6,35.5,36.3,35.5h0
				c19.7,0,35.9-15.9,36.3-35.5H533z"/>
		</g>
		<path class="st2" d="M506.7,131.3L506.7,131.3c-2.8,0-5,2.2-5,5v11.1c0,2.8,2.2,5,5,5h0c2.8,0,5-2.2,5-5v-11.1
			C511.7,133.6,509.4,131.3,506.7,131.3z"/>
		<path class="st2" d="M524.8,153.3L524.8,153.3c0-2.8-2.2-5-5-5h-26.1c-2.8,0-5,2.2-5,5l0,0c0,2.8,2.2,5,5,5h26.1
			C522.5,158.3,524.8,156.1,524.8,153.3z"/>
	</g>
	<g>
		<path class="st2" d="M729.6,116.6c-2-2-5.1-2-7.1,0L705,134.2c-5.5,5.5-14.6,5.5-20.1,0s-5.5-14.6,0-20.1l17.6-17.6
			c2-2,2-5.1,0-7.1c-2-2-5.1-2-7.1,0L677.7,107c-9.4,9.4-9.4,24.9,0,34.3c9.4,9.4,24.9,9.4,34.3,0l17.6-17.6
			C731.5,121.7,731.5,118.6,729.6,116.6z"/>
		<path class="st2" d="M760.2,58.8c-9.4-9.4-24.9-9.4-34.3,0l-17.6,17.6c-2,2-2,5.1,0,7.1c2,2,5.1,2,7.1,0L733,65.8
			c5.5-5.5,14.6-5.5,20.1,0s5.5,14.6,0,20.1l-17.6,17.6c-2,2-2,5.1,0,7.1c2,2,5.1,2,7.1,0L760.2,93
			C769.6,83.6,769.6,68.2,760.2,58.8z"/>
		<path class="st2" d="M712.2,113.9l20.6-20.6c1.9-1.9,1.9-5.1,0-7.1c-1.9-1.9-5.1-1.9-7.1,0l-20.6,20.6c-1.9,1.9-1.9,5.1,0,7.1
			S710.2,115.8,712.2,113.9z"/>
	</g>
	<g>
		<path d="M928.9,137.5h-55c-5.5,0-10-4.5-10-10v-55c0-5.5,4.5-10,10-10h55c5.5,0,10,4.5,10,10v55
			C938.9,133,934.4,137.5,928.9,137.5z"/>
		<path d="M951.9,111.5c-8.9-5.1-8.9-17.9,0-23.1l9.3-5.4l23-13.3c2.8-1.6,6.3,0.4,6.3,3.6V100v26.6c0,3.2-3.5,5.2-6.3,3.6l-23-13.3
			L951.9,111.5z"/>
	</g>
	<g>
		<circle class="st2" cx="1116.4" cy="73.1" r="31.4"/>
		<path class="st2" d="M1138.2,158.3h-42.8c-5.5,0-10-4.5-10-10v-8.6c0-17.3,14.1-31.4,31.4-31.4l0,0c17.3,0,31.4,14.1,31.4,31.4
			v8.6C1148.2,153.8,1143.7,158.3,1138.2,158.3z"/>
		<path class="st2" d="M1151.2,41.8c-1-0.1-2.1-0.1-3.1-0.1c-4.4,0-6.6,5.5-3.3,8.6c6.1,5.7,9.8,13.8,9.8,22.8
			c0,9-3.8,17.1-9.9,22.9c-3.2,3-1.1,8.5,3.3,8.5c0,0,0.1,0,0.1,0c18.1,0,32.6-15.2,31.3-33.6C1178.5,55.7,1166.4,43.2,1151.2,41.8z
			"/>
		<path class="st2" d="M1148.6,108.3L1148.6,108.3l-0.1,0c-4.5,0-6.6,5.5-3.3,8.6c6.1,5.7,9.9,13.8,9.9,22.8v6.9
			c0,1.3-0.6,4-1.4,4.7c-2.8,2.4-1,7,2.6,7c7.1,0,13.8,0,13.8,0c5.5,0,10-4.5,10-10v-8.6C1180,122.4,1165.8,108.3,1148.6,108.3z"/>
	</g>
	<path class="st2" d="M1397.8,135.4c-0.4-4.5-3.2-8.5-8.9-13.4c-6.9-5.7-12.2-8.1-16.6-7.7c-5.2,0-8.4,3.1-12.1,6.8v0
		c-3.7,3.7-8.6,1.8-9.8,1.2c-4-2.1-10-6.4-19.1-15.3c-10.8-10.4-15.4-16.8-17.1-20.6c-1.3-3.2,0.5-6,1.6-7.2
		c6.6-7,11.9-13.2-1.4-28.9c-5.3-6.1-10.1-8.5-14.6-8.5c-1.7,0.1-3.4,0.7-4.9,1.4l0,0c0,0,0,0,0,0c-0.7,0.3-1.4,0.7-2,1.1
		c-8.5,4.9-10.9,10-10.9,10l0,0c-0.8,1.4-1.4,2.7-1.8,3.9c-0.2,0.5-0.3,0.9-0.4,1.4c-0.4,1.8-0.5,3.3-0.5,3.9
		c-0.4,4.4,0.3,9.9,3,16.5c0.3,0.9,0.6,1.8,1,2.7c6.1,14.2,17,29.6,30.8,43c18.2,17.9,35.5,26.8,48.4,30.4l0,0
		c0,0,13.6,4.5,19.6,0.9c1-0.4,1.9-1,2.8-1.7c5.9-4,10-9.6,11.7-13.3c0,0,0,0,0-0.1c0.1-0.2,0.2-0.5,0.3-0.7l0,0
		C1397.5,139.3,1397.9,137.4,1397.8,135.4z"/>
	<path class="st2" d="M1481.9,118c3.4,2.9,8.3,3.7,15.8,3.2c8.9-0.9,14.3-2.9,17.2-6.3c3.7-3.7,3.7-8.2,3.7-13.4l0,0
		c0-5.2,4.8-7.3,6.1-7.8c4.3-1.4,11.6-2.5,24.3-2.7c15-0.3,22.7,0.9,26.7,2.4c3.2,1.4,3.9,4.6,4,6.2c0.3,9.6,0.9,17.8,21.5,19.4
		c8,0.6,13.2-1.1,16.3-4.3c1.1-1.3,1.9-2.9,2.5-4.5l0,0c0,0,0,0,0,0c0.3-0.7,0.5-1.5,0.7-2.2c2.6-9.4,0.6-14.8,0.6-14.8l0,0
		c-0.4-1.5-0.9-2.9-1.5-4c-0.2-0.4-0.5-0.9-0.7-1.3c-1-1.6-1.9-2.7-2.4-3.1c-2.9-3.4-7.2-6.8-13.8-9.6c-0.8-0.4-1.7-0.8-2.6-1.2
		c-14.3-5.7-33-8.9-52.2-8.6c-25.5,0.2-44.1,6.1-55.8,12.7l0,0c0,0-12.7,6.4-14.5,13.2c-0.4,1-0.6,2-0.8,3.2
		c-1.3,7-0.2,13.8,1.2,17.7c0,0,0,0,0,0.1c0.1,0.2,0.2,0.5,0.3,0.7l0,0C1479.3,115,1480.3,116.7,1481.9,118z"/>
	<g>
		<path class="st2" d="M1766.1,137.5h-55c-5.5,0-10-4.5-10-10v-55c0-5.5,4.5-10,10-10h55c5.5,0,10,4.5,10,10v55
			C1776.1,133,1771.6,137.5,1766.1,137.5z"/>
		<path class="st2" d="M1789.1,111.5c-8.9-5.1-8.9-17.9,0-23.1l9.3-5.4l23-13.3c2.8-1.6,6.3,0.4,6.3,3.6V100v26.6
			c0,3.2-3.5,5.2-6.3,3.6l-23-13.3L1789.1,111.5z"/>
	</g>
	<path class="st3" d="M1826.5,38.3L1826.5,38.3c-2-2-5.4-2-7.4,0l-116.9,116.9c-2,2-2,5.4,0,7.4v0c2,2,5.4,2,7.4,0l116.9-116.9
		C1828.6,43.7,1828.6,40.4,1826.5,38.3z"/>
	<path d="M2027.3,86.9h-3.2c-1.2,0-2.2-0.8-2.6-1.9c-0.6-1.6-1.2-3.2-1.9-4.7c-0.5-1.1-0.3-2.3,0.5-3.2l2.3-2.3
		c3.8-3.8,3.8-10,0-13.7l-4.8-4.8c-3.8-3.8-10-3.8-13.7,0l-2.3,2.3c-0.8,0.8-2.1,1-3.2,0.5c-1.5-0.7-3.1-1.4-4.7-1.9
		c-1.1-0.4-1.9-1.4-1.9-2.6v-3.2c0-5.3-4.4-9.7-9.7-9.7h-6.8c-5.3,0-9.7,4.4-9.7,9.7v3.2c0,1.2-0.8,2.2-1.9,2.6
		c-1.6,0.6-3.2,1.2-4.7,1.9c-1.1,0.5-2.3,0.3-3.2-0.5l-2.3-2.3c-3.8-3.8-10-3.8-13.7,0l-4.8,4.8c-3.8,3.8-3.8,10,0,13.7l2.3,2.3
		c0.8,0.8,1,2.1,0.5,3.2c-0.7,1.5-1.4,3.1-1.9,4.7c-0.4,1.1-1.4,1.9-2.6,1.9h-3.2c-5.3,0-9.7,4.4-9.7,9.7v6.8c0,5.3,4.4,9.7,9.7,9.7
		h3.2c1.2,0,2.2,0.8,2.6,1.9c0.6,1.6,1.2,3.2,1.9,4.7c0.5,1.1,0.3,2.3-0.5,3.2l-2.3,2.3c-3.8,3.8-3.8,10,0,13.7l4.8,4.8
		c3.8,3.8,10,3.8,13.7,0l2.3-2.3c0.8-0.8,2.1-1,3.2-0.5c1.5,0.7,3.1,1.4,4.7,1.9c1.1,0.4,1.9,1.4,1.9,2.6v3.2c0,5.3,4.4,9.7,9.7,9.7
		h6.8c5.3,0,9.7-4.4,9.7-9.7v-3.2c0-1.2,0.8-2.2,1.9-2.6c1.6-0.6,3.2-1.2,4.7-1.9c1.1-0.5,2.3-0.3,3.2,0.5l2.3,2.3
		c3.8,3.8,10,3.8,13.7,0l4.8-4.8c3.8-3.8,3.8-10,0-13.7l-2.3-2.3c-0.8-0.8-1-2.1-0.5-3.2c0.7-1.5,1.4-3.1,1.9-4.7
		c0.4-1.1,1.4-1.9,2.6-1.9h3.2c5.3,0,9.7-4.4,9.7-9.7v-6.8C2037,91.3,2032.6,86.9,2027.3,86.9z M1978.7,127.9
		c-15.4,0-27.9-12.5-27.9-27.9s12.5-27.9,27.9-27.9s27.9,12.5,27.9,27.9S1994.1,127.9,1978.7,127.9z"/>
	<g>
		<path d="M2212.4,84.1L2212.4,84.1c0,3.5-2.9,6.4-6.4,6.4h-64.3c-3.5,0-6.4-2.9-6.4-6.4v0c0-3.5,2.9-6.4,6.4-6.4h64.3
			C2209.5,77.6,2212.4,80.5,2212.4,84.1z"/>
		<path d="M2122.7,86.4l33.9,19.5c1.8,1,4-0.3,4-2.3V64.5c0-2.1-2.2-3.4-4-2.3l-33.9,19.5C2120.9,82.8,2120.9,85.4,2122.7,86.4
			l33.9,19.5c1.8,1,4-0.3,4-2.3V64.5c0-2.1-2.2-3.4-4-2.3l-33.9,19.5C2120.9,82.8,2120.9,85.4,2122.7,86.4z"/>
	</g>
	<g>
		<path d="M2180.3,116.9L2180.3,116.9c0-3.5,2.9-6.4,6.4-6.4h64.3c3.5,0,6.4,2.9,6.4,6.4v0c0,3.5-2.9,6.4-6.4,6.4h-64.3
			C2183.2,123.4,2180.3,120.5,2180.3,116.9z"/>
		<path d="M2270,114.6l-33.9-19.5c-1.8-1-4,0.3-4,2.3v39.1c0,2.1,2.2,3.4,4,2.3l33.9-19.5C2271.8,118.2,2271.8,115.6,2270,114.6
			l-33.9-19.5c-1.8-1-4,0.3-4,2.3v39.1c0,2.1,2.2,3.4,4,2.3l33.9-19.5C2271.8,118.2,2271.8,115.6,2270,114.6z"/>
	</g>
	<g>
		<path d="M2376.3,102.4c4.9,0,8.9-4,8.9-8.9s-4-8.9-8.9-8.9c-4.9,0-8.9,4-8.9,8.9S2371.3,102.4,2376.3,102.4z"/>
		<path d="M2426.3,97c-0.7-0.7-2-0.7-2.7,0l-28.3,30.8c-1.5,1.6-4,1.6-5.4,0l-12.1-13.2c-0.4-0.4-0.8-0.5-1.4-0.5
			c-0.5,0-0.9,0.3-1.4,0.5l-10.7,11.6c-0.6,0.7-1,1.6-1,2.5v7.9c0,2,1.6,3.7,3.7,3.7h73.5c2,0,3.7-1.6,3.7-3.7v-18.6
			c0-0.9-0.3-1.8-1-2.5L2426.3,97z"/>
		<path d="M2476.6,55.5c-0.7-0.8-1.5-1.2-2.6-1.4l-102.6-8.9c-2-0.3-3.8,1.4-4.1,3.4l-1.6,18.4h-13.6c-2,0-3.7,1.6-3.7,3.7v80.5
			c0,2,1.6,3.7,3.7,3.7h103c2,0,3.7-1.6,3.7-3.7V141l7.3,0.7c0.1,0,0.3,0,0.3,0c0.8,0,1.8-0.3,2.4-0.8c0.8-0.7,1.2-1.5,1.4-2.6
			l7-80.1C2477.5,57.3,2477.1,56.3,2476.6,55.5z M2451.6,146c0,0.8-0.7,1.5-1.5,1.5h-92.6c-0.8,0-1.5-0.7-1.5-1.5V76
			c0-0.8,0.7-1.5,1.5-1.5h92.6c0.8,0,1.5,0.7,1.5,1.5V146z M2463.4,132.6c-0.1,0.8-0.8,1.4-1.6,1.4l-1.5-0.1
			c-0.8-0.1-1.4-0.7-1.4-1.5V70.8c0-2-1.6-3.7-3.7-3.7h-82l1.1-12.6c0.1-0.8,0.8-1.4,1.6-1.4l92.2,8.1c0.8,0.1,1.4,0.8,1.4,1.6
			L2463.4,132.6z"/>
		<path d="M2389.3,95.4h1.6c0.4,0.6,1,1,1.7,1h2.6c0.7,0,1.4-0.4,1.7-1h1.6c1.1,0,2-0.9,2-2c0-1.1-0.9-2-2-2h-1.3c0-1.1-0.9-2-2-2
			h-2.6c-1.1,0-2,0.9-2,2h-1.3c-1.1,0-2,0.9-2,2S2388.2,95.4,2389.3,95.4z"/>
		<path d="M2418,88.5h1.6c0.4,0.6,1,1,1.7,1h2.6c0.7,0,1.4-0.4,1.7-1h1.6c1.1,0,2-0.9,2-2s-0.9-2-2-2h-1.3c0-1.1-0.9-2-2-2h-2.6
			c-1.1,0-2,0.9-2,2h-1.3c-1.1,0-2,0.9-2,2C2416,87.6,2416.9,88.5,2418,88.5z"/>
		<path d="M2399.7,101.9c0,1.1,0.9,2,2,2h1.6c0.4,0.6,1,1,1.7,1h2.6c0.7,0,1.4-0.4,1.7-1h1.6c1.1,0,2-0.9,2-2c0-1.1-0.9-2-2-2h-1.3
			c0-1.1-0.9-2-2-2h-2.6c-1.1,0-2,0.9-2,2h-1.3C2400.6,99.9,2399.7,100.8,2399.7,101.9z"/>
		<path d="M2427.4,97c0,1.1,0.9,2,2,2h1.6c0.4,0.6,1,1,1.7,1h2.6c0.7,0,1.4-0.4,1.7-1h1.6c1.1,0,2-0.9,2-2c0-1.1-0.9-2-2-2h-1.3
			c0-1.1-0.9-2-2-2h-2.6c-1.1,0-2,0.9-2,2h-1.3C2428.3,95,2427.4,95.9,2427.4,97z"/>
	</g>
	<path d="M2622.8,41.7c-32.2,0-58.3,26.1-58.3,58.3c0,32.2,26.1,58.3,58.3,58.3s58.3-26.1,58.3-58.3
		C2681.1,67.8,2655,41.7,2622.8,41.7z M2622.8,147.4c-26.2,0-47.4-21.2-47.4-47.4c0-26.2,21.2-47.4,47.4-47.4s47.4,21.2,47.4,47.4
		C2670.2,126.2,2649,147.4,2622.8,147.4z"/>
	<g>
		<g>
			<circle cx="2600.9" cy="92.2" r="8.3"/>
			<circle cx="2642.9" cy="92.2" r="8.3"/>
		</g>
		<g>
			<path d="M2621.9,138.1c15.6,0,28.5-11.8,30.1-27c0.2-1.7-1.2-3.3-3-3.3h-54.3c-1.8,0-3.1,1.5-3,3.3
				C2593.4,126.3,2606.3,138.1,2621.9,138.1z"/>
		</g>
	</g>
	<g>
		<path class="st4" d="M2660.3,39.4L2660.3,39.4c-2.8,0-5,2.2-5,5v29.5c0,2.8,2.2,5,5,5l0,0c2.8,0,5-2.2,5-5V44.4
			C2665.3,41.7,2663,39.4,2660.3,39.4z"/>
		<path class="st4" d="M2680,59.2L2680,59.2c0-2.8-2.2-5-5-5h-29.5c-2.8,0-5,2.2-5,5v0c0,2.8,2.2,5,5,5h29.5
			C2677.8,64.2,2680,61.9,2680,59.2z"/>
	</g>
	<g>
		<g>
			<path d="M2907.6,40.6c-1.1-1.1-2.8-1.5-4.2-0.9l-113,40.4c-1.5,0.5-2.6,1.9-2.7,3.6c-0.1,1.6,0.8,3.1,2.2,3.9l38.5,19.3
				l31.9-18.8l-18.8,31.9l19.3,38.5c0.7,1.4,2.1,2.2,3.6,2.2c0.1,0,0.2,0,0.2,0c1.6-0.1,3-1.1,3.6-2.7l40.4-113
				C2909.1,43.4,2908.7,41.7,2907.6,40.6z"/>
		</g>
		<path class="st5" d="M2828.5,106.7v21.8c0,3,3.8,4.2,5.6,1.8l7.5-10.5l18.8-31.9L2828.5,106.7z"/>
	</g>
	<g>
		<path d="M3124.6,55c-14-14-36.8-14-50.8,0c-1.7,1.7-3.2,3.6-4.5,5.6c-1.3-2-2.8-3.8-4.5-5.5c-14-14-36.8-14-50.8,0
			c-14,14-14,36.8,0,50.8l48.3,48.3c3.9,3.9,10.1,3.9,14,0l48.3-48.3C3138.6,91.7,3138.6,69,3124.6,55z"/>
	</g>
	<g>
		<path class="st6" d="M-154.7,144v27.2c0,2.1,1.7,3.8,3.8,3.8h27.2c1.4,0,2.7-0.5,3.6-1.5L-36.5,90c2-2,2-5.3,0-7.3l-25.9-25.9
			c-2-2-5.3-2-7.3,0l-83.5,83.5C-154.2,141.3-154.7,142.6-154.7,144z"/>
		<path class="st6" d="M-8.8,62.2c5.5-5.5,5.5-14.3,0-19.8l-13.4-13.4c-5.5-5.5-14.3-5.5-19.8,0l-8.9,8.9c-2,2-2,5.3,0,7.3L-25,71.1
			c2,2,5.3,2,7.3,0L-8.8,62.2z"/>
	</g>
	<g>
		<path class="st6" d="M168,32l-12.2,12.2c-1.4,1.4-3.4,1.6-5,0.6C137.4,32.5,119.6,25,100,25c-41.4,0-74.9,33.5-75,74.9h3.1
			c0.4,0.1,0.8,0.2,1.2,0.2h10.5c0.4,0,0.8-0.1,1.2-0.2h11C52,73.4,73.5,52,100,52c13.3,0,25.3,5.4,34,14.1l-17.6,17.6
			c-2.6,2.6-0.8,7,2.9,7h51.6c2.3,0,4.1-1.8,4.1-4.1V34.9C175,31.3,170.6,29.4,168,32z"/>
		<path class="st6" d="M148,100c0,26.5-21.5,48-48,48c-13.5,0-25.2-5.5-33.7-14.3L85,115.1c2.1-2.1,0.6-5.7-2.4-5.7H28.3
			c-1.8,0-3.3,1.5-3.3,3.3V167c0,3,3.6,4.5,5.7,2.4l14-14c1.3-1.3,3.3-1.3,4.6-0.1c3.6,3.3,7.6,6.3,11.8,8.9c0.6,0.3,1.1,0.7,1.7,1
			c0.2,0.1,0.3,0.2,0.5,0.3C74,171.5,86.5,175,100,175c7.5,0,14.7-1.1,21.5-3.1c0.1,0,0.3-0.1,0.4-0.1c0.8-0.2,1.6-0.5,2.4-0.8
			c0.4-0.1,0.8-0.3,1.1-0.4c0.6-0.2,1.2-0.4,1.8-0.7c0.6-0.2,1.1-0.4,1.7-0.7c0.4-0.2,0.9-0.4,1.3-0.6c0.7-0.3,1.4-0.6,2.1-0.9
			c0.3-0.1,0.6-0.3,0.9-0.5c0.8-0.4,1.6-0.8,2.4-1.2c0.2-0.1,0.4-0.2,0.6-0.3c0.9-0.5,1.7-1,2.6-1.5c0.1-0.1,0.3-0.2,0.4-0.2
			c0.9-0.6,1.8-1.1,2.7-1.7c0.1,0,0.1-0.1,0.2-0.1c0.9-0.6,1.9-1.3,2.8-2c0,0,0.1,0,0.1-0.1c0.9-0.7,1.9-1.4,2.8-2.2c0,0,0,0,0,0
			c4.6-3.8,8.8-8.2,12.4-13c0,0,0,0,0,0c0.7-0.9,1.4-1.9,2.1-2.9c0,0,0,0,0-0.1c0.6-1,1.3-1.9,1.9-2.9c0-0.1,0.1-0.1,0.1-0.2
			c0.6-1,1.1-1.9,1.7-2.9c0-0.1,0.1-0.2,0.1-0.3c0.5-0.9,1-1.9,1.5-2.9c0.1-0.1,0.1-0.3,0.2-0.4c0.4-0.9,0.9-1.9,1.3-2.8
			c0.1-0.2,0.2-0.3,0.2-0.5c0.4-0.9,0.7-1.8,1.1-2.8c0.1-0.2,0.2-0.4,0.3-0.7c0.3-0.9,0.6-1.8,0.9-2.7c0.1-0.3,0.2-0.5,0.3-0.8
			c0.3-0.9,0.5-1.7,0.7-2.6c0.1-0.3,0.2-0.7,0.3-1c0.2-0.8,0.4-1.7,0.6-2.5c0.1-0.4,0.2-0.8,0.3-1.2c0.2-0.8,0.3-1.6,0.4-2.4
			c0.1-0.4,0.2-0.9,0.2-1.3c0.1-0.8,0.2-1.5,0.3-2.3c0.1-0.5,0.1-1,0.2-1.4c0.1-0.7,0.1-1.5,0.2-2.2c0-0.5,0.1-1,0.1-1.5
			c0-0.1,0-0.1,0-0.2c0,0,0-0.1,0-0.1c0-1.1,0.1-2.2,0.1-3.4v0L148,100L148,100z"/>
	</g>
</g>
<g id="Guidelines">
</g>
</svg>
