<svg viewBox="0 0 30 30" xmlns="http://www.w3.org/2000/svg"><circle cx="15" cy="15.02" fill="#bf8af9" r="14.98"/><path d="m24.88 20.36a8.44 8.44 0 0 0 -2-.71 10.06 10.06 0 0 0 -1.16-.16 3.92 3.92 0 0 1 .54-.12 3.27 3.27 0 0 1 1.44.05.16.16 0 0 0 .14-.19c0-.07-.06-.1-.12-.12a4.5 4.5 0 0 0 -2.39.18 4.73 4.73 0 0 0 0-.52v-3.56s2.14-5.14.66-6.48c0 0-.23-.35-1.82.79a10.93 10.93 0 0 1 -2.17 1.38 5.44 5.44 0 0 0 -3-.9 5.36 5.36 0 0 0 -3 .86 10.45 10.45 0 0 1 -2.3-1.37c-1.59-1.14-1.84-.77-1.84-.77-1.23 1.11.06 4.87.53 6.08a2.39 2.39 0 0 1 .15.83v2.52a4.56 4.56 0 0 0 .14 1.11 4.21 4.21 0 0 0 -.88-.23 4.32 4.32 0 0 0 -1.57 0c-.06 0-.12 0-.13.12a.17.17 0 0 0 .15.19h.05a3.27 3.27 0 0 1 1.44-.05 4.28 4.28 0 0 1 .54.12 10.06 10.06 0 0 0 -1.16.16 8.44 8.44 0 0 0 -2 .71c-.07 0-.12.1-.1.16s.13.14.26.12h.06a6.27 6.27 0 0 1 1.84-.67 6.49 6.49 0 0 1 1.64-.16v.06a5.44 5.44 0 0 0 -.82.21 4.59 4.59 0 0 0 -1.4.7.15.15 0 0 0 -.06.16.16.16 0 0 0 .21.11s0 0 0 0a3.37 3.37 0 0 1 1.35-.67 3.6 3.6 0 0 1 .9-.15 4.37 4.37 0 0 0 2.21 2.19 14.37 14.37 0 0 0 2.84.88 4.58 4.58 0 0 0 1.88 0 11.89 11.89 0 0 0 3.79-1.37 3.49 3.49 0 0 0 1.43-1.7 4.54 4.54 0 0 1 .77.15 3.37 3.37 0 0 1 1.28.67s0 0 0 0a.16.16 0 0 0 .21-.11.15.15 0 0 0 -.06-.16 4.71 4.71 0 0 0 -1.35-.7 5.14 5.14 0 0 0 -.76-.16v-.07a6.66 6.66 0 0 1 1.54.16 6.27 6.27 0 0 1 1.84.67h.06c.13 0 .24 0 .26-.12s.06-.08-.06-.12z" opacity=".2"/><path d="m22.12 7.73s-.23-.35-1.83.79a10.77 10.77 0 0 1 -2.29 1.38 5.47 5.47 0 0 0 -3-.9 5.39 5.39 0 0 0 -3 .86 10.31 10.31 0 0 1 -2.27-1.34c-1.6-1.14-1.84-.77-1.84-.77-1.24 1.11.06 4.87.52 6.08a2.39 2.39 0 0 1 .15.83v2.52a4.52 4.52 0 0 0 2.66 4.16 14 14 0 0 0 2.84.88 4.58 4.58 0 0 0 1.88 0 11.82 11.82 0 0 0 3.78-1.37 3.6 3.6 0 0 0 1.71-3.1v-3.54s2.17-5.14.69-6.48z"/><path d="m15.88 11.71a.89.89 0 1 1 -1.78 0 1 1 0 0 0 -.18.55 1.07 1.07 0 0 0 2.14 0 1 1 0 0 0 -.18-.55z" fill="#ff0"/><circle cx="6.3" cy="18.25" r=".17"/><path d="m9 18.74a3.53 3.53 0 0 0 -1.2-.38 3.26 3.26 0 0 0 -1.44.05l-.08-.32a4.26 4.26 0 0 1 1.56 0 4.91 4.91 0 0 1 1.28.38.17.17 0 0 0 -.2.13z"/><circle cx="9.04" cy="18.59" r=".16"/><circle cx="6.74" cy="19.83" r=".17"/><path d="m9.37 19.13a3.82 3.82 0 0 0 -1.26.17 3.33 3.33 0 0 0 -1.27.7l-.21-.26a4.59 4.59 0 0 1 2.71-.9.16.16 0 0 0 -.12.2z"/><circle cx="9.36" cy="18.97" r=".16"/><ellipse cx="5.26" cy="19.47" rx=".23" ry=".17" transform="matrix(.97704557 -.21303039 .21303039 .97704557 -4.03 1.57)"/><path d="m8.93 18.77a7.07 7.07 0 0 0 -1.71.17 6.34 6.34 0 0 0 -1.85.67l-.23-.26a8.6 8.6 0 0 1 2-.71 10 10 0 0 1 1.86-.2c-.12 0-.23.12-.21.21z"/><ellipse cx="8.95" cy="18.61" rx=".22" ry=".16" transform="matrix(.97704557 -.21303039 .21303039 .97704557 -3.76 2.33)"/><circle cx="23.73" cy="18.25" r=".17"/><path d="m21.06 18.74a3.53 3.53 0 0 1 1.2-.38 3.26 3.26 0 0 1 1.44.05l.08-.32a4.26 4.26 0 0 0 -1.56 0 4.8 4.8 0 0 0 -1.28.38.17.17 0 0 1 .2.13z"/><circle cx="20.99" cy="18.59" r=".16"/><circle cx="23.3" cy="19.83" r=".17"/><path d="m20.67 19.13a3.76 3.76 0 0 1 1.25.17 3.37 3.37 0 0 1 1.28.7l.21-.26a4.65 4.65 0 0 0 -2.71-.9.16.16 0 0 1 .12.2z"/><circle cx="20.68" cy="18.97" r=".16"/><ellipse cx="24.77" cy="19.47" rx=".17" ry=".23" transform="matrix(.21303039 -.97704557 .97704557 .21303039 .47 39.53)"/><path d="m21.11 18.77a7.07 7.07 0 0 1 1.71.17 6.16 6.16 0 0 1 1.84.67l.24-.26a8.6 8.6 0 0 0 -2-.71 10 10 0 0 0 -1.81-.2c.12 0 .22.12.21.21z"/><ellipse cx="21.09" cy="18.61" rx=".16" ry=".22" transform="matrix(.21303039 -.97704557 .97704557 .21303039 -1.59 35.25)"/><path d="m22.47 10.81c.24-1.25.26-2.51-.37-3.08 0 0-.23-.35-1.82.79a10.93 10.93 0 0 1 -2.28 1.38 5.44 5.44 0 0 0 -3-.9 5.36 5.36 0 0 0 -3 .86 10.45 10.45 0 0 1 -2.3-1.37c-1.59-1.14-1.84-.77-1.84-.77-1.23 1.11.06 4.87.53 6.08a2.39 2.39 0 0 1 .15.83v2.52a4.56 4.56 0 0 0 .14 1.11 4.21 4.21 0 0 0 -.88-.23 4.32 4.32 0 0 0 -1.57 0c-.06 0-.12 0-.13.12a.17.17 0 0 0 .15.19h.05a3.27 3.27 0 0 1 1.44-.05 4.28 4.28 0 0 1 .54.12 10.06 10.06 0 0 0 -1.16.16 8.44 8.44 0 0 0 -2 .71c-.07 0-.12.1-.1.16s.13.14.26.12h.06a6.27 6.27 0 0 1 1.84-.67 6.49 6.49 0 0 1 1.64-.16v.06a5.44 5.44 0 0 0 -.82.21 4.59 4.59 0 0 0 -1.4.7.15.15 0 0 0 -.06.16.16.16 0 0 0 .21.11s0 0 0 0a3.37 3.37 0 0 1 1.35-.67 3.6 3.6 0 0 1 .9-.15 4.37 4.37 0 0 0 2.21 2.19 14.37 14.37 0 0 0 2.84.88 4.58 4.58 0 0 0 1.88 0 11.89 11.89 0 0 0 3.79-1.37 3.49 3.49 0 0 0 1.43-1.7 4.54 4.54 0 0 1 .77.15 3.37 3.37 0 0 1 1.28.67s0 0 0 0a.16.16 0 0 0 .21-.11.15.15 0 0 0 -.06-.16 4.71 4.71 0 0 0 -1.35-.7 5.14 5.14 0 0 0 -.76-.16v-.07a6.66 6.66 0 0 1 1.54.16 6.27 6.27 0 0 1 1.84.67h.06c.13 0 .24 0 .26-.12s0-.12-.1-.16a8.44 8.44 0 0 0 -2-.71 10.06 10.06 0 0 0 -1.16-.16 3.92 3.92 0 0 1 .54-.12 3.27 3.27 0 0 1 1.44.05.16.16 0 0 0 .14-.19c0-.07-.06-.1-.12-.12a4.5 4.5 0 0 0 -2.39.18 4.73 4.73 0 0 0 0-.52v-3.52a21 21 0 0 0 .83-2.5" fill="none" stroke="#fff" stroke-linecap="round" stroke-linejoin="round" stroke-width=".25"/><g fill="#fff"><path d="m24.88 19.36a8.44 8.44 0 0 0 -2-.71 10.06 10.06 0 0 0 -1.16-.16 3.92 3.92 0 0 1 .54-.12 3.27 3.27 0 0 1 1.44.05.16.16 0 0 0 .14-.19c0-.07-.06-.1-.12-.12a4.5 4.5 0 0 0 -2.39.18 4.73 4.73 0 0 0 0-.52v-3.56s2.14-5.14.66-6.48c0 0-.23-.35-1.82.79a10.93 10.93 0 0 1 -2.17 1.38 5.44 5.44 0 0 0 -3-.9 5.36 5.36 0 0 0 -3 .86 10.45 10.45 0 0 1 -2.3-1.37c-1.59-1.14-1.84-.77-1.84-.77-1.23 1.11.06 4.87.53 6.08a2.39 2.39 0 0 1 .15.83v2.52a4.56 4.56 0 0 0 .14 1.11 4.21 4.21 0 0 0 -.88-.23 4.32 4.32 0 0 0 -1.57 0c-.06 0-.12 0-.13.12a.17.17 0 0 0 .15.19h.05a3.27 3.27 0 0 1 1.44-.05 4.28 4.28 0 0 1 .54.12 10.06 10.06 0 0 0 -1.16.16 8.44 8.44 0 0 0 -2 .71c-.07 0-.12.1-.1.16s.13.14.26.12h.06a6.27 6.27 0 0 1 1.84-.67 6.49 6.49 0 0 1 1.64-.16v.06a5.44 5.44 0 0 0 -.82.21 4.59 4.59 0 0 0 -1.4.7.15.15 0 0 0 -.06.16.16.16 0 0 0 .21.11s0 0 0 0a3.37 3.37 0 0 1 1.35-.67 3.6 3.6 0 0 1 .9-.15 4.37 4.37 0 0 0 2.21 2.19 14.37 14.37 0 0 0 2.84.88 4.58 4.58 0 0 0 1.88 0 11.89 11.89 0 0 0 3.79-1.37 3.49 3.49 0 0 0 1.43-1.7 4.54 4.54 0 0 1 .77.15 3.37 3.37 0 0 1 1.28.67s0 0 0 0a.16.16 0 0 0 .21-.11.15.15 0 0 0 -.06-.16 4.71 4.71 0 0 0 -1.35-.7 5.14 5.14 0 0 0 -.76-.16v-.07a6.66 6.66 0 0 1 1.54.16 6.27 6.27 0 0 1 1.84.67h.06c.13 0 .24 0 .26-.12s.06-.08-.06-.12z" opacity=".1"/><path d="m22.41 11.45a.13.13 0 0 0 0-.25.13.13 0 0 0 0 .25z"/></g></svg>