<svg enable-background="new 0 0 30 30" viewBox="0 0 30 30" xmlns="http://www.w3.org/2000/svg"><circle cx="15" cy="15.02" fill="#66afff" r="14.98"/><path d="m22.45 10.8a7.56 7.56 0 0 0 -1.27-1.66 2.39 2.39 0 0 1 -.85-1.34c-.14-1-.59-1.36-1.56-1.07a7.36 7.36 0 0 0 -1.3.62 1.69 1.69 0 0 1 -.94.23h-3a1.46 1.46 0 0 1 -.59-.14 4.76 4.76 0 0 0 -1.85-.83 1.09 1.09 0 0 0 -1.33.94 2.07 2.07 0 0 1 -.15.65 10.22 10.22 0 0 1 -.91 1.31c-.11.13-.35.31-.47.43a8.23 8.23 0 0 0 -1.82 5.59 3.63 3.63 0 0 1 -.48 1.88 8.56 8.56 0 0 0 -.88 2.89 3.11 3.11 0 0 0 2.62 3.77 8.21 8.21 0 0 0 2.8.08 1.63 1.63 0 0 1 1 .18 6.92 6.92 0 0 0 4.53.84h.08.05a7.67 7.67 0 0 0 1.93-.64 2.2 2.2 0 0 1 1.59-.33 2.23 2.23 0 0 0 .78.06h.1c.59-.09 1.18-.11 1.74-.23a3 3 0 0 0 2.59-3.3 8.24 8.24 0 0 0 -.32-1.85c-.24-.77-.62-1.48-.92-2.21a3.69 3.69 0 0 1 -.12-.92c0-.59-.08-1.14-.14-1.73a9.4 9.4 0 0 0 -.29-1.6" opacity=".2"/><path d="m7.98 9.77.66.28.95-.62-.68-.63z" fill="#f00"/><path d="m21.53 10.38.24-.68-.7-.9-.57.72z" fill="#f00"/><path d="m10.42 6.19-.42 1.04-.55 1.6.55 1.03 2.99-.52 1.48.62 2.18-.55.11-.34.25.25 1.94.16 1.55-.31-.22-1.58-.7-1.52-2.12.68-2.32.84-2.87-.88z" fill="#f00"/><path d="m20.82 19.15a4.82 4.82 0 0 1 -.37-1 3.16 3.16 0 0 1 -.06-1.15c0-.24.18-.38.21-.6s.32-.42.32-.42c0-.2-.06-.33 0-.53a8.24 8.24 0 0 0 -2.3-2.37c-.15 0-.29 0-.44 0a4.87 4.87 0 0 1 -3.08-.62 4.49 4.49 0 0 1 -2.93.62c-.25 0-1.21-.19-1.47-.17-.8.59-.77 1.55-1.21 2.46 0 .13.09.24.12.37a3.44 3.44 0 0 1 .11.86v.4a4.63 4.63 0 0 1 -.51 2 1 1 0 0 0 -.13.57c0 .11.05.25.09.37l.07.08.33.6a6.45 6.45 0 0 0 6.86 2.88 6.35 6.35 0 0 0 4.34-3.5 4.11 4.11 0 0 0 .15-.46.94.94 0 0 0 -.1-.39z" fill="#f9d9bb"/><path d="m20.56 23.24c.59-.09 1.18-.12 1.74-.23a3 3 0 0 0 2.59-3.3 8.33 8.33 0 0 0 -.32-1.86c-.24-.76-.62-1.47-.92-2.2a3.65 3.65 0 0 1 -.23-.89c0-.58 0-1.17 0-1.76a7.56 7.56 0 0 0 -2.21-4.86 2.18 2.18 0 0 1 -.71-1.32 1.17 1.17 0 0 0 -1.7-1.09 7.36 7.36 0 0 0 -1.3.62 1.77 1.77 0 0 1 -.94.23h-3a1.32 1.32 0 0 1 -.59-.15 4.89 4.89 0 0 0 -1.85-.82 1.09 1.09 0 0 0 -1.33.94 2.07 2.07 0 0 1 -.15.65 10.22 10.22 0 0 1 -.94 1.31c-.11.13-.35.31-.47.43a8.23 8.23 0 0 0 -1.82 5.59 3.68 3.68 0 0 1 -.48 1.88 8.49 8.49 0 0 0 -.88 2.89 3.1 3.1 0 0 0 2.62 3.76 8 8 0 0 0 2.8.09 1.56 1.56 0 0 1 1 .18 6.83 6.83 0 0 0 6.59.18 2.16 2.16 0 0 1 1.59-.33 2.23 2.23 0 0 0 .78.06zm-1.65-16.81c.56-.17.83 0 .83.59a1.73 1.73 0 0 0 .29.8 2.59 2.59 0 0 1 .36 1c0 .38-.18.47-.56.44-.68-.09-1.39-.12-2.09-.18a.44.44 0 0 1 -.33-.08c-.29-.36-.59-.74-.88-1.12a7.31 7.31 0 0 1 2.38-1.45zm-3.91 1.83a1.91 1.91 0 0 1 1.65.91 5.25 5.25 0 0 1 -3.3 0 1.91 1.91 0 0 1 1.65-.91zm-5.27.62a1.88 1.88 0 0 1 .27-.88 1.94 1.94 0 0 0 .41-1.11c0-.45.23-.59.65-.47a7.77 7.77 0 0 1 1.32.58c.44.27.82.59 1.18.83-.33.38-.59.76-.89 1.12a.51.51 0 0 1 -.35.17c-.7 0-1.41 0-2.12.12-.38.08-.5-.13-.47-.36zm-.73.23c.08.15.11.27.17.39l-.73.38-.06-.06c.2-.21.38-.44.62-.71zm11.65 10.89a6.17 6.17 0 0 1 -4.33 3.45 6.28 6.28 0 0 1 -6.74-2.77c-.11-.21-.2-.38-.32-.59a.94.94 0 0 1 0-1 4.66 4.66 0 0 0 .5-2c0-.09 0-.18 0-.27s0-.08 0-.11a3.28 3.28 0 0 0 -.09-.85c-.09-.32-.17-.61-.29-.94a1.05 1.05 0 0 1 .5-1.29 4.41 4.41 0 0 1 2.3-.39 4.19 4.19 0 0 0 2.82-.38c.92.65 2 .37 3.09.34a6.74 6.74 0 0 1 1.74.21 1.11 1.11 0 0 1 .67 1.41 5.5 5.5 0 0 0 -.32 1.12s0 .13 0 .3a5.09 5.09 0 0 0 -.05.69 3.83 3.83 0 0 0 .22 1.31 5.36 5.36 0 0 0 .36 1 .76.76 0 0 1 -.06.76zm1-9.92c-.26-.14-.5-.29-.79-.47a1.78 1.78 0 0 0 .2-.44c.24.33.44.59.65.89-.03-.06-.03-.01-.06-.01z"/><g fill="none"><path d="m10.17 9.29c.68-.09 1.39-.12 2.09-.18a.44.44 0 0 0 .33-.11c.29-.36.59-.74.88-1.12a7.31 7.31 0 0 0 -2.38-1.45c-.56-.17-.83 0-.83.59a1.73 1.73 0 0 1 -.29.8 2.59 2.59 0 0 0 -.36 1c-.03.41.18.5.56.47z"/><path d="m17.68 9.14c.7 0 1.41 0 2.12.12.38.06.5-.15.47-.38a1.88 1.88 0 0 0 -.27-.88 1.94 1.94 0 0 1 -.41-1.11c0-.45-.23-.59-.65-.47a7.77 7.77 0 0 0 -1.32.58c-.44.27-.82.59-1.18.83.33.38.59.76.89 1.12a.51.51 0 0 0 .35.19z"/><path d="m8.29 10s0 0 .06 0c.26-.14.5-.29.79-.47a1.78 1.78 0 0 1 -.2-.44c-.24.38-.44.64-.65.91z"/><path d="m16.65 9.17a2 2 0 0 0 -3.3 0 5.25 5.25 0 0 0 3.3 0z"/><path d="m20.27 17.05c0-.09 0-.18 0-.27s0-.08 0-.11a3.28 3.28 0 0 1 .09-.85 9.15 9.15 0 0 1 .29-.94 1.05 1.05 0 0 0 -.5-1.29 4.41 4.41 0 0 0 -2.3-.39 4.37 4.37 0 0 1 -2.85-.61 4.77 4.77 0 0 1 -3 .61 6.74 6.74 0 0 0 -1.74.21 1.11 1.11 0 0 0 -.67 1.41 5.5 5.5 0 0 1 .32 1.12s0 .13 0 .3a5.09 5.09 0 0 1 0 .69 3.83 3.83 0 0 1 -.22 1.31 5.36 5.36 0 0 1 -.36 1 .76.76 0 0 0 0 .76 6.17 6.17 0 0 0 4.33 3.45 6.28 6.28 0 0 0 6.74-2.77c.11-.21.2-.38.32-.59a.94.94 0 0 0 0-1 4.66 4.66 0 0 1 -.45-2.04z"/><path d="m20.83 9.5.73.38.06-.06c-.2-.21-.38-.44-.62-.71-.08.15-.11.27-.17.39z"/></g><path d="m25 19.3a8.49 8.49 0 0 0 -.88-2.89 3.68 3.68 0 0 1 -.48-1.88 8.23 8.23 0 0 0 -1.82-5.59l-.35-.36a6.7 6.7 0 0 1 -1-1.35 2.07 2.07 0 0 1 -.15-.65 1.09 1.09 0 0 0 -1.33-.94 4.89 4.89 0 0 0 -1.85.82 1.32 1.32 0 0 1 -.59.15h-3a1.77 1.77 0 0 1 -.94-.23 7.36 7.36 0 0 0 -1.3-.62 1.17 1.17 0 0 0 -1.7 1.09 2.18 2.18 0 0 1 -.71 1.32 7.56 7.56 0 0 0 -2.29 4.83c-.06.59 0 1.18 0 1.76a3.65 3.65 0 0 1 -.23.89c-.3.73-.68 1.44-.92 2.2a8.33 8.33 0 0 0 -.32 1.86 3 3 0 0 0 2.56 3.29c.56.11 1.15.14 1.74.23h.1a2.23 2.23 0 0 0 .78-.06 2.16 2.16 0 0 1 1.59.33 6.83 6.83 0 0 0 6.59-.18 1.56 1.56 0 0 1 1-.18 8 8 0 0 0 2.8-.09 3.1 3.1 0 0 0 2.7-3.75zm-7.38-12.3a7.77 7.77 0 0 1 1.38-.59c.42-.12.65 0 .65.47a1.94 1.94 0 0 0 .35 1.12 1.88 1.88 0 0 1 .24.89c0 .23-.09.44-.47.38-.71-.09-1.42-.09-2.12-.12a.51.51 0 0 1 -.32-.15c-.3-.36-.56-.74-.89-1.12.36-.27.74-.59 1.18-.88zm-2.62 1.26a1.91 1.91 0 0 1 1.65.91 5.25 5.25 0 0 1 -3.3 0 1.91 1.91 0 0 1 1.65-.91zm-5-.44a1.73 1.73 0 0 0 .29-.8c0-.59.27-.76.83-.59a7.31 7.31 0 0 1 2.38 1.45c-.29.38-.59.76-.88 1.12a.44.44 0 0 1 -.33.11c-.7.06-1.41.09-2.09.18-.38 0-.59-.06-.56-.44a2.59 2.59 0 0 1 .36-1.03zm-1.65 2.23s0 0-.06 0c.21-.3.41-.56.65-.89a1.78 1.78 0 0 0 .2.44c-.29.16-.53.31-.79.45zm12.39 10c-.12.21-.21.38-.32.59a6.28 6.28 0 0 1 -6.74 2.77 6.17 6.17 0 0 1 -4.33-3.41.76.76 0 0 1 0-.76 5.36 5.36 0 0 0 .36-1 3.83 3.83 0 0 0 .22-1.31 5.09 5.09 0 0 0 0-.69c0-.17 0-.3 0-.3a5.5 5.5 0 0 0 -.32-1.12 1.11 1.11 0 0 1 .67-1.41 6.74 6.74 0 0 1 1.74-.21c1.06 0 2.12.31 3-.34a4.38 4.38 0 0 0 2.88.34 4.41 4.41 0 0 1 2.3.39 1.05 1.05 0 0 1 .5 1.29 9.15 9.15 0 0 0 -.29.94 3.28 3.28 0 0 0 -.09.85s0 .07 0 .11 0 .18 0 .27a4.66 4.66 0 0 0 .5 2 .94.94 0 0 1 -.08 1.01zm.82-10.18-.73-.38c.06-.12.09-.24.17-.39.24.27.42.5.62.71z"/><path d="m9.5 15.5s.46-2 1.92-2.4l-3.11.18z"/><path d="m18.63 13.2a3.85 3.85 0 0 1 1.94 2.3l.67-3z"/><ellipse cx="17.78" cy="18.36" rx=".99" ry="1.5"/><ellipse cx="12.17" cy="18.36" rx=".99" ry="1.5"/><circle cx="12.72" cy="18.81" fill="#fff" r=".4"/><circle cx="18.36" cy="18.81" fill="#fff" r=".4"/><path d="m24.57 17.76c-.24-.76-.62-1.47-.92-2.2a3.65 3.65 0 0 1 -.23-.89c0-.58 0-1.17 0-1.76a7.56 7.56 0 0 0 -2.21-4.86 2.18 2.18 0 0 1 -.71-1.32 1.17 1.17 0 0 0 -1.7-1.09 7.36 7.36 0 0 0 -1.3.62 1.77 1.77 0 0 1 -.94.23h-3a1.32 1.32 0 0 1 -.59-.15 4.89 4.89 0 0 0 -1.85-.82 1.09 1.09 0 0 0 -1.33.94 2.07 2.07 0 0 1 -.15.65 10.22 10.22 0 0 1 -.94 1.31c-.11.13-.35.31-.47.43a8.21 8.21 0 0 0 -1.82 5.59 3.68 3.68 0 0 1 -.48 1.88 8.49 8.49 0 0 0 -.88 2.89 3.1 3.1 0 0 0 2.62 3.79 8 8 0 0 0 2.8.09 1.56 1.56 0 0 1 1 .18 6.92 6.92 0 0 0 4.53.84h.08.05a7.67 7.67 0 0 0 1.93-.64 2.16 2.16 0 0 1 1.59-.33 2.23 2.23 0 0 0 .78.06h.1c.59-.09 1.18-.12 1.74-.24a3 3 0 0 0 2.59-3.29 8.33 8.33 0 0 0 -.29-1.91z" fill="#fff" opacity=".1"/><path d="m22.45 9.8a7.56 7.56 0 0 0 -1.27-1.66 2.39 2.39 0 0 1 -.85-1.34c-.14-1-.59-1.36-1.56-1.07a7.36 7.36 0 0 0 -1.3.62 1.69 1.69 0 0 1 -.94.23h-3a1.46 1.46 0 0 1 -.59-.14 4.76 4.76 0 0 0 -1.85-.83 1.09 1.09 0 0 0 -1.33.94 2.07 2.07 0 0 1 -.15.65 10.22 10.22 0 0 1 -.91 1.31c-.11.13-.35.31-.47.43a8.23 8.23 0 0 0 -1.82 5.59 3.63 3.63 0 0 1 -.48 1.88 8.56 8.56 0 0 0 -.88 2.89 3.11 3.11 0 0 0 2.62 3.77 8.21 8.21 0 0 0 2.8.08 1.63 1.63 0 0 1 1 .18 6.92 6.92 0 0 0 4.53.84h.08.05a7.67 7.67 0 0 0 1.93-.64 2.2 2.2 0 0 1 1.59-.33 2.23 2.23 0 0 0 .78.06h.1c.59-.09 1.18-.11 1.74-.23a3 3 0 0 0 2.59-3.3 8.24 8.24 0 0 0 -.32-1.85c-.24-.77-.62-1.47-.92-2.21a3.69 3.69 0 0 1 -.12-.92c0-.59-.08-1.14-.14-1.73a9.4 9.4 0 0 0 -.29-1.6" fill="none" stroke="#fff" stroke-linecap="round" stroke-linejoin="round" stroke-width=".25"/><path d="m22.74 10.68a.13.13 0 0 0 0-.25.13.13 0 0 0 0 .25z" fill="#fff"/></svg>