<svg xmlns="http://www.w3.org/2000/svg" viewBox="0 0 30 30"><defs><style>.b0177faf-7297-4cd7-a95a-4dacaf2de44a{fill:#73e5ff;}.\36 4822168-9194-4086-b7c1-54b93a9711a1,.a5301064-7a75-4eb8-9d88-f7eb94e3f494{opacity:0.2;}.\37 969f337-2fd2-4f97-bb42-f0f6d5daf27c{fill:#6ce577;}.f625f028-1f0f-4cb8-89ac-34fa10ec6d5b{fill:#009245;}.\36 4822168-9194-4086-b7c1-54b93a9711a1,.\38 053e4f6-a325-48a3-afc7-e3ae322faef6{fill:#fff;}.d87f2b10-b27e-4a4a-a504-36406c4ccc46{fill:#662d91;stroke-miterlimit:10;}.c8a9007a-72fd-4d42-9308-8334587d6c99,.d87f2b10-b27e-4a4a-a504-36406c4ccc46{stroke:#333;stroke-width:0.25px;}.c8a9007a-72fd-4d42-9308-8334587d6c99{fill:none;stroke-linecap:round;stroke-linejoin:round;}.f37740fe-9711-4d48-91b7-57e93c625041{fill:#333;}</style></defs><title>unnamed</title><g id="2cee27f6-b990-4ef0-bd84-a105743a9012" data-name="Background"><circle class="b0177faf-7297-4cd7-a95a-4dacaf2de44a" cx="15" cy="15.02" r="14.98"/></g><g id="ab9fbf74-e7e5-4729-8bbd-6826cfd80f6c" data-name="TS - Char"><path class="a5301064-7a75-4eb8-9d88-f7eb94e3f494" d="M24.57,15.07A8,8,0,0,0,24,13.76c.16-.38.31-.78.45-1.22.63-2,.75-3.73.25-3.89s-1.39,1.31-2,3.28a10.47,10.47,0,0,0-7.39-3.19V7.8a.93.93,0,1,0-.56,0v.94a10.47,10.47,0,0,0-7.39,3.19c-.63-2-1.53-3.43-2-3.28s-.38,1.9.25,3.89c.14.44.29.84.45,1.22a8,8,0,0,0-1,3.88,8.38,8.38,0,0,0,3.21,6.55.93.93,0,0,0-.62.87,1,1,0,0,0,.94.94H21.47a.93.93,0,0,0,.31-1.81A8.41,8.41,0,0,0,25,17.64a7.17,7.17,0,0,0-.07-1"/><ellipse class="7969f337-2fd2-4f97-bb42-f0f6d5daf27c" cx="6.45" cy="11.26" rx="0.94" ry="3.78" transform="translate(-3.1 2.48) rotate(-17.61)"/><ellipse class="f625f028-1f0f-4cb8-89ac-34fa10ec6d5b" cx="6.45" cy="11.26" rx="0.64" ry="2.57" transform="translate(-3.1 2.48) rotate(-17.61)"/><ellipse class="7969f337-2fd2-4f97-bb42-f0f6d5daf27c" cx="23.55" cy="11.26" rx="3.78" ry="0.94" transform="translate(5.7 30.3) rotate(-72.39)"/><ellipse class="f625f028-1f0f-4cb8-89ac-34fa10ec6d5b" cx="23.55" cy="11.26" rx="2.57" ry="0.64" transform="translate(5.7 30.3) rotate(-72.39)"/><path class="7969f337-2fd2-4f97-bb42-f0f6d5daf27c" d="M19.1,24.76A8.79,8.79,0,0,0,25,16.64c0-4.92-4.48-8.91-10-8.91s-10,4-10,8.91a8.77,8.77,0,0,0,5.9,8.12"/><circle class="8053e4f6-a325-48a3-afc7-e3ae322faef6" cx="9.67" cy="16.64" r="2.87"/><circle cx="9.67" cy="16.64" r="1.51"/><circle class="8053e4f6-a325-48a3-afc7-e3ae322faef6" cx="15" cy="13.53" r="2.87"/><circle cx="15" cy="13.53" r="1.51"/><circle class="8053e4f6-a325-48a3-afc7-e3ae322faef6" cx="20.33" cy="16.64" r="2.87"/><circle cx="20.33" cy="16.64" r="1.51"/><rect class="d87f2b10-b27e-4a4a-a504-36406c4ccc46" x="7.59" y="23.12" width="14.81" height="1.88" rx="0.94" ry="0.94"/><rect class="7969f337-2fd2-4f97-bb42-f0f6d5daf27c" x="14.72" y="6.31" width="0.56" height="3.5" rx="0.28" ry="0.28"/><circle class="7969f337-2fd2-4f97-bb42-f0f6d5daf27c" cx="15" cy="5.93" r="0.93"/><path class="64822168-9194-4086-b7c1-54b93a9711a1" d="M14.07,5.93a.92.92,0,0,0,.65.87v.94a10.47,10.47,0,0,0-7.39,3.19C6.7,9,5.8,7.5,5.31,7.65s-.38,1.9.25,3.89c.14.44.29.84.45,1.22a8,8,0,0,0-1,3.88,8.38,8.38,0,0,0,3.21,6.55.93.93,0,0,0-.62.87,1,1,0,0,0,.94.94H15V5A.93.93,0,0,0,14.07,5.93Z"/><path class="c8a9007a-72fd-4d42-9308-8334587d6c99" d="M24.57,14.07A8,8,0,0,0,24,12.76c.16-.38.31-.78.45-1.22.63-2,.75-3.73.25-3.89s-1.39,1.31-2,3.28a10.47,10.47,0,0,0-7.39-3.19V6.8a.92.92,0,0,0,.65-.87.93.93,0,0,0-1.86,0,.92.92,0,0,0,.65.87v.94a10.47,10.47,0,0,0-7.39,3.19C6.7,9,5.8,7.5,5.31,7.65s-.38,1.9.25,3.89c.14.44.29.84.45,1.22a8,8,0,0,0-1,3.88,8.38,8.38,0,0,0,3.21,6.55.93.93,0,0,0-.62.87,1,1,0,0,0,.94.94H21.47a.93.93,0,0,0,.31-1.81A8.41,8.41,0,0,0,25,16.64a7.17,7.17,0,0,0-.07-1"/><path class="f37740fe-9711-4d48-91b7-57e93c625041" d="M24.76,14.9a.13.13,0,1,0,0-.25.13.13,0,0,0,0,.25Z"/></g></svg>