<svg xmlns="http://www.w3.org/2000/svg" xmlns:xlink="http://www.w3.org/1999/xlink" viewBox="0 0 30 30"><defs><style>.\34 714305f-fb41-4735-96ed-555a19026f86,.af090921-4179-4b47-af0b-c85d8a3e01d8,.e3083333-b628-41fa-bb0e-e2d229859a90{fill:none;}.\32 425d360-85d4-4de9-86c3-b4881783eae7{fill:#f7d5ba;}.\32 dae88a9-45c1-4aea-a84c-5192e5027c58{opacity:0.2;}.\30 7697d83-3e5e-467c-b5cf-0b39452b11ec{fill:#a67c52;}.\31 1530fb6-ca18-41ef-a15b-8b3faf2ffb33{fill:#754c24;}.\39 a36550d-0dc2-4a51-97e8-8e0befda26cc{fill:#f33;}.b3ebc9cc-4828-48b5-9f4b-48eb308c5656{fill:#f9aae4;}.\35 f0eb2b7-aedb-41ae-ad31-f1e5e270d75a,.\38 6387562-573b-40a8-8ccf-0c7c4ef92a53,.af090921-4179-4b47-af0b-c85d8a3e01d8,.b3ebc9cc-4828-48b5-9f4b-48eb308c5656,.e3083333-b628-41fa-bb0e-e2d229859a90{stroke:#333;stroke-width:0.25px;}.\35 f0eb2b7-aedb-41ae-ad31-f1e5e270d75a,.\38 6387562-573b-40a8-8ccf-0c7c4ef92a53,.af090921-4179-4b47-af0b-c85d8a3e01d8,.b3ebc9cc-4828-48b5-9f4b-48eb308c5656{stroke-miterlimit:10;}.\35 f0eb2b7-aedb-41ae-ad31-f1e5e270d75a{fill:#ccc;}.\38 6387562-573b-40a8-8ccf-0c7c4ef92a53{fill:#e03636;}.\38 a54c550-f38e-49b8-8365-587864594757{fill:#682121;}.b0e2aa8c-746f-48ce-9549-2ef151dc99b0{clip-path:url(#acfde887-7291-4f13-bdd2-8b82dccaa2bb);}.ec660eb6-9ba0-4648-b634-89b7dcd94117{fill:#fff;}.e3083333-b628-41fa-bb0e-e2d229859a90{stroke-linecap:round;stroke-linejoin:round;}.\38 7886a97-9201-4517-b056-3e2b1b8dbf7f{fill:#333;}</style><clipPath id="acfde887-7291-4f13-bdd2-8b82dccaa2bb"><rect class="4714305f-fb41-4735-96ed-555a19026f86" x="7.45" y="5.02" width="7.41" height="19.98"/></clipPath></defs><title>unnamed</title><g id="b5f5a675-d256-46b6-bd99-bd36e295c763" data-name="Background"><circle class="2425d360-85d4-4de9-86c3-b4881783eae7" cx="15" cy="15.02" r="14.98"/></g><g id="701a87b9-1782-446f-a548-ba4c3b69394b" data-name="Chocolate"><path class="2dae88a9-45c1-4aea-a84c-5192e5027c58" d="M22,12.06a.84.84,0,0,0-1.1-.43l-.14.06V6.76A.76.76,0,0,0,20,6H9.78A.76.76,0,0,0,9,6.76v10l-.92.39a.86.86,0,0,0-.43,1.11.84.84,0,0,0,1.11.43l.24-.1v4.58a.76.76,0,0,0,.75.76H10a.47.47,0,0,0-.48.48v1.06A.48.48,0,0,0,10,26h9.77a.48.48,0,0,0,.48-.48V24.46a.47.47,0,0,0-.48-.48H20a.74.74,0,0,0,.69-.47.72.72,0,0,0,.06-.29v-9.7l.81-.35A.84.84,0,0,0,22,12.06Z"/><rect class="07697d83-3e5e-467c-b5cf-0b39452b11ec" x="9.03" y="5" width="11.74" height="17.98" rx="0.76" ry="0.76"/><rect class="11530fb6-ca18-41ef-a15b-8b3faf2ffb33" x="10.39" y="6.28" width="3.6" height="3.07" rx="0.62" ry="0.62"/><rect class="11530fb6-ca18-41ef-a15b-8b3faf2ffb33" x="15.68" y="6.28" width="3.6" height="3.07" rx="0.62" ry="0.62"/><path class="11530fb6-ca18-41ef-a15b-8b3faf2ffb33" d="M19.28,11.34a.62.62,0,0,0-.62-.6H16.3a.62.62,0,0,0-.62.62V12.9Z"/><path class="9a36550d-0dc2-4a51-97e8-8e0befda26cc" d="M9,17.64v4.58a.76.76,0,0,0,.75.76H20a.76.76,0,0,0,.75-.76v-9.7Z"/><path class="b3ebc9cc-4828-48b5-9f4b-48eb308c5656" d="M12.34,16.2v.33a.75.75,0,0,0,.74.75H16.6a.76.76,0,0,0,.75-.75V14Z"/><rect class="11530fb6-ca18-41ef-a15b-8b3faf2ffb33" x="10.39" y="10.74" width="3.6" height="3.07" rx="0.62" ry="0.62"/><rect class="5f0eb2b7-aedb-41ae-ad31-f1e5e270d75a" x="14" y="6.37" width="1.68" height="15.63" rx="0.84" ry="0.84" transform="translate(21.91 -5.09) rotate(66.44)"/><rect class="86387562-573b-40a8-8ccf-0c7c4ef92a53" x="9.5" y="22.98" width="10.74" height="2.02" rx="0.48" ry="0.48"/><rect class="8a54c550-f38e-49b8-8365-587864594757" x="10.6" y="22.98" width="0.35" height="1.73" rx="0.17" ry="0.17"/><rect class="8a54c550-f38e-49b8-8365-587864594757" x="11.96" y="22.98" width="0.35" height="1.73" rx="0.17" ry="0.17"/><rect class="8a54c550-f38e-49b8-8365-587864594757" x="13.33" y="22.98" width="0.35" height="1.73" rx="0.17" ry="0.17"/><rect class="8a54c550-f38e-49b8-8365-587864594757" x="14.69" y="22.98" width="0.35" height="1.73" rx="0.17" ry="0.17"/><rect class="8a54c550-f38e-49b8-8365-587864594757" x="16.05" y="22.98" width="0.35" height="1.73" rx="0.17" ry="0.17"/><rect class="8a54c550-f38e-49b8-8365-587864594757" x="17.42" y="22.98" width="0.35" height="1.73" rx="0.17" ry="0.17"/><rect class="8a54c550-f38e-49b8-8365-587864594757" x="18.78" y="22.98" width="0.35" height="1.73" rx="0.17" ry="0.17"/><g class="2dae88a9-45c1-4aea-a84c-5192e5027c58"><g class="b0e2aa8c-746f-48ce-9549-2ef151dc99b0"><path class="ec660eb6-9ba0-4648-b634-89b7dcd94117" d="M22,11.06a.86.86,0,0,0-1.11-.43l-.14.06V5.76A.75.75,0,0,0,20,5H9.81a.76.76,0,0,0-.76.76V15.81l-.91.39a.84.84,0,1,0,.67,1.54l.24-.1v4.58a.76.76,0,0,0,.76.76H10a.47.47,0,0,0-.48.48v1.06A.48.48,0,0,0,10,25h9.77a.48.48,0,0,0,.48-.48V23.46a.47.47,0,0,0-.48-.48H20a.76.76,0,0,0,.7-.47.93.93,0,0,0,.05-.29v-9.7l.81-.35A.85.85,0,0,0,22,11.06Z"/></g></g><path class="e3083333-b628-41fa-bb0e-e2d229859a90" d="M20.76,7.43V5.78A.76.76,0,0,0,20,5H9.78A.76.76,0,0,0,9,5.78V15.83l-.92.4a.84.84,0,0,0-.43,1.1.85.85,0,0,0,1.11.44L9,17.66v4.58a.76.76,0,0,0,.75.76H10a.47.47,0,0,0-.48.48v1.06A.48.48,0,0,0,10,25h9.77a.48.48,0,0,0,.48-.48V23.48a.47.47,0,0,0-.48-.48H20a.75.75,0,0,0,.69-.46.73.73,0,0,0,.06-.3v-9.7l.81-.35a.84.84,0,0,0-.67-1.54l-.14.06V8.48"/><rect class="af090921-4179-4b47-af0b-c85d8a3e01d8" x="9.5" y="22.98" width="10.74" height="2.02" rx="0.48" ry="0.48"/><path class="87886a97-9201-4517-b056-3e2b1b8dbf7f" d="M20.76,8.12a.13.13,0,0,0,0-.25.13.13,0,0,0,0,.25Z"/></g></svg>