<svg xmlns="http://www.w3.org/2000/svg" xmlns:xlink="http://www.w3.org/1999/xlink" viewBox="0 0 30 30"><defs><style>.\35 1f19a7e-3fb4-483c-aa92-fd83b981a093,.\36 bbd01e1-9b1e-4c83-b1be-19f49d879cfa{fill:none;}.\32 63a1a66-412d-4d17-b176-e35f4f3a0eec{fill:#9cfffc;}.\30 c4ec1cc-f97a-4ec8-b25b-0125c20e5666{opacity:0.2;}.\33 5a6855d-c74b-4bba-b2f9-ed98fa269c86{fill:#d98828;}.\38 b392c82-a3ab-4468-bb81-6c807fa750ce{fill:#29abe2;}.\31 1bdc1c4-e75e-44e9-a80c-d61170bce774{fill:#f9d6b4;}.\33 84cf762-94e0-4650-af88-34b56f81d355,.e784361a-bed7-4421-ba47-36bd41873edf{fill:#fff;}.e89ffe15-39f2-4f6f-b0b9-ad381185284b{clip-path:url(#b4d4dde3-af50-4902-9d98-528a6bf745b7);}.\33 84cf762-94e0-4650-af88-34b56f81d355{opacity:0.15;}.\36 bbd01e1-9b1e-4c83-b1be-19f49d879cfa{stroke:#333;stroke-linecap:round;stroke-linejoin:round;stroke-width:0.25px;}.\31 974d407-e61c-45dd-b0a9-2458fa24a8da{fill:#333;}</style><clipPath id="b4d4dde3-af50-4902-9d98-528a6bf745b7"><rect class="51f19a7e-3fb4-483c-aa92-fd83b981a093" x="6.54" y="3.62" width="8.46" height="21.38"/></clipPath></defs><title>unnamed</title><g id="4d46cece-3a9e-4289-9f02-634f2d08f805" data-name="Background"><circle class="263a1a66-412d-4d17-b176-e35f4f3a0eec" cx="15" cy="15.02" r="14.98"/></g><g id="a3fcff4e-56b6-4fcb-852e-8070b23451c3" data-name="Wonder Women"><rect class="51f19a7e-3fb4-483c-aa92-fd83b981a093" x="24.55" y="1.87" width="41.62" height="25.56"/></g><g id="9deb8d6d-4bec-4caf-9a0c-fa988bf7fa0f" data-name="Cinderella"><path class="0c4ec1cc-f97a-4ec8-b25b-0125c20e5666" d="M22,21.62h0a.54.54,0,0,0,.05-.11,4.08,4.08,0,0,0,.19-.42,7.6,7.6,0,0,0-.48-6.85,8.09,8.09,0,0,0-2.44-2.81,2.6,2.6,0,0,0-.56-.86,2.46,2.46,0,0,0,1.22-2.12A2.5,2.5,0,0,0,17.44,6a2.41,2.41,0,0,0-1.24.35A2.41,2.41,0,0,0,15,6a2.36,2.36,0,0,0-1.24.35A2.42,2.42,0,0,0,12.47,6a2.48,2.48,0,0,0-1.09,4.71,1.92,1.92,0,0,0-.26.32c-5.34,2.44-4.21,10.7-4.21,10.7L7,21.62a7.43,7.43,0,0,1,.73-.4c.06.13.12.26.19.38a.24.24,0,0,0-.19.23.25.25,0,0,0,.25.25A.28.28,0,0,0,8.17,22a7.78,7.78,0,0,0,13.21.59c-.14.21-.24.33-.24.33a3.29,3.29,0,0,0,.53-.79c-.08.14-.16.26-.23.37.09-.13.16-.26.24-.38h0l0,0a.35.35,0,0,0,0-.08.26.26,0,0,0,.12,0,.25.25,0,0,0,.25-.25A.24.24,0,0,0,22,21.62Z"/><path class="35a6855d-c74b-4bba-b2f9-ed98fa269c86" d="M17.48,5a2.51,2.51,0,0,0-1.24.35,2.37,2.37,0,0,0-2.48,0A2.46,2.46,0,0,0,10,7.47a2.48,2.48,0,0,0,3.73,2.14,2.43,2.43,0,0,0,2.48,0A2.48,2.48,0,1,0,17.48,5Z"/><ellipse class="8b392c82-a3ab-4468-bb81-6c807fa750ce" cx="15.13" cy="11.19" rx="4.34" ry="2.91"/><circle class="11bdc1c4-e75e-44e9-a80c-d61170bce774" cx="15" cy="17.23" r="7.79"/><ellipse cx="18.31" cy="20.23" rx="0.91" ry="1.73"/><circle class="e784361a-bed7-4421-ba47-36bd41873edf" cx="18.7" cy="20.85" r="0.42"/><ellipse cx="11.69" cy="20.23" rx="0.91" ry="1.73"/><circle class="e784361a-bed7-4421-ba47-36bd41873edf" cx="12.1" cy="20.85" r="0.42"/><path class="35a6855d-c74b-4bba-b2f9-ed98fa269c86" d="M21.76,13.26a7,7,0,0,0-3.9-3.52h0C5,6.78,7,20.72,7,20.72l.13-.08a6.4,6.4,0,0,1,2-.83,10.79,10.79,0,0,0,7.19-5.66,4.94,4.94,0,0,0,3.24,3.35c2.87,1.16,2.69,2.73,2.24,3.67A7.7,7.7,0,0,0,21.76,13.26Z"/><path class="35a6855d-c74b-4bba-b2f9-ed98fa269c86" d="M21.71,21.17a6.09,6.09,0,0,1-.53.8A3.49,3.49,0,0,0,21.71,21.17Z"/><circle class="8b392c82-a3ab-4468-bb81-6c807fa750ce" cx="21.9" cy="20.85" r="0.25"/><circle class="8b392c82-a3ab-4468-bb81-6c807fa750ce" cx="8.06" cy="20.85" r="0.25"/><g class="e89ffe15-39f2-4f6f-b0b9-ad381185284b"><path class="384cf762-94e0-4650-af88-34b56f81d355" d="M22,20.62h0l.05-.1c.07-.14.13-.28.19-.42a7.57,7.57,0,0,0-.48-6.85,8.13,8.13,0,0,0-2.44-2.82,2.56,2.56,0,0,0-.56-.85A2.48,2.48,0,0,0,17.44,5a2.51,2.51,0,0,0-1.24.34A2.51,2.51,0,0,0,15,5a2.45,2.45,0,0,0-1.24.34A2.51,2.51,0,0,0,12.47,5a2.48,2.48,0,0,0-1.09,4.7,1.92,1.92,0,0,0-.26.32C5.78,12.44,6.91,20.7,6.91,20.7L7,20.62a7.33,7.33,0,0,1,.73-.39c.06.13.12.25.19.38a.23.23,0,0,0-.19.22.25.25,0,0,0,.25.25A.28.28,0,0,0,8.17,21a7.78,7.78,0,0,0,13.21.6l-.24.33a3.49,3.49,0,0,0,.53-.8c-.08.14-.16.26-.23.37.09-.12.16-.25.24-.38h0l0,0a.22.22,0,0,0,0-.08.26.26,0,0,0,.12,0,.25.25,0,0,0,.25-.25A.24.24,0,0,0,22,20.62Z"/></g><path class="6bbd01e1-9b1e-4c83-b1be-19f49d879cfa" d="M21.48,12.8a7.82,7.82,0,0,0-2.17-2.35,2.45,2.45,0,0,0-.56-.86A2.45,2.45,0,0,0,20,7.47a2.46,2.46,0,0,0-3.73-2.14A2.51,2.51,0,0,0,15,5a2.46,2.46,0,0,0-1.24.35A2.46,2.46,0,0,0,10,7.47a2.48,2.48,0,0,0,1.39,2.22,4,4,0,0,0-.26.32C5.82,12.45,7,20.72,7,20.72l.13-.08a6.58,6.58,0,0,1,.74-.4c0,.13.12.26.18.38a.24.24,0,0,0,.06.48A.25.25,0,0,0,8.21,21a7.78,7.78,0,0,0,13.21.59c-.14.21-.24.34-.24.34a3.49,3.49,0,0,0,.53-.8l-.22.37.23-.38h0l0,0a.35.35,0,0,0,.05-.08.26.26,0,0,0,.12.05.25.25,0,0,0,.25-.25.24.24,0,0,0-.15-.21h0s0-.07,0-.11a4.08,4.08,0,0,0,.19-.42,7.54,7.54,0,0,0-.24-6.4"/><path class="1974d407-e61c-45dd-b0a9-2458fa24a8da" d="M21.75,13.35a.13.13,0,0,0,0-.25.13.13,0,0,0,0,.25Z"/><path class="6bbd01e1-9b1e-4c83-b1be-19f49d879cfa" d="M21.76,13.26a7,7,0,0,0-3.9-3.52h0C5,6.78,7,20.72,7,20.72l.13-.08a6.4,6.4,0,0,1,2-.83,10.79,10.79,0,0,0,7.19-5.66,4.94,4.94,0,0,0,3.24,3.35c2.87,1.16,2.69,2.73,2.24,3.67A7.7,7.7,0,0,0,21.76,13.26Z"/></g></svg>