<svg xmlns="http://www.w3.org/2000/svg" xmlns:xlink="http://www.w3.org/1999/xlink" viewBox="0 0 30 30"><defs><style>.\35 8a26896-5cf2-42a6-b3d1-4938dc6940c3,.\39 4f2c6fe-fb34-47c5-a34a-7a67f60e3fbb{fill:none;}.a4363a22-b4b4-49da-bebb-e574bffdbe2a{fill:#ffb776;}.\30 510a583-dfa1-4a53-b319-54b778895f32{opacity:0.2;}.\31 8f6e68f-f13a-4af4-a7d4-df188ec6b9de{fill:#fff;}.da974ff4-9cde-414e-a816-9b61de5f9045{fill:#ffe7cc;stroke:#000;stroke-miterlimit:10;stroke-width:0.25px;}.\32 9bfd1f7-7c37-4e5d-95c9-753c399011a4,.\37 64d6059-47f9-4ec0-b920-fbe90d44aacd{fill:#6ce577;}.\32 9bfd1f7-7c37-4e5d-95c9-753c399011a4,.\37 64d6059-47f9-4ec0-b920-fbe90d44aacd,.\39 4f2c6fe-fb34-47c5-a34a-7a67f60e3fbb,.aac8336c-bbf8-4512-b433-0a2c6caacf76{stroke:#fff;stroke-linejoin:round;stroke-width:0.25px;}.\37 64d6059-47f9-4ec0-b920-fbe90d44aacd,.\39 4f2c6fe-fb34-47c5-a34a-7a67f60e3fbb,.aac8336c-bbf8-4512-b433-0a2c6caacf76{stroke-linecap:round;}.\37 1bd57f6-3a79-4cf9-82a5-9415d6516f1c{opacity:0.3;}.\37 c15c3bf-c43f-4361-9b9a-11f5237223af{clip-path:url(#c22686d0-e9f8-473f-9184-4877055d0faf);}</style><clipPath id="c22686d0-e9f8-473f-9184-4877055d0faf"><polygon class="58a26896-5cf2-42a6-b3d1-4938dc6940c3" points="5.92 25 15 25.02 15 5.02 5.92 5 5.92 25"/></clipPath></defs><title>unnamed</title><g id="c8bc5e41-7ebb-448f-a537-83c88199ab1d" data-name="Background"><circle class="a4363a22-b4b4-49da-bebb-e574bffdbe2a" cx="15" cy="15.02" r="14.98"/></g><g id="2fe4b88f-1c41-4770-a5eb-6f9d8aa6a3df" data-name="Goofy"><path class="0510a583-dfa1-4a53-b319-54b778895f32" d="M21.84,16.67a7.12,7.12,0,0,0-.53-.73,8.11,8.11,0,0,1-.89-1.37,5.45,5.45,0,0,0-1.08-2.08.76.76,0,0,0,.92-.33A.78.78,0,0,0,20,11.1l-.54-.31a.42.42,0,0,0,.36-.2.41.41,0,0,0,0-.39.79.79,0,0,0,.37.1.93.93,0,1,0,0-1.85l-.08,0a1.66,1.66,0,0,0,.25-.85A1.63,1.63,0,1,0,18,9.08h0l.63.37-.54-.31a.41.41,0,0,0-.56.15.4.4,0,0,0,0,.41l-.36-.22a.78.78,0,0,0-1.06.29.75.75,0,0,0,0,.79A5.8,5.8,0,0,0,15,10.45l-.26,0a1.85,1.85,0,0,0,0-1,.15.15,0,0,0-.15-.07.14.14,0,0,0-.13.15v0a2.06,2.06,0,0,1,0,1h-.11a2,2,0,0,0-.78-1.34.16.16,0,0,0-.16,0,.14.14,0,0,0,0,.2h0a1.89,1.89,0,0,1,.64,1.13,1.76,1.76,0,0,0-.76-.55.17.17,0,0,0-.15.07.14.14,0,0,0,.05.19h0a2.44,2.44,0,0,1,.51.36,5.58,5.58,0,0,0-3.38,2.34h0a5.6,5.6,0,0,0-.65,1.35,9.58,9.58,0,0,1-1,1.64c-.82,1-3.32,5.29-2.67,7.82s2.13,1.79,2.1.27c0-1.25-.21-2.91.44-3.91,0,.13,0,.26,0,.39,0,3,2.92,5.49,6.52,5.49s6.51-2.46,6.51-5.49a2.13,2.13,0,0,0,0-.25c.55,1,.39,2.57.36,3.77,0,1.52,1.45,2.26,2.1-.27.44-1.74-.59-4.33-1.56-6.09"/><path d="M21.31,14.94a8.11,8.11,0,0,1-.89-1.37,5.59,5.59,0,0,0-10-1.63h0a5.6,5.6,0,0,0-.65,1.35,9.58,9.58,0,0,1-1,1.64c-.82,1-3.32,5.29-2.67,7.82s2.13,1.79,2.1.27c0-1.25-.21-2.91.44-3.91,0,.13,0,.26,0,.39,0,3,2.92,5.49,6.52,5.49s6.51-2.46,6.51-5.49a2.13,2.13,0,0,0,0-.25c.55,1,.39,2.57.36,3.77,0,1.52,1.45,2.26,2.1-.27S22.13,15.9,21.31,14.94Z"/><path class="18f6e68f-f13a-4af4-a7d4-df188ec6b9de" d="M17.35,12.18c-1-.07-1.86.89-2.3,2.3-.41-1.4-1.28-2.36-2.24-2.3-1.25.07-2.16,1.83-2,3.93s1.23,3.75,2.48,3.68a1.6,1.6,0,0,0,1-.5h1.52a1.63,1.63,0,0,0,1,.5c1.25.09,2.39-1.53,2.55-3.63S18.6,12.28,17.35,12.18Z"/><path class="da974ff4-9cde-414e-a816-9b61de5f9045" d="M15,24.13c3.12,0,5.65-2.2,5.65-4.92L19,19a28.81,28.81,0,0,0-7.87,0l-1.72.24C9.37,21.93,11.9,24.13,15,24.13Z"/><rect class="764d6059-47f9-4ec0-b920-fbe90d44aacd" x="15.81" y="9.2" width="4.77" height="1.55" rx="0.77" ry="0.77" transform="translate(7.42 -7.76) rotate(30)"/><path class="29bfd1f7-7c37-4e5d-95c9-753c399011a4" d="M20.16,7.45l-.08,0a1.66,1.66,0,0,0,.25-.85A1.63,1.63,0,1,0,18,8.08h0l1.43.84a.89.89,0,0,0,.71.37.93.93,0,1,0,0-1.85Z"/><ellipse cx="16.97" cy="16.4" rx="1.46" ry="0.96" transform="translate(-1.1 31.58) rotate(-84.06)"/><ellipse cx="12.95" cy="16.4" rx="0.96" ry="1.46"/><ellipse cx="15" cy="19.94" rx="1.37" ry="0.62"/><circle class="71bd57f6-3a79-4cf9-82a5-9415d6516f1c" cx="11.54" cy="20.07" r="0.13"/><circle class="71bd57f6-3a79-4cf9-82a5-9415d6516f1c" cx="11.8" cy="20.43" r="0.13"/><circle class="71bd57f6-3a79-4cf9-82a5-9415d6516f1c" cx="11.28" cy="20.43" r="0.13"/><circle class="71bd57f6-3a79-4cf9-82a5-9415d6516f1c" cx="18.35" cy="20.07" r="0.13"/><circle class="71bd57f6-3a79-4cf9-82a5-9415d6516f1c" cx="18.61" cy="20.43" r="0.13"/><circle class="71bd57f6-3a79-4cf9-82a5-9415d6516f1c" cx="18.09" cy="20.43" r="0.13"/><rect class="aac8336c-bbf8-4512-b433-0a2c6caacf76" x="17.37" y="8.53" width="2.58" height="0.83" rx="0.41" ry="0.41" transform="translate(6.97 -8.13) rotate(30)"/><path d="M13.6,8.15a2.14,2.14,0,0,1,.77,2.06h0s0,0,0,0a.13.13,0,0,1-.19,0,.14.14,0,0,1-.05-.1h0a1.86,1.86,0,0,0-.65-1.73h0a.14.14,0,0,1,0-.2A.16.16,0,0,1,13.6,8.15Z"/><path d="M14.8,8.43a2.14,2.14,0,0,1-.65,2.1h0l-.05,0A.15.15,0,0,1,14,10.4a.17.17,0,0,1,0-.1h0a1.84,1.84,0,0,0,.54-1.76v0a.14.14,0,0,1,.13-.15A.15.15,0,0,1,14.8,8.43Z"/><path d="M13.33,9a2.15,2.15,0,0,1,1.29,1.78h0s0,0,0,.05a.14.14,0,0,1-.2,0,.27.27,0,0,1-.07-.08h0a1.85,1.85,0,0,0-1.08-1.49h0A.14.14,0,0,1,13.18,9,.17.17,0,0,1,13.33,9Z"/><g class="0510a583-dfa1-4a53-b319-54b778895f32"><g class="7c15c3bf-c43f-4361-9b9a-11f5237223af"><path class="18f6e68f-f13a-4af4-a7d4-df188ec6b9de" d="M21.31,14.94a8.11,8.11,0,0,1-.89-1.37,5.45,5.45,0,0,0-1.08-2.08.76.76,0,0,0,.92-.33A.78.78,0,0,0,20,10.1l-.54-.31a.42.42,0,0,0,.36-.2.41.41,0,0,0,0-.39.79.79,0,0,0,.37.1.93.93,0,1,0,0-1.85l-.08,0a1.66,1.66,0,0,0,.25-.85A1.63,1.63,0,1,0,18,8.08h0l.63.37-.54-.31a.41.41,0,0,0-.56.15.4.4,0,0,0,0,.41l-.36-.22a.78.78,0,0,0-1.06.29.75.75,0,0,0,0,.79A5.8,5.8,0,0,0,15,9.45l-.26,0a1.85,1.85,0,0,0,0-1,.15.15,0,0,0-.15-.07.14.14,0,0,0-.13.15v0a2.06,2.06,0,0,1,0,1h-.11a2,2,0,0,0-.78-1.34.16.16,0,0,0-.16,0,.14.14,0,0,0,0,.2h0a1.89,1.89,0,0,1,.64,1.13A1.76,1.76,0,0,0,13.33,9a.17.17,0,0,0-.15.07.14.14,0,0,0,.05.19h0a2.44,2.44,0,0,1,.51.36,5.58,5.58,0,0,0-3.38,2.34h0a5.6,5.6,0,0,0-.65,1.35,9.58,9.58,0,0,1-1,1.64c-.82,1-3.32,5.29-2.67,7.82s2.13,1.79,2.1.27c0-1.25-.21-2.91.44-3.91,0,.13,0,.26,0,.39,0,3,2.92,5.49,6.52,5.49s6.51-2.46,6.51-5.49a2.13,2.13,0,0,0,0-.25c.55,1,.39,2.57.36,3.77,0,1.52,1.45,2.26,2.1-.27S22.13,15.9,21.31,14.94Z"/></g></g><path class="94f2c6fe-fb34-47c5-a34a-7a67f60e3fbb" d="M21.84,15.67a7.12,7.12,0,0,0-.53-.73,8.11,8.11,0,0,1-.89-1.37,5.45,5.45,0,0,0-1.08-2.08.76.76,0,0,0,.92-.33A.78.78,0,0,0,20,10.1l-.54-.31a.42.42,0,0,0,.36-.2.41.41,0,0,0,0-.39.79.79,0,0,0,.37.1.93.93,0,1,0,0-1.85l-.08,0a1.66,1.66,0,0,0,.25-.85A1.63,1.63,0,1,0,18,8.08h0l.63.37-.54-.31a.41.41,0,0,0-.56.15.4.4,0,0,0,0,.41l-.36-.22a.78.78,0,0,0-1.06.29.75.75,0,0,0,0,.79A5.8,5.8,0,0,0,15,9.45l-.26,0a1.85,1.85,0,0,0,0-1,.15.15,0,0,0-.15-.07.14.14,0,0,0-.13.15v0a2.06,2.06,0,0,1,0,1h-.11a2,2,0,0,0-.78-1.34.16.16,0,0,0-.16,0,.14.14,0,0,0,0,.2h0a1.89,1.89,0,0,1,.64,1.13A1.76,1.76,0,0,0,13.33,9a.17.17,0,0,0-.15.07.14.14,0,0,0,.05.19h0a2.44,2.44,0,0,1,.51.36,5.58,5.58,0,0,0-3.38,2.34h0a5.6,5.6,0,0,0-.65,1.35,9.58,9.58,0,0,1-1,1.64c-.82,1-3.32,5.29-2.67,7.82s2.13,1.79,2.1.27c0-1.25-.21-2.91.44-3.91,0,.13,0,.26,0,.39,0,3,2.92,5.49,6.52,5.49s6.51-2.46,6.51-5.49a2.13,2.13,0,0,0,0-.25c.55,1,.39,2.57.36,3.77,0,1.52,1.45,2.26,2.1-.27.44-1.74-.59-4.33-1.56-6.09"/><path class="18f6e68f-f13a-4af4-a7d4-df188ec6b9de" d="M22.13,16.2a.13.13,0,0,0,0-.25.13.13,0,1,0,0,.25Z"/></g></svg>