<?xml version="1.0" encoding="utf-8"?>
<!-- Generator: Adobe Illustrator 23.0.1, SVG Export Plug-In . SVG Version: 6.00 Build 0)  -->
<svg version="1.1" id="Layer_1" xmlns="http://www.w3.org/2000/svg" xmlns:xlink="http://www.w3.org/1999/xlink" x="0px" y="0px"
	 width="27.1px" height="17px" viewBox="0 0 27.1 17" style="enable-background:new 0 0 27.1 17;" xml:space="preserve">
<style type="text/css">
	.st0{opacity:0.5;enable-background:new    ;}
	.st1{fill:#FFFFFF;}
	.st2{fill:#E6E6E6;}
	.st3{fill:#B3B4B4;}
	.st4{fill:#4D4D4E;}
	.st5{fill:#666766;}
	.st6{fill:#EF3D39;}
	.st7{fill:none;stroke:#E6E6E6;stroke-width:3;stroke-linecap:round;stroke-linejoin:round;}
	.st8{fill-rule:evenodd;clip-rule:evenodd;fill:#E6E6E6;}
</style>
<g id="Grid">
	<rect x="-2052.9" y="-385.6" class="st0" width="150" height="150"/>
	<rect x="-2251.8" y="-385.6" class="st0" width="150" height="150"/>
	<rect x="-1845.1" y="-385.6" class="st0" width="150" height="150"/>
	<rect x="-1637.3" y="-385.6" class="st0" width="150" height="150"/>
	<rect x="-1429.5" y="-385.6" class="st0" width="150" height="150"/>
	<rect x="-1221.7" y="-385.6" class="st0" width="150" height="150"/>
	<rect x="-1013.9" y="-385.6" class="st0" width="150" height="150"/>
	<rect x="-806.1" y="-385.6" class="st0" width="150" height="150"/>
	<rect x="-598.3" y="-385.6" class="st0" width="150" height="150"/>
	<rect x="-390.5" y="-385.6" class="st0" width="150" height="150"/>
	<rect x="-171.5" y="-385.6" class="st0" width="150" height="150"/>
	<rect x="25.1" y="-385.6" class="st0" width="150" height="150"/>
	<rect x="232.8" y="-385.6" class="st0" width="150" height="150"/>
	<rect x="440.6" y="-385.6" class="st0" width="150" height="150"/>
	<rect x="648.4" y="-385.6" class="st0" width="150" height="150"/>
</g>
<g id="Add_Friend">
	<circle cx="-1991.3" cy="-337.5" r="31.4"/>
	<path d="M-1969.5-252.3h-42.8c-5.5,0-10-4.5-10-10v-8.6c0-17.3,14.1-31.4,31.4-31.4l0,0c17.3,0,31.4,14.1,31.4,31.4v8.6
		C-1959.5-256.8-1964-252.3-1969.5-252.3z"/>
	<g>
		<path d="M-1940.3-371.2L-1940.3-371.2c-2.8,0-5,2.3-5,5v29.5c0,2.8,2.3,5,5,5l0,0c2.8,0,5-2.2,5-5v-29.5
			C-1935.3-368.9-1937.5-371.2-1940.3-371.2z"/>
		<path d="M-1920.6-351.4L-1920.6-351.4c0-2.8-2.3-5-5-5h-29.5c-2.8,0-5,2.3-5,5l0,0c0,2.8,2.3,5,5,5h29.5
			C-1922.8-346.4-1920.6-348.7-1920.6-351.4z"/>
	</g>
	<g>
		<path class="st1" d="M-1770.1-368.9L-1770.1-368.9c-12.4,0-22.5,10.1-22.5,22.5v35.3c0,12.4,10.1,22.5,22.5,22.5l0,0
			c12.4,0,22.5-10.1,22.5-22.5v-35.3C-1747.6-358.8-1757.7-368.9-1770.1-368.9z"/>
		<circle class="st1" cx="-1770.1" cy="-274.3" r="5"/>
		<g>
			<circle class="st1" cx="-1801.4" cy="-309.9" r="5"/>
			<circle class="st1" cx="-1738.7" cy="-309.9" r="5"/>
			<path class="st1" d="M-1743.8-309.9c-0.4,14.2-12.1,25.6-26.3,25.6s-26-11.5-26.3-25.6h-10c0.4,19.6,16.6,35.5,36.3,35.5l0,0
				c19.7,0,35.9-15.9,36.3-35.5H-1743.8z"/>
		</g>
		<path class="st1" d="M-1770.1-279.3L-1770.1-279.3c-2.8,0-5,2.3-5,5v11.1c0,2.8,2.3,5,5,5l0,0c2.8,0,5-2.2,5-5v-11.1
			C-1765.1-277-1767.3-279.3-1770.1-279.3z"/>
		<path class="st1" d="M-1752-257.3L-1752-257.3c0-2.8-2.3-5-5-5h-26.1c-2.8,0-5,2.3-5,5l0,0c0,2.8,2.3,5,5,5h26.1
			C-1754.3-252.3-1752-254.6-1752-257.3z"/>
	</g>
	<g>
		<path class="st2" d="M-1547.2-294c-2-2-5.1-2-7.1,0l-17.6,17.6c-5.5,5.5-14.6,5.5-20.1,0s-5.5-14.6,0-20.1l17.6-17.6
			c2-2,2-5.1,0-7.1s-5.1-2-7.1,0l-17.6,17.6c-9.4,9.4-9.4,24.9,0,34.3s24.9,9.4,34.3,0l17.6-17.6
			C-1545.3-288.9-1545.3-292.1-1547.2-294z"/>
		<path class="st2" d="M-1516.6-351.8c-9.4-9.4-24.9-9.4-34.3,0l-17.6,17.6c-2,2-2,5.1,0,7.1s5.1,2,7.1,0l17.6-17.6
			c5.5-5.5,14.6-5.5,20.1,0s5.5,14.6,0,20.1l-17.6,17.6c-2,2-2,5.1,0,7.1s5.1,2,7.1,0l17.6-17.6
			C-1507.2-327-1507.2-342.4-1516.6-351.8z"/>
		<path class="st2" d="M-1564.6-296.8l20.6-20.6c1.9-1.9,1.9-5.1,0-7.1s-5.1-1.9-7.1,0l-20.6,20.6c-1.9,1.9-1.9,5.1,0,7.1
			C-1569.7-294.8-1566.5-294.8-1564.6-296.8z"/>
	</g>
	<g>
		<path d="M-1347.9-273.1h-55c-5.5,0-10-4.5-10-10v-55c0-5.5,4.5-10,10-10h55c5.5,0,10,4.5,10,10v55
			C-1337.9-277.6-1342.4-273.1-1347.9-273.1z"/>
		<path d="M-1324.9-299.1c-8.9-5.1-8.9-17.9,0-23.1l9.3-5.4l23-13.3c2.8-1.6,6.3,0.4,6.3,3.6v26.6v26.6c0,3.2-3.5,5.2-6.3,3.6
			l-23-13.3L-1324.9-299.1z"/>
	</g>
	<g>
		<circle class="st2" cx="-1160.4" cy="-337.5" r="31.4"/>
		<path class="st2" d="M-1138.6-252.3h-42.8c-5.5,0-10-4.5-10-10v-8.6c0-17.3,14.1-31.4,31.4-31.4l0,0c17.3,0,31.4,14.1,31.4,31.4
			v8.6C-1128.6-256.8-1133.1-252.3-1138.6-252.3z"/>
		<path class="st2" d="M-1127.7-368.8c-1-0.1-2.1-0.1-3.1-0.1c-4.4,0-6.6,5.5-3.3,8.6c6.1,5.7,9.8,13.8,9.8,22.8s-3.8,17.1-9.9,22.9
			c-3.2,3-1.1,8.5,3.3,8.5h0.1c18.1,0,32.6-15.2,31.3-33.6C-1100.3-354.9-1112.5-367.4-1127.7-368.8z"/>
		<path class="st2" d="M-1130.3-302.4L-1130.3-302.4L-1130.3-302.4c-4.6,0-6.7,5.5-3.4,8.6c6.1,5.7,9.9,13.8,9.9,22.8v6.9
			c0,1.3-0.6,4-1.4,4.7c-2.8,2.4-1,7,2.6,7c7.1,0,13.8,0,13.8,0c5.5,0,10-4.5,10-10v-8.6C-1098.9-288.2-1113-302.4-1130.3-302.4z"/>
	</g>
	<path class="st2" d="M-879-275.2c-0.4-4.5-3.2-8.5-8.9-13.4c-6.9-5.7-12.2-8.1-16.6-7.7c-5.2,0-8.4,3.1-12.1,6.8l0,0
		c-3.7,3.7-8.6,1.8-9.8,1.2c-4-2.1-10-6.4-19.1-15.3c-10.8-10.4-15.4-16.8-17.1-20.6c-1.3-3.2,0.5-6,1.6-7.2
		c6.6-7,11.9-13.2-1.4-28.9c-5.3-6.1-10.1-8.5-14.6-8.5c-1.7,0.1-3.4,0.7-4.9,1.4l0,0l0,0c-0.7,0.3-1.4,0.7-2,1.1
		c-8.5,4.9-10.9,10-10.9,10l0,0c-0.8,1.4-1.4,2.7-1.8,3.9c-0.2,0.5-0.3,0.9-0.4,1.4c-0.4,1.8-0.5,3.3-0.5,3.9
		c-0.4,4.4,0.3,9.9,3,16.5c0.3,0.9,0.6,1.8,1,2.7c6.1,14.2,17,29.6,30.8,43c18.2,17.9,35.5,26.8,48.4,30.4l0,0
		c0,0,13.6,4.5,19.6,0.9c1-0.4,1.9-1,2.8-1.7c5.9-4,10-9.6,11.7-13.3c0,0,0,0,0-0.1c0.1-0.2,0.2-0.5,0.3-0.7l0,0
		C-879.3-271.3-878.8-273.2-879-275.2z"/>
	<path class="st1" d="M-794.9-292.6c3.4,2.9,8.3,3.7,15.8,3.2c8.9-0.9,14.3-2.9,17.2-6.3c3.7-3.7,3.7-8.2,3.7-13.4l0,0
		c0-5.2,4.8-7.3,6.1-7.8c4.3-1.4,11.6-2.5,24.3-2.7c15-0.3,22.7,0.9,26.7,2.4c3.2,1.4,3.9,4.6,4,6.2c0.3,9.6,0.9,17.8,21.5,19.4
		c8,0.6,13.2-1.1,16.3-4.3c1.1-1.3,1.9-2.9,2.5-4.5l0,0l0,0c0.3-0.7,0.5-1.5,0.7-2.2c2.6-9.4,0.6-14.8,0.6-14.8l0,0
		c-0.4-1.5-0.9-2.9-1.5-4c-0.2-0.4-0.5-0.9-0.7-1.3c-1-1.6-1.9-2.7-2.4-3.1c-2.9-3.4-7.2-6.8-13.8-9.6c-0.8-0.4-1.7-0.8-2.6-1.2
		c-14.3-5.7-33-8.9-52.2-8.6c-25.5,0.2-44.1,6.1-55.8,12.7l0,0c0,0-12.7,6.4-14.5,13.2c-0.4,1-0.6,2-0.8,3.2
		c-1.3,7-0.2,13.8,1.2,17.7c0,0,0,0,0,0.1c0.1,0.2,0.2,0.5,0.3,0.7l0,0C-797.5-295.6-796.5-294-794.9-292.6z"/>
	<g>
		<path class="st1" d="M-510.7-273.1h-55c-5.5,0-10-4.5-10-10v-55c0-5.5,4.5-10,10-10h55c5.5,0,10,4.5,10,10v55
			C-500.7-277.6-505.2-273.1-510.7-273.1z"/>
		<path class="st1" d="M-487.7-299.1c-8.9-5.1-8.9-17.9,0-23.1l9.3-5.4l23-13.3c2.8-1.6,6.3,0.4,6.3,3.6v26.6v26.6
			c0,3.2-3.5,5.2-6.3,3.6l-23-13.3L-487.7-299.1z"/>
	</g>
	<path class="st3" d="M-450.3-372.3L-450.3-372.3c-2-2-5.4-2-7.4,0l-116.9,116.9c-2,2-2,5.4,0,7.4l0,0c2,2,5.4,2,7.4,0l116.9-116.9
		C-448.2-366.9-448.2-370.2-450.3-372.3z"/>
	<path d="M-249.5-323.7h-3.2c-1.2,0-2.2-0.8-2.6-1.9c-0.6-1.6-1.2-3.2-1.9-4.7c-0.5-1.1-0.3-2.3,0.5-3.2l2.3-2.3
		c3.8-3.8,3.8-10,0-13.7l-4.8-4.8c-3.8-3.8-10-3.8-13.7,0l-2.3,2.3c-0.8,0.8-2.1,1-3.2,0.5c-1.5-0.7-3.1-1.4-4.7-1.9
		c-1.1-0.4-1.9-1.4-1.9-2.6v-3.2c0-5.3-4.4-9.7-9.7-9.7h-6.8c-5.3,0-9.7,4.4-9.7,9.7v3.2c0,1.2-0.8,2.2-1.9,2.6
		c-1.6,0.6-3.2,1.2-4.7,1.9c-1.1,0.5-2.3,0.3-3.2-0.5l-2.3-2.3c-3.8-3.8-10-3.8-13.7,0l-4.8,4.8c-3.8,3.8-3.8,10,0,13.7l2.3,2.3
		c0.8,0.8,1,2.1,0.5,3.2c-0.7,1.5-1.4,3.1-1.9,4.7c-0.4,1.1-1.4,1.9-2.6,1.9h-3.2c-5.3,0-9.7,4.4-9.7,9.7v6.8c0,5.3,4.4,9.7,9.7,9.7
		h3.2c1.2,0,2.2,0.8,2.6,1.9c0.6,1.6,1.2,3.2,1.9,4.7c0.5,1.1,0.3,2.3-0.5,3.2l-2.3,2.3c-3.8,3.8-3.8,10,0,13.7l4.8,4.8
		c3.8,3.8,10,3.8,13.7,0l2.3-2.3c0.8-0.8,2.1-1,3.2-0.5c1.5,0.7,3.1,1.4,4.7,1.9c1.1,0.4,1.9,1.4,1.9,2.6v3.2c0,5.3,4.4,9.7,9.7,9.7
		h6.8c5.3,0,9.7-4.4,9.7-9.7v-3.2c0-1.2,0.8-2.2,1.9-2.6c1.6-0.6,3.2-1.2,4.7-1.9c1.1-0.5,2.3-0.3,3.2,0.5l2.3,2.3
		c3.8,3.8,10,3.8,13.7,0l4.8-4.8c3.8-3.8,3.8-10,0-13.7l-2.3-2.3c-0.8-0.8-1-2.1-0.5-3.2c0.7-1.5,1.4-3.1,1.9-4.7
		c0.4-1.1,1.4-1.9,2.6-1.9h3.2c5.3,0,9.7-4.4,9.7-9.7v-6.8C-239.8-319.3-244.2-323.7-249.5-323.7z M-298.1-282.8
		c-15.4,0-27.9-12.5-27.9-27.9s12.5-27.9,27.9-27.9s27.9,12.5,27.9,27.9C-270.2-295.2-282.7-282.8-298.1-282.8z"/>
	<g>
		<path d="M-64.4-326.5L-64.4-326.5c0,3.5-2.9,6.4-6.4,6.4h-64.3c-3.5,0-6.4-2.9-6.4-6.4l0,0c0-3.5,2.9-6.4,6.4-6.4h64.3
			C-67.3-333-64.4-330.1-64.4-326.5z"/>
		<path d="M-154.1-324.2l33.9,19.5c1.8,1,4-0.3,4-2.3v-39.1c0-2.1-2.2-3.4-4-2.3l-33.9,19.5C-155.9-327.8-155.9-325.3-154.1-324.2
			l33.9,19.5c1.8,1,4-0.3,4-2.3v-39.1c0-2.1-2.2-3.4-4-2.3l-33.9,19.5C-155.9-327.8-155.9-325.3-154.1-324.2z"/>
	</g>
	<g>
		<path d="M-96.5-293.7L-96.5-293.7c0-3.5,2.9-6.4,6.4-6.4h64.3c3.5,0,6.4,2.9,6.4,6.4l0,0c0,3.5-2.9,6.4-6.4,6.4h-64.3
			C-93.6-287.2-96.5-290.1-96.5-293.7z"/>
		<path d="M-6.8-296l-33.9-19.5c-1.8-1-4,0.3-4,2.3v39.1c0,2.1,2.2,3.4,4,2.3l33.9-19.5C-5-292.4-5-295-6.8-296l-33.9-19.5
			c-1.8-1-4,0.3-4,2.3v39.1c0,2.1,2.2,3.4,4,2.3l33.9-19.5C-5-292.4-5-295-6.8-296z"/>
	</g>
	<g>
		<path d="M99.5-308.2c4.9,0,8.9-4,8.9-8.9s-4-8.9-8.9-8.9s-8.9,4-8.9,8.9S94.6-308.2,99.5-308.2z"/>
		<path d="M149.5-313.6c-0.7-0.7-2-0.7-2.7,0l-28.3,30.8c-1.5,1.6-4,1.6-5.4,0L101-296c-0.4-0.4-0.8-0.5-1.4-0.5
			c-0.5,0-0.9,0.3-1.4,0.5l-10.7,11.6c-0.6,0.7-1,1.6-1,2.5v7.9c0,2,1.6,3.7,3.7,3.7h73.5c2,0,3.7-1.6,3.7-3.7v-18.7
			c0-0.9-0.3-1.8-1-2.5L149.5-313.6z"/>
		<path d="M199.8-355.1c-0.7-0.8-1.5-1.2-2.6-1.4l-102.6-8.9c-2-0.3-3.8,1.4-4.1,3.4l-1.6,18.4H75.3c-2,0-3.7,1.6-3.7,3.7v80.5
			c0,2,1.6,3.7,3.7,3.7h103c2,0,3.7-1.6,3.7-3.7v-10.2l7.3,0.7c0.1,0,0.3,0,0.3,0c0.8,0,1.8-0.3,2.4-0.8c0.8-0.7,1.2-1.5,1.4-2.6
			l7-80.1C200.7-353.4,200.3-354.3,199.8-355.1z M174.9-264.6c0,0.8-0.7,1.5-1.5,1.5H80.8c-0.8,0-1.5-0.7-1.5-1.5v-70.1
			c0-0.8,0.7-1.5,1.5-1.5h92.6c0.8,0,1.5,0.7,1.5,1.5V-264.6z M186.6-278c-0.1,0.8-0.8,1.4-1.6,1.4l-1.5-0.1
			c-0.8-0.1-1.4-0.7-1.4-1.5v-61.5c0-2-1.6-3.7-3.7-3.7h-82l1.1-12.6c0.1-0.8,0.8-1.4,1.6-1.4l92.2,8.1c0.8,0.1,1.4,0.8,1.4,1.6
			L186.6-278z"/>
		<path d="M112.6-315.2h1.6c0.4,0.6,1,1,1.7,1h2.6c0.7,0,1.4-0.4,1.7-1h1.6c1.1,0,2-0.9,2-2s-0.9-2-2-2h-1.3c0-1.1-0.9-2-2-2h-2.6
			c-1.1,0-2,0.9-2,2h-1.3c-1.1,0-2,0.9-2,2S111.5-315.2,112.6-315.2z"/>
		<path d="M141.2-322.1h1.6c0.4,0.6,1,1,1.7,1h2.7c0.7,0,1.4-0.4,1.7-1h1.6c1.1,0,2-0.9,2-2s-0.9-2-2-2h-1.3c0-1.1-0.9-2-2-2h-2.7
			c-1.1,0-2,0.9-2,2h-1.3c-1.1,0-2,0.9-2,2S140.1-322.1,141.2-322.1z"/>
		<path d="M122.9-308.7c0,1.1,0.9,2,2,2h1.6c0.4,0.6,1,1,1.7,1h2.6c0.7,0,1.4-0.4,1.7-1h1.6c1.1,0,2-0.9,2-2s-0.9-2-2-2h-1.3
			c0-1.1-0.9-2-2-2h-2.6c-1.1,0-2,0.9-2,2h-1.3C123.8-310.7,122.9-309.8,122.9-308.7z"/>
		<path d="M150.6-313.6c0,1.1,0.9,2,2,2h1.6c0.4,0.6,1,1,1.7,1h2.6c0.7,0,1.4-0.4,1.7-1h1.6c1.1,0,2-0.9,2-2s-0.9-2-2-2h-1.3
			c0-1.1-0.9-2-2-2h-2.6c-1.1,0-2,0.9-2,2h-1.3C151.5-315.6,150.6-314.7,150.6-313.6z"/>
	</g>
	<path d="M346-368.9c-32.2,0-58.3,26.1-58.3,58.3s26.1,58.3,58.3,58.3s58.3-26.1,58.3-58.3S378.2-368.9,346-368.9z M346-263.2
		c-26.2,0-47.4-21.2-47.4-47.4c0-26.2,21.2-47.4,47.4-47.4c26.2,0,47.4,21.2,47.4,47.4C393.4-284.4,372.2-263.2,346-263.2z"/>
	<g>
		<g>
			<circle cx="324.1" cy="-318.4" r="8.3"/>
			<circle cx="366.1" cy="-318.4" r="8.3"/>
		</g>
		<g>
			<path d="M345.1-272.5c15.6,0,28.5-11.8,30.1-27c0.2-1.7-1.2-3.3-3-3.3h-54.3c-1.8,0-3.1,1.5-3,3.3
				C316.6-284.3,329.5-272.5,345.1-272.5z"/>
		</g>
	</g>
	<path class="st2" d="M346-99c-32.2,0-58.3,26.1-58.3,58.3s26.1,58.3,58.3,58.3s58.3-26.1,58.3-58.3S378.2-99,346-99z M346,6.7
		c-26.2,0-47.4-21.2-47.4-47.4s21.2-47.4,47.4-47.4c26.2,0,47.4,21.2,47.4,47.4C393.4-14.5,372.2,6.7,346,6.7z"/>
	<g>
		<g>
			<circle class="st2" cx="324.1" cy="-48.5" r="8.3"/>
			<circle class="st2" cx="366.1" cy="-48.5" r="8.3"/>
		</g>
		<g>
			<path class="st2" d="M345.1-2.6c15.6,0,28.5-11.8,30.1-27c0.2-1.7-1.2-3.3-3-3.3h-54.3c-1.8,0-3.1,1.5-3,3.3
				C316.6-14.4,329.5-2.6,345.1-2.6z"/>
		</g>
	</g>
	<g>
		<path class="st4" d="M383.5-371.2L383.5-371.2c-2.8,0-5,2.3-5,5v29.5c0,2.8,2.2,5,5,5l0,0c2.8,0,5-2.2,5-5v-29.5
			C388.5-368.9,386.2-371.2,383.5-371.2z"/>
		<path class="st4" d="M403.2-351.4L403.2-351.4c0-2.8-2.3-5-5-5h-29.5c-2.8,0-5,2.3-5,5l0,0c0,2.8,2.3,5,5,5h29.5
			C401-346.4,403.2-348.7,403.2-351.4z"/>
	</g>
	<g>
		<g>
			<path d="M630.9-370c-1.1-1.1-2.8-1.5-4.2-0.9l-113,40.4c-1.5,0.5-2.6,1.9-2.7,3.6c-0.1,1.6,0.8,3.1,2.2,3.9l38.5,19.3l31.9-18.8
				l-18.8,31.9l19.3,38.5c0.7,1.4,2.1,2.2,3.6,2.2c0.1,0,0.2,0,0.2,0c1.6-0.1,3-1.1,3.6-2.7l40.4-113
				C632.3-367.2,632-368.9,630.9-370z"/>
		</g>
		<path class="st5" d="M551.7-303.9v21.8c0,3,3.8,4.2,5.6,1.8l7.5-10.5l18.8-31.9L551.7-303.9z"/>
	</g>
	<g>
		<path d="M847.8-355.6c-14-14-36.8-14-50.8,0c-1.7,1.7-3.2,3.6-4.5,5.6c-1.3-2-2.8-3.8-4.5-5.5c-14-14-36.8-14-50.8,0
			s-14,36.8,0,50.8l48.3,48.3c3.9,3.9,10.1,3.9,14,0l48.3-48.3C861.9-318.9,861.9-341.6,847.8-355.6z"/>
	</g>
	<g>
		<circle class="st6" cx="-1826.8" cy="-189.3" r="3"/>
		<circle class="st6" cx="-1813.1" cy="-189.3" r="3"/>
		<circle class="st6" cx="-1799.4" cy="-189.3" r="3"/>
	</g>
	<path class="st2" d="M-1924.9,158.6L-1924.9,158.6c-5.8,5.8-15.4,5.8-21.2,0l-84.9-84.9c-5.8-5.8-5.8-15.4,0-21.2l0,0
		c5.8-5.8,15.4-5.8,21.2,0l84.9,84.9C-1919,143.2-1919,152.8-1924.9,158.6z"/>
	<path class="st2" d="M-2030.9,158.6L-2030.9,158.6c-5.8-5.8-5.8-15.4,0-21.2l84.9-84.9c5.8-5.8,15.4-5.8,21.2,0l0,0
		c5.8,5.8,5.8,15.4,0,21.2l-84.9,84.9C-2015.5,164.4-2025.1,164.4-2030.9,158.6z"/>
	<path class="st2" d="M-1977.9-27.4L-1977.9-27.4c-8.3,0-15-6.7-15-15v-120c0-8.2,6.8-15,15-15l0,0c8.3,0,15,6.8,15,15v120
		C-1962.9-34.2-1969.6-27.4-1977.9-27.4z"/>
	<path class="st2" d="M-2052.9-102.4L-2052.9-102.4c0-8.3,6.8-15,15-15h120c8.2,0,15,6.7,15,15l0,0c0,8.2-6.8,15-15,15h-120
		C-2046.1-87.4-2052.9-94.2-2052.9-102.4z"/>
	<g>
		<circle class="st7" cx="160.2" cy="-46.9" r="18.5"/>
		<polyline class="st7" points="168.7,-41.4 160.2,-46.9 160.2,-58.4 		"/>
	</g>
	<g transform="translate(0,-952.36218)">
		<path class="st8" d="M67.9,917.8c-2.1,0-3.9,1.7-3.9,3.9c0,2.1,1.7,3.9,3.9,3.9c2.1,0,3.9-1.7,3.9-3.9S70.1,917.8,67.9,917.8z
			 M67.9,920.3c0.7,0,1.3,0.6,1.3,1.3s-0.6,1.3-1.3,1.3c-0.7,0-1.3-0.6-1.3-1.3C66.7,920.9,67.2,920.3,67.9,920.3z"/>
		<path class="st8" d="M80.5,917.8c-2.1,0-3.9,1.7-3.9,3.9c0,2.1,1.7,3.9,3.9,3.9c2.1,0,3.9-1.7,3.9-3.9
			C84.3,919.5,82.6,917.8,80.5,917.8z M80.5,920.3c0.7,0,1.3,0.6,1.3,1.3s-0.6,1.3-1.3,1.3c-0.7,0-1.3-0.6-1.3-1.3
			S79.7,920.3,80.5,920.3z"/>
		<path class="st8" d="M74.1,905.6c-3.7,0-7.3,0.9-10.4,2.9c-4.2,0.6-7.6,2.2-10.2,3.9c-2.5,1.7-4.1,3.4-4.8,4.6
			c-1.4,2-2.5,5.3-2.5,9s1.4,7.8,5.4,10.4c0.2,0.1,0.4,0.2,0.7,0.2c2.1,0,3.8-1.4,4.8-3.3c0.1-0.1,0.1-0.2,0.2-0.3
			c1.1,2.9,2.9,5.7,5.2,8.1c3.1,3.2,7.3,5.5,11.9,5.5s8.6-2.3,11.8-5.5c2.3-2.4,4.2-5.4,5.5-8.4c0.3,0.6,0.6,1.1,1,1.6
			c1,1.3,2.5,2.3,4.2,2.3c0.2,0,0.5-0.1,0.7-0.2c4-2.5,5.4-6.6,5.4-10.4c0-3.7-1.1-7.1-2.5-9c-0.8-1.3-2.4-2.9-5-4.6
			c-2.6-1.7-6.1-3.2-10.3-3.9C81.5,906.7,77.8,905.7,74.1,905.6L74.1,905.6z M74.1,908.2c3.2,0,6.4,0.9,9.4,2.6
			c3.3,5.3,4.7,12.8,6.5,18.4c-1,3.7-3.1,7.5-5.8,10.3c-2.4,2.5-5.3,4.2-8.5,4.6v-4.9c0.9-0.3,1.8-0.8,2.4-1.4
			c0.9-0.9,1.4-2.1,1.5-3.5c0-0.5-0.2-0.9-0.6-1.1c-1.3-0.8-2.9-1.1-4.6-1.1c-1.6,0-3.2,0.3-4.6,1.2c-0.4,0.2-0.6,0.6-0.6,1.1
			c0,1.4,0.4,2.6,1.3,3.5c0.7,0.7,1.6,1.2,2.6,1.6v4.8c-3.3-0.3-6.4-2.1-8.9-4.7c-2.8-2.8-4.8-6.6-5.5-10.1c0.3-0.9,0.5-1.8,0.8-2.7
			c1.4-5.2,2.8-11.4,5.6-15.9C67.7,909,70.9,908.2,74.1,908.2L74.1,908.2z M61.6,911.6c-2.3,4.6-3.5,10-4.6,14.3
			c-0.7,2.6-1.4,4.8-2.2,6.3c-0.7,1.3-1.3,1.8-2.2,1.9c-2.9-2-3.8-5-3.8-8c0-3.1,1.2-6.3,2.1-7.6l0.1-0.1c0.3-0.6,1.8-2.3,4.1-3.8
			C56.7,913.4,58.9,912.3,61.6,911.6z M86.8,911.7c2.7,0.7,5.1,1.8,6.9,3c2.4,1.5,3.9,3.2,4.2,3.8c0,0,0,0.1,0.1,0.1
			c0.9,1.3,2.1,4.5,2.1,7.6c0,3-0.9,6-3.8,8c-0.7-0.1-1.2-0.4-1.8-1.2c-0.7-0.9-1.4-2.4-2-4.3C90.9,924,89.7,917.3,86.8,911.7
			L86.8,911.7z M74.3,934.5c0.9,0,1.8,0.2,2.5,0.4c-0.1,0.4-0.3,0.7-0.6,0.9c-0.4,0.4-1.1,0.8-2.1,1.1c-0.9-0.3-1.5-0.7-1.9-1
			c-0.3-0.3-0.4-0.6-0.5-1C72.5,934.7,73.4,934.5,74.3,934.5z"/>
	</g>
	<g>
		<path class="st2" d="M94.5-111c0.4-0.5,0.5-1.1,0.2-1.7c-0.3-0.5-0.8-0.9-1.4-0.9H69.6c-0.9,0-1.6,0.7-1.6,1.6v2H53.6
			c-0.9,0-1.6,0.7-1.6,1.6v21.9v19.4c0,0.9,0.7,1.6,1.6,1.6s1.6-0.7,1.6-1.6v-17.8h18.6c0.9,0,1.6-0.7,1.6-1.6v-2h17.8
			c0.6,0,1.2-0.4,1.4-0.9c0.3-0.5,0.2-1.2-0.2-1.7l-7.3-9c-0.5-0.6-0.5-1.4,0-2L94.5-111z M72.2-88.1h-17v-18.8h17V-88.1L72.2-88.1z
			 M84.8-98.1l5.2,6.4H75.4v-16.8c0-0.9-0.7-1.6-1.6-1.6h-2.7v-0.4h18.8l-5.2,6.4C83.4-102.3,83.4-99.8,84.8-98.1z"/>
	</g>
	<g>
		<g>
			<g>
				<path class="st2" d="M129-88.1c-6.2,0-12.4-6.9-14-16.2c-1.1-6-0.1-11.9,2.6-15.8c1.6-2.3,3.8-3.7,6.2-4.1
					c1.2-0.2,2.5-0.1,3.7,0.2c4.5,1.3,9.5,1.3,14,0c1.2-0.3,2.5-0.4,3.7-0.2l0,0c2.4,0.4,4.6,1.8,6.2,4.1c2.7,3.8,3.7,9.7,2.6,15.8
					c-1.8,9.9-8.7,17.1-15.3,16.1c-1.6-0.2-3-0.9-4.3-2c-1.3,1.1-2.7,1.7-4.3,2C129.9-88.1,129.4-88.1,129-88.1z M125.1-122.2
					c-0.3,0-0.7,0-1,0.1c-1.9,0.3-3.6,1.4-4.9,3.2c-2.4,3.4-3.3,8.8-2.3,14.3c1.6,8.8,7.4,15.3,13,14.5c1.4-0.2,2.7-0.9,3.9-2.1
					c0.4-0.4,1-0.4,1.4,0c1.1,1.2,2.4,1.8,3.9,2.1c5.6,0.9,11.4-5.6,13-14.5c1-5.5,0.1-10.8-2.3-14.3c-1.3-1.8-3-3-4.9-3.2
					c-0.9-0.1-1.9-0.1-2.9,0.2c-4.9,1.4-10.2,1.4-15.1,0C126.4-122.1,125.7-122.2,125.1-122.2z"/>
			</g>
		</g>
		<g>
			<g>
				<g>
					<path class="st2" d="M134.9-120.9L134.9-120.9c-0.6-0.1-1-0.5-1-1.1c0.9-9.1-2.6-12.3-2.7-12.3c-0.4-0.4-0.5-1-0.1-1.4
						c0.4-0.4,1-0.5,1.4-0.1c0.2,0.2,4.4,3.8,3.4,14C135.8-121.3,135.4-120.9,134.9-120.9z"/>
				</g>
			</g>
			<g>
				<g>
					<path class="st2" d="M137.2-124.1c-0.5,0-1,0-1.5-0.1c-0.3,0-0.5-0.2-0.7-0.4c-0.2-0.2-0.2-0.5-0.2-0.7c0.8-5.6,6-9.4,11.6-8.6
						c0.3,0,0.5,0.2,0.7,0.4c0.2,0.2,0.2,0.5,0.2,0.7l0,0C146.5-127.8,142.1-124.1,137.2-124.1z M137-126.1L137-126.1
						c3.8,0,7-2.5,8-6h-0.1C141.3-132.1,138-129.6,137-126.1z"/>
				</g>
			</g>
		</g>
	</g>
	<path class="st2" d="M226-122.2h-2.8c-0.7,0-1.2,0.5-1.2,1.2s0.5,1.2,1.2,1.2h2.8c0.7,0,1.2-0.5,1.2-1.2S226.5-122.2,226-122.2z"/>
	<path class="st2" d="M243.4-126.2h-2h-0.7l-4-10c-0.5-1.7-2-3-3.8-3h-2.5h-1.8H213h-2.5c-1.8,0-3.4,1.2-3.8,2.8l-4.5,10.3
		c-1.8,0.4-3.2,2-3.2,3.9v5.1c0,2.2,1.8,4,4,4h3.8c0.6,2.4,2.7,4.1,5.2,4.1s4.6-1.8,5.2-4.1h11.7c0.6,2.4,2.7,4.1,5.2,4.1
		s4.6-1.8,5.2-4.1h4.2c2.1,0,3.9-1.7,4-3.8c0,0,0,0,0-0.1v-0.1v-5.2C247.4-124.4,245.5-126.2,243.4-126.2z M232.9-136.8
		c0.7,0,1.3,0.5,1.5,1.3l3.7,9.3h-8.3v-10.6h0.6L232.9-136.8L232.9-136.8z M208.9-135.7c0.2-0.7,0.8-1.2,1.5-1.2h2.5h14.4v10.6
		h-22.5L208.9-135.7z M209.2-113.1c-0.2-0.4-0.3-0.8-0.3-1.2c0-0.4,0.1-0.8,0.3-1.2c0.5-1,1.5-1.7,2.7-1.7s2.2,0.7,2.7,1.7
		c0.2,0.4,0.3,0.8,0.3,1.2c0,0.4-0.1,0.8-0.3,1.2c-0.5,1-1.5,1.7-2.7,1.7S209.7-112.1,209.2-113.1z M231.4-113.1
		c-0.2-0.4-0.3-0.8-0.3-1.2c0-0.4,0.1-0.8,0.3-1.2c0.5-1,1.5-1.7,2.7-1.7s2.2,0.7,2.7,1.7c0.2,0.4,0.3,0.8,0.3,1.2
		c0,0.4-0.1,0.8-0.3,1.2c-0.5,1-1.5,1.7-2.7,1.7S231.9-112.1,231.4-113.1z M243.4-115.5h-4.2c-0.6-2.4-2.7-4.1-5.2-4.1
		s-4.6,1.8-5.2,4.1h-11.6c-0.6-2.4-2.7-4.1-5.2-4.1s-4.6,1.8-5.2,4.1H203c-0.9,0-1.5-0.7-1.5-1.5v-5.1c0-0.9,0.7-1.6,1.6-1.6l0,0
		l0,0h25.5h11.7h1.2h2c0.9,0,1.5,0.7,1.5,1.6v5.2C245-116.2,244.2-115.5,243.4-115.5z"/>
	<g>
		<path class="st2" d="M251.7-30.3c4.6-4.7,7.5-11.1,7.5-18.3c0-7.1-2.9-13.5-7.5-18.2l-0.1-0.1l-0.1-0.1
			c-4.7-4.7-11.2-7.6-18.3-7.6s-13.6,2.9-18.3,7.6c0,0-0.1,0-0.1,0.1l-0.1,0.1c-4.6,4.7-7.5,11.2-7.5,18.3c0,14.3,11.7,26,26,26
			c7.1,0,13.6-2.9,18.3-7.6C251.6-30.1,251.6-30.1,251.7-30.3C251.6-30.2,251.7-30.2,251.7-30.3z M211.3-46.5h9.8
			c-0.4,4.4-2.1,8.5-4.9,12C213.5-37.9,211.7-42,211.3-46.5z M216.2-62.5c2.8,3.4,4.5,7.5,4.9,12h-9.8
			C211.7-55,213.5-59.1,216.2-62.5z M255.1-50.5h-9.8c0.4-4.4,2.1-8.5,4.9-12C252.9-59.1,254.7-55,255.1-50.5z M241.3-50.5h-6.1
			v-19.9c4.6,0.4,8.8,2.3,12.2,5.1C243.8-61.1,241.7-56,241.3-50.5z M231.2-50.5h-6.1c-0.4-5.5-2.5-10.6-6.1-14.8
			c3.4-2.8,7.6-4.7,12.2-5.1V-50.5z M225.1-46.5h6.1v19.9c-4.6-0.4-8.8-2.3-12.2-5.1C222.6-35.9,224.7-41,225.1-46.5z M235.2-46.5
			h6.1c0.4,5.5,2.5,10.6,6.1,14.8c-3.4,2.8-7.6,4.7-12.2,5.1V-46.5z M245.3-46.5h9.8c-0.4,4.5-2.2,8.6-4.9,12
			C247.4-38,245.7-42.1,245.3-46.5z"/>
	</g>
	<g transform="translate(0,-952.36218)">
		<path class="st8" d="M164.1,944.1c-12.4,0-22.6,10-22.7,22.5s9.9,22.8,22.5,23l0,0c12.5,0.1,22.8-9.9,23-22.5
			c0.1-12.5-10-22.8-22.5-23l0,0C164.3,944.1,164.2,944.1,164.1,944.1L164.1,944.1z M164.1,945.7c0.1,0,0.2,0,0.3,0l0,0
			c11.7,0.1,21.1,9.7,20.9,21.4c-0.1,11.7-9.7,21.1-21.4,20.9l0,0c-11.7-0.1-21-9.7-20.9-21.4C143.1,955,152.5,945.7,164.1,945.7
			L164.1,945.7z"/>
		<path class="st8" d="M155.7,957.7c-1.6,0-3,1.3-3,3l0,0c0,1.6,1.3,3,3,3c1.6,0,3-1.3,3-3l0,0C158.7,959.1,157.4,957.7,155.7,957.7
			L155.7,957.7L155.7,957.7L155.7,957.7L155.7,957.7z M155.7,959.3L155.7,959.3c0.8,0,1.4,0.6,1.4,1.4l0,0c0,0.8-0.6,1.4-1.4,1.4
			s-1.4-0.6-1.4-1.4l0,0C154.3,959.9,154.9,959.3,155.7,959.3z"/>
		<path class="st8" d="M172.7,957.9c-1.6,0-3,1.3-3,3l0,0c0,1.6,1.3,3,3,3l0,0c1.6,0,3-1.3,3-3l0,0
			C175.7,959.3,174.4,957.9,172.7,957.9L172.7,957.9C172.8,957.9,172.8,957.9,172.7,957.9L172.7,957.9L172.7,957.9z M172.7,959.5
			L172.7,959.5c0.8,0,1.4,0.6,1.4,1.4l0,0c0,0.8-0.6,1.4-1.4,1.4l0,0c-0.8,0-1.4-0.6-1.4-1.4l0,0
			C171.3,960.1,171.9,959.5,172.7,959.5z"/>
		<path class="st8" d="M150.4,969.2c-0.4,0-0.8,0.3-0.8,0.8c0,0.1,0,0.1,0,0.2c1.5,6.6,7.4,11.5,14.4,11.6s13-4.7,14.7-11.3
			c0.1-0.4-0.1-0.9-0.6-1c-0.1,0-0.1,0-0.2,0L150.4,969.2L150.4,969.2z M151.4,970.8l25.5,0.3c-1.8,5.3-6.9,9.2-12.8,9.1
			C158.1,980.1,153.1,976.2,151.4,970.8z"/>
	</g>
</g>
<g id="Guidelines">
</g>
<g>
	<path class="st2" d="M1,2.1L1,2.1c-0.8,0.8-0.8,2,0,2.8L12.1,16c0.8,0.8,2,0.8,2.8,0l0,0c0.8-0.8,0.8-2,0-2.8L3.8,2.1
		C3,1.4,1.8,1.4,1,2.1z"/>
	<path class="st2" d="M26.1,2.1L26.1,2.1c-0.8-0.8-2-0.8-2.8,0L12.3,13.2c-0.8,0.8-0.8,2,0,2.8l0,0c0.8,0.8,2,0.8,2.8,0L26.1,4.9
		C26.9,4.1,26.9,2.9,26.1,2.1z"/>
</g>
</svg>
