<svg xmlns="http://www.w3.org/2000/svg" xmlns:xlink="http://www.w3.org/1999/xlink" viewBox="0 0 30 30"><defs><style>.\31 77b8ad4-1bc5-4d8e-bdb7-f2409f4327fc,.\38 96d04b5-9d4a-4608-b242-d9b5949c6936,.af91b2fe-66c9-43e9-af14-f7e915244b6d,.b1f3bc8b-bcea-42ae-aaf4-635dee4c95f4{fill:none;}.c7c88aa5-4cc7-42d7-8a89-9002d75e6b64{fill:#fcbdac;}.\33 1f3f05f-17d4-454c-85b8-ba947d74fb36{opacity:0.2;}.\38 1b46794-b792-418c-90f6-452457664b7e{fill:#f9b75f;}.\31 2af474b-6b7e-4c8b-93be-0a3cc1c8f24c{fill:#f93253;}.\31 2af474b-6b7e-4c8b-93be-0a3cc1c8f24c,.\38 96d04b5-9d4a-4608-b242-d9b5949c6936,.af91b2fe-66c9-43e9-af14-f7e915244b6d{stroke:#333;stroke-width:0.25px;}.\31 2af474b-6b7e-4c8b-93be-0a3cc1c8f24c,.\31 77b8ad4-1bc5-4d8e-bdb7-f2409f4327fc,.\38 96d04b5-9d4a-4608-b242-d9b5949c6936,.af91b2fe-66c9-43e9-af14-f7e915244b6d{stroke-miterlimit:10;}.\31 77b8ad4-1bc5-4d8e-bdb7-f2409f4327fc{stroke:#f9b75f;stroke-width:0.5px;}.\31 77b8ad4-1bc5-4d8e-bdb7-f2409f4327fc,.\38 96d04b5-9d4a-4608-b242-d9b5949c6936{stroke-linecap:round;}.\35 17a77ce-1e50-47d1-ab5e-d21812a8d195{fill:#333;}.\38 987ac78-5833-41c7-a43a-c04a2cb2abee{clip-path:url(#002313ef-7b39-4757-b6a5-bd0b20c2742e);}.\36 fc47e83-2962-43c1-a46b-b8df393424e2{fill:#fff;}</style><clipPath id="002313ef-7b39-4757-b6a5-bd0b20c2742e"><rect class="b1f3bc8b-bcea-42ae-aaf4-635dee4c95f4" x="9.48" y="4.69" width="5.52" height="20.63"/></clipPath></defs><title>unnamed</title><g id="458e72a9-d232-43e2-b0a1-3f0636a685a7" data-name="Background"><circle class="c7c88aa5-4cc7-42d7-8a89-9002d75e6b64" cx="15" cy="15.02" r="14.98"/></g><g id="bc441d0c-5166-4daf-a815-85039dcd42a6" data-name="Hot Dog"><path class="31f3f05f-17d4-454c-85b8-ba947d74fb36" d="M20.52,12V9.79A2.82,2.82,0,0,0,17.71,7a2.58,2.58,0,0,0-.4,0,2.69,2.69,0,0,0-4.62,0,2.58,2.58,0,0,0-.4,0A2.82,2.82,0,0,0,9.48,9.79V22.25a2.81,2.81,0,0,0,2.81,2.81,2.58,2.58,0,0,0,.4,0,2.69,2.69,0,0,0,4.62,0,2.58,2.58,0,0,0,.4,0,2.81,2.81,0,0,0,2.81-2.81V13"/><rect class="81b46794-b792-418c-90f6-452457664b7e" x="9.48" y="5.98" width="5.62" height="18.08" rx="2.81" ry="2.81"/><rect class="81b46794-b792-418c-90f6-452457664b7e" x="14.9" y="5.98" width="5.62" height="18.08" rx="2.81" ry="2.81"/><rect class="12af474b-6b7e-4c8b-93be-0a3cc1c8f24c" x="12.29" y="4.71" width="5.42" height="20.62" rx="2.71" ry="2.71"/><path class="177b8ad4-1bc5-4d8e-bdb7-f2409f4327fc" d="M15,7.31a4.48,4.48,0,0,0,0,4.5,5.6,5.6,0,0,1,0,5,6.39,6.39,0,0,0,0,5.35"/><path class="517a77ce-1e50-47d1-ab5e-d21812a8d195" d="M20.52,11.6a.13.13,0,0,0,0-.25.13.13,0,0,0,0,.25Z"/><g class="31f3f05f-17d4-454c-85b8-ba947d74fb36"><g class="8987ac78-5833-41c7-a43a-c04a2cb2abee"><path class="6fc47e83-2962-43c1-a46b-b8df393424e2" d="M20.52,11V8.78A2.82,2.82,0,0,0,17.71,6c-.14,0-.27,0-.4,0a2.69,2.69,0,0,0-4.62,0c-.13,0-.26,0-.4,0A2.82,2.82,0,0,0,9.48,8.78V21.23a2.82,2.82,0,0,0,2.81,2.82c.14,0,.27,0,.4,0a2.69,2.69,0,0,0,4.62,0c.13,0,.26,0,.4,0a2.82,2.82,0,0,0,2.81-2.82V12"/></g></g><path class="896d04b5-9d4a-4608-b242-d9b5949c6936" d="M20.52,11V8.79A2.82,2.82,0,0,0,17.71,6a2.58,2.58,0,0,0-.4,0,2.69,2.69,0,0,0-4.62,0,2.58,2.58,0,0,0-.4,0A2.82,2.82,0,0,0,9.48,8.79V21.25a2.81,2.81,0,0,0,2.81,2.81,2.58,2.58,0,0,0,.4,0,2.69,2.69,0,0,0,4.62,0,2.58,2.58,0,0,0,.4,0,2.81,2.81,0,0,0,2.81-2.81V12"/><rect class="af91b2fe-66c9-43e9-af14-f7e915244b6d" x="12.29" y="4.71" width="5.42" height="20.62" rx="2.71" ry="2.71"/></g></svg>