<?xml version="1.0" encoding="utf-8"?>
<!-- Generator: Adobe Illustrator 22.1.0, SVG Export Plug-In . SVG Version: 6.00 Build 0)  -->
<svg version="1.1" xmlns="http://www.w3.org/2000/svg" xmlns:xlink="http://www.w3.org/1999/xlink" x="0px" y="0px"
	 viewBox="0 0 30 30" style="enable-background:new 0 0 30 30;" xml:space="preserve">
<style type="text/css">
	.st0{fill:#F7E07F;}
	.st1{fill:#FF3333;}
	.st2{fill:#FFAF99;}
	.st3{fill:#FF855F;}
	.st4{fill:#F7AA63;}
	.st5{fill:#B26212;}
	.st6{fill:#6CD1F4;}
	.st7{fill:#EDA9E4;}
	.st8{fill:#B994EA;}
	.st9{fill:#A9E0FF;}
	.st10{fill:#C69C6D;}
	.st11{fill:#F2F2F2;}
	.st12{fill:#E6E6E6;}
	.st13{fill:#F9DDC0;}
	.st14{fill:#CCFFFE;}
	.st15{fill:#FFB199;}
	.st16{fill:#808080;}
	.st17{fill:#FF5A5A;}
	.st18{fill:#FF8C69;}
	.st19{opacity:0.2;}
	.st20{fill:#FBB03B;}
	.st21{clip-path:url(#SVGID_2_);}
	.st22{fill:#FFFFFF;}
	.st23{clip-path:url(#SVGID_2_);fill:none;}
	.st24{clip-path:url(#SVGID_4_);fill:#FFFFFF;}
	.st25{fill:none;stroke:#333333;stroke-width:0.25;stroke-linecap:round;stroke-linejoin:round;stroke-miterlimit:10;}
	.st26{fill:none;stroke:#000000;stroke-width:0.25;stroke-linejoin:round;stroke-miterlimit:10;}
	.st27{clip-path:url(#SVGID_6_);}
	.st28{clip-path:url(#SVGID_6_);fill:none;}
	.st29{opacity:5.000000e-02;}
	.st30{fill:none;stroke:#000000;stroke-width:0.25;stroke-miterlimit:10;}
	.st31{opacity:0.8;fill:none;stroke:#FFFFFF;stroke-width:0.25;stroke-linecap:round;stroke-miterlimit:10;}
	.st32{fill:none;stroke:#FFFFFF;stroke-width:0.25;stroke-linecap:round;stroke-miterlimit:10;}
	.st33{clip-path:url(#SVGID_8_);}
	.st34{clip-path:url(#SVGID_8_);fill:none;}
	.st35{fill:#F9AAE4;}
	.st36{fill:none;stroke:#000000;stroke-width:0.5422;stroke-linecap:round;stroke-linejoin:round;stroke-miterlimit:10;}
	.st37{fill:#333333;}
	.st38{fill:#F9B964;}
	.st39{clip-path:url(#SVGID_10_);}
	.st40{fill:#FC6738;}
	.st41{clip-path:url(#SVGID_12_);}
	.st42{clip-path:url(#SVGID_14_);}
	.st43{fill:none;stroke:#000000;stroke-width:0.3324;stroke-linecap:round;stroke-linejoin:round;stroke-miterlimit:10;}
	.st44{clip-path:url(#SVGID_16_);fill:#FFFFFF;}
	.st45{fill:#DB0000;}
	.st46{fill:#FFC373;}
	.st47{fill:#7AD383;}
	.st48{fill:#39B54A;}
	.st49{fill:#A67C52;}
	.st50{fill:#FBAE17;}
	.st51{opacity:0.8;fill:none;stroke:#FFFFFF;stroke-width:0.2495;stroke-linecap:round;stroke-miterlimit:10;}
	.st52{fill:none;stroke:#000000;stroke-width:0.25;stroke-linecap:round;stroke-linejoin:round;stroke-miterlimit:10;}
	.st53{fill:none;stroke:#000000;stroke-width:0.3041;stroke-linecap:round;stroke-linejoin:round;stroke-miterlimit:10;}
	.st54{clip-path:url(#SVGID_18_);fill:#FFFFFF;}
	.st55{fill:none;stroke:#000000;stroke-width:0.3018;stroke-miterlimit:10;}
	.st56{fill:none;stroke:#000000;stroke-width:0.2593;stroke-linecap:round;stroke-miterlimit:10;}
	.st57{fill:#A5400E;}
	.st58{fill:none;stroke:#000000;stroke-width:0.2653;stroke-miterlimit:10;}
	.st59{fill:#FF0000;}
	.st60{fill:none;stroke:#000000;stroke-width:0.2412;stroke-linecap:round;stroke-linejoin:round;stroke-miterlimit:10;}
	.st61{opacity:0.2;stroke:#333333;stroke-width:0.25;stroke-linecap:round;stroke-linejoin:round;stroke-miterlimit:10;}
	.st62{fill:#FFC48A;}
	.st63{fill:#91E291;}
	.st64{fill:#FF8D8D;}
	.st65{fill:#73FFFB;}
	.st66{opacity:0.15;}
	.st67{opacity:5.000000e-02;clip-path:url(#SVGID_20_);}
	.st68{opacity:5.000000e-02;clip-path:url(#SVGID_22_);}
	.st69{opacity:0.8;fill:#EDA9E4;stroke:#FFFFFF;stroke-width:0.2;stroke-linecap:round;stroke-miterlimit:10;}
	.st70{opacity:5.000000e-02;clip-path:url(#SVGID_24_);}
	.st71{opacity:5.000000e-02;clip-path:url(#SVGID_26_);}
	.st72{opacity:5.000000e-02;clip-path:url(#SVGID_28_);}
	.st73{opacity:5.000000e-02;clip-path:url(#SVGID_30_);}
	.st74{opacity:0.8;fill:none;stroke:#FFFFFF;stroke-width:0.4184;stroke-linecap:round;stroke-miterlimit:10;}
	.st75{clip-path:url(#SVGID_32_);fill:#FFFFFF;}
	.st76{fill:#FBAE17;stroke:#000000;stroke-width:0.25;stroke-miterlimit:10;}
	.st77{fill:#FCEE21;stroke:#000000;stroke-width:0.25;stroke-miterlimit:10;}
	.st78{fill:#006837;stroke:#000000;stroke-width:0.25;stroke-miterlimit:10;}
	.st79{fill:#22B573;stroke:#000000;stroke-width:0.25;stroke-miterlimit:10;}
	.st80{fill:#CCFFE7;stroke:#000000;stroke-width:0.25;stroke-miterlimit:10;}
	.st81{clip-path:url(#SVGID_34_);fill:#ED1C24;stroke:#000000;stroke-width:0.25;stroke-miterlimit:10;}
	.st82{fill:#FFFF00;stroke:#000000;stroke-width:0.25;stroke-miterlimit:10;}
	.st83{fill:#ED1C24;stroke:#000000;stroke-width:0.25;stroke-miterlimit:10;}
	.st84{fill:#FFFFFF;stroke:#000000;stroke-width:0.25;stroke-miterlimit:10;}
	.st85{fill:none;stroke:#000000;stroke-width:0.5;stroke-miterlimit:10;}
	.st86{fill:#00FF00;stroke:#000000;stroke-width:0.25;stroke-miterlimit:10;}
	.st87{fill:#DDA97A;}
	.st88{fill:#EFC095;}
	.st89{fill:#FF80E4;}
	.st90{fill:#EDD7BE;}
	.st91{fill:#EDD7BE;stroke:#000000;stroke-width:0.25;stroke-miterlimit:10;}
	.st92{fill:none;stroke:#1A1A1A;stroke-width:0.25;stroke-linecap:round;stroke-miterlimit:10;}
	.st93{fill:#FF7B7B;}
	.st94{fill:#603813;}
	.st95{fill:#FFAA99;}
	.st96{clip-path:url(#SVGID_36_);}
	.st97{fill:#1A1A1A;}
	.st98{fill:none;stroke:#CCCCCC;stroke-width:0.25;stroke-linecap:round;stroke-miterlimit:10;}
	.st99{fill:#C1BFBD;}
	.st100{fill:#EA9A3B;}
	.st101{clip-path:url(#SVGID_38_);}
	.st102{fill:#FF3E3E;}
	.st103{fill:#AD0000;}
	.st104{opacity:0.2;clip-path:url(#SVGID_40_);fill:#FFFFFF;}
	.st105{opacity:0.2;clip-path:url(#SVGID_42_);fill:#FFFFFF;}
	.st106{fill:#3838FC;}
	.st107{fill:#E83434;}
	.st108{opacity:0.2;clip-path:url(#SVGID_44_);fill:#FFFFFF;}
	.st109{fill:none;stroke:#333333;stroke-width:0.2458;stroke-linecap:round;stroke-linejoin:round;stroke-miterlimit:10;}
	.st110{fill:none;stroke:#E6E6E6;stroke-width:0.25;stroke-linecap:round;stroke-linejoin:round;stroke-miterlimit:10;}
	.st111{opacity:0.1;}
	.st112{clip-path:url(#SVGID_46_);}
	.st113{fill:#F7D361;}
	.st114{clip-path:url(#SVGID_48_);}
	.st115{fill:#FFD366;}
	.st116{fill:#EDBE8E;}
</style>
<g id="Background">
	<circle class="st14" cx="15" cy="15" r="15"/>
</g>
<g id="PopCorn">
</g>
<g id="Pizza">
</g>
<g id="Burger">
</g>
<g id="Drink">
</g>
<g id="Ice_Cream">
	<path class="st19" d="M19.4,21.8h-8.7c-0.2,0-0.4-0.2-0.4-0.4v-4.5h9.6v4.5C19.8,21.6,19.6,21.8,19.4,21.8z"/>
	<path class="st61" d="M13.8,21.8v2.9c0,0.7,0.6,1.2,1.2,1.2h0c0.7,0,1.2-0.6,1.2-1.2v-2.9"/>
	<path class="st62" d="M15,16.6L15,16.6c-0.7,0-1.2,0.6-1.2,1.2v5.9c0,0.7,0.6,1.2,1.2,1.2h0c0.7,0,1.2-0.6,1.2-1.2v-5.9
		C16.3,17.2,15.7,16.6,15,16.6z"/>
	<path class="st63" d="M19.4,20.8h-8.7c-0.2,0-0.4-0.2-0.4-0.4V9.8C10.2,7.1,12.4,5,15,5h0c2.6,0,4.8,2.1,4.8,4.8v10.6
		C19.8,20.6,19.6,20.8,19.4,20.8z"/>
	<path class="st64" d="M19.4,20.8h-8.7c-0.2,0-0.4-0.2-0.4-0.4v-4.5h9.6v4.5C19.8,20.6,19.6,20.8,19.4,20.8z"/>
	<polyline class="st65" points="19.8,15.9 10.2,15.9 10.2,10.9 19.8,10.9 	"/>
	<path class="st66" d="M13,10.2L13,10.2c-0.6,0-1.1,0.5-1.1,1.1v9.4h2.3v-9.4C14.1,10.7,13.6,10.2,13,10.2z"/>
	<path class="st66" d="M17.1,10.2L17.1,10.2c-0.6,0-1.1,0.5-1.1,1.1v9.4h2.3v-9.4C18.2,10.7,17.7,10.2,17.1,10.2z"/>
	<g>
		<defs>
			<rect id="SVGID_23_" x="17.1" y="7.2" width="2.5" height="15"/>
		</defs>
		<clipPath id="SVGID_2_">
			<use xlink:href="#SVGID_23_"  style="overflow:visible;"/>
		</clipPath>
		<path style="opacity:5.000000e-02;clip-path:url(#SVGID_2_);" d="M17.1,10.2L17.1,10.2c-0.6,0-1.1,0.5-1.1,1.1v9.4h2.3v-9.4
			C18.2,10.7,17.7,10.2,17.1,10.2z"/>
	</g>
	<g>
		<defs>
			<rect id="SVGID_25_" x="13" y="7.2" width="2.5" height="15"/>
		</defs>
		<clipPath id="SVGID_4_">
			<use xlink:href="#SVGID_25_"  style="overflow:visible;"/>
		</clipPath>
		<path style="opacity:5.000000e-02;clip-path:url(#SVGID_4_);" d="M13,10.2L13,10.2c-0.6,0-1.1,0.5-1.1,1.1v9.4h2.3v-9.4
			C14.1,10.7,13.6,10.2,13,10.2z"/>
	</g>
	<g class="st19">
		<defs>
			<rect id="SVGID_31_" x="10.2" y="5" class="st19" width="4.8" height="20"/>
		</defs>
		<clipPath id="SVGID_6_">
			<use xlink:href="#SVGID_31_"  style="overflow:visible;"/>
		</clipPath>
		<path style="clip-path:url(#SVGID_6_);fill:#FFFFFF;" d="M15,5c-2.6,0-4.8,2.1-4.8,4.8v1.2v4.9v4.5v0c0,0.2,0.2,0.4,0.4,0.4h0h1.2
			h1.9v2.9c0,0.7,0.6,1.2,1.2,1.2c0.7,0,1.2-0.6,1.2-1.2v-2.9h1.9h1.2h0c0.2,0,0.4-0.2,0.4-0.4v0v-4.5v-4.9V9.8
			C19.8,7.1,17.6,5,15,5z"/>
	</g>
	<path class="st25" d="M19.8,12.7v7.7c0,0.2-0.2,0.4-0.4,0.4h-8.7c-0.2,0-0.4-0.2-0.4-0.4V9.8C10.2,7.1,12.4,5,15,5h0
		c2.6,0,4.8,2.1,4.8,4.8v1.7"/>
	<g>
		<g>
			<path class="st37" d="M19.8,12.3c0.2,0,0.2-0.3,0-0.3C19.6,12,19.6,12.3,19.8,12.3L19.8,12.3z"/>
		</g>
	</g>
	<path class="st25" d="M13.8,20.8v2.9c0,0.7,0.6,1.2,1.2,1.2h0c0.7,0,1.2-0.6,1.2-1.2v-2.9"/>
</g>
<g id="Alien">
</g>
<g id="Bear">
</g>
<g id="Chicken">
</g>
<g id="Deadpool">
</g>
<g id="Cpt_America">
</g>
<g id="Bat_Man">
</g>
<g id="Iron_Man">
</g>
<g id="Wolverine">
</g>
<g id="Assets">
</g>
</svg>
