<svg xmlns="http://www.w3.org/2000/svg" xmlns:xlink="http://www.w3.org/1999/xlink" viewBox="0 0 30 30"><defs><style>.aca27aad-dff6-44bc-87e9-035a30136f87,.b0913607-aa20-46a4-9fb7-f170d17e902f,.d06401f4-7643-44f7-ba64-e35036b5d13d{fill:none;}.dd0ece26-933c-4d59-a563-a9e22c9ac0a5{fill:#abefac;}.\35 6544d36-83aa-47f2-b65b-991c67bf9ec1{opacity:0.2;}.\37 94054c0-cde6-476d-a900-79166e9646a2{fill:red;}.\33 d27a7f0-910d-42fe-8360-73587c62be29{fill:#efcdb1;}.\33 f48f0ef-52e9-41c5-bd36-9c0cd633416a{fill:#c9af9b;}.\36 6a65fee-19ee-4686-8fd7-fef992c61161{fill:#f9d6b4;}.dadef6ea-cdad-494d-8f75-254d32b224d2{fill:#fff;}.d9e3e2f7-3e7d-4b5d-842d-23a80cf5d762{opacity:0.1;}.c2870f17-7983-4faf-a4d9-f1714c62c887{clip-path:url(#3c89dec1-6b2f-46fd-b329-be4f2d800be4);}.aca27aad-dff6-44bc-87e9-035a30136f87,.b0913607-aa20-46a4-9fb7-f170d17e902f{stroke:#fff;stroke-linejoin:round;stroke-width:0.25px;}.aca27aad-dff6-44bc-87e9-035a30136f87{stroke-linecap:round;}</style><clipPath id="3c89dec1-6b2f-46fd-b329-be4f2d800be4"><rect class="d06401f4-7643-44f7-ba64-e35036b5d13d" x="6.53" y="5.02" width="8.39" height="20"/></clipPath></defs><title>unnamed</title><g id="4237332a-28f8-448c-81d0-34db5ff094fe" data-name="Background"><circle class="dd0ece26-933c-4d59-a563-a9e22c9ac0a5" cx="15" cy="15.02" r="14.98"/></g><g id="0e267301-8477-4cf9-a3aa-d08616eae737" data-name="Mulan"><g class="56544d36-83aa-47f2-b65b-991c67bf9ec1"><path d="M21.65,12.34a6.89,6.89,0,0,0-4.32-2.8v0a.61.61,0,0,0-.3-.45,3,3,0,0,0,.05-.52A2.4,2.4,0,0,0,14.84,6a2.35,2.35,0,0,0-2.21,2.23l0-.05a.31.31,0,0,0,0-.09v.08h0v0a.45.45,0,0,1-.13.33s0,0,0,.05A.76.76,0,0,0,12,8.41a.45.45,0,0,1-.32-.13.23.23,0,0,0-.06-.07l.06.06h0a.47.47,0,0,1,.08.35.59.59,0,0,0,0,.29.2.2,0,0,0-.08,0,.41.41,0,0,1-.34.07l-.09,0,.08,0h0a.45.45,0,0,1,.26.24.86.86,0,0,0,.37.34c-3.34.9-5.41,3.6-5.41,7.82,0,5.28,2.72,8.5,7.62,8.5s9.1-2.26,9.1-8.33a12.59,12.59,0,0,0-1.05-4.14"/><path d="M12.61,8.17v-.1A.67.67,0,0,0,12.61,8.17Z"/></g><ellipse cx="14.84" cy="7.53" rx="2.24" ry="2.53"/><ellipse class="794054c0-cde6-476d-a900-79166e9646a2" cx="14.84" cy="8.5" rx="2.5" ry="0.97"/><path d="M14.76,8.27c-4.9,0-8.12,2.9-8.12,8.17s2.72,8.5,7.62,8.5,9.1-2.26,9.1-8.33C22.77,10.68,19.65,8.27,14.76,8.27Zm-.19,16.06A7.62,7.62,0,0,1,8.8,21.84a3.3,3.3,0,0,1,1.32-4.79,13.5,13.5,0,0,0,4.14-4.61s.62,2.27-1,3.2a3.85,3.85,0,0,0-1.87,1.81,4.23,4.23,0,0,1,1.92-1.67c1.85-1,1.69-3.5,1.69-3.5s7,2.05,6.57,5.72A6.65,6.65,0,0,1,14.57,24.33Z"/><circle class="3d27a7f0-910d-42fe-8360-73587c62be29" cx="20.94" cy="19" r="1.72"/><circle class="3f48f0ef-52e9-41c5-bd36-9c0cd633416a" cx="20.94" cy="19" r="1.25"/><path class="66a65fee-19ee-4686-8fd7-fef992c61161" d="M15.43,24.31l.33,0,.4-.07.44-.12a1.8,1.8,0,0,0,.22-.06,6.81,6.81,0,0,0,2.93-1.53A6.12,6.12,0,0,0,21.52,18c.15-4.18-6.57-5.72-6.57-5.72s.16,2.46-1.69,3.5a4.23,4.23,0,0,0-1.92,1.67,3.85,3.85,0,0,1,1.87-1.81c1.67-.93,1-3.2,1-3.2a13.5,13.5,0,0,1-4.14,4.61C7.68,18.49,8,21,8.77,21.74A7,7,0,0,0,13,24.26l.19,0,.44.06c.25,0,.49,0,.74,0s.47,0,.69,0Z"/><ellipse cx="17.84" cy="19.7" rx="0.94" ry="1.74"/><ellipse cx="11.85" cy="19.7" rx="0.94" ry="1.74"/><circle class="dadef6ea-cdad-494d-8f75-254d32b224d2" cx="12.22" cy="20.32" r="0.46"/><circle class="dadef6ea-cdad-494d-8f75-254d32b224d2" cx="18.21" cy="20.32" r="0.46"/><path class="dadef6ea-cdad-494d-8f75-254d32b224d2" d="M12.59,7.67h0l0,0h0A.87.87,0,0,0,12,7.41a.45.45,0,0,1-.32-.13.23.23,0,0,0-.06-.07l.06.06h0a.47.47,0,0,1,.08.35.83.83,0,0,0,.12.5l0,.07v0h0s0,0,0,0a.42.42,0,1,0,.64-.54Z"/><path class="dadef6ea-cdad-494d-8f75-254d32b224d2" d="M11.7,7.27l-.06-.07Z"/><path class="dadef6ea-cdad-494d-8f75-254d32b224d2" d="M13.11,8h0V8h0a.88.88,0,0,0-.3-.48.46.46,0,0,1-.19-.29.31.31,0,0,0,0-.09v.08h0v0a.45.45,0,0,1-.13.33A.84.84,0,0,0,12.3,8a.19.19,0,0,0,0,.08v0h0v0A.42.42,0,0,0,13.12,8S13.12,8,13.11,8Z"/><path class="dadef6ea-cdad-494d-8f75-254d32b224d2" d="M12.61,7.17v-.1A.67.67,0,0,0,12.61,7.17Z"/><path class="dadef6ea-cdad-494d-8f75-254d32b224d2" d="M12.35,7.86h0a1,1,0,0,0-.55.1.41.41,0,0,1-.34.07l-.09,0,.08,0h0a.45.45,0,0,1,.26.24.88.88,0,0,0,.38.34l.07,0h0a.42.42,0,0,0,.22-.81Z"/><path class="dadef6ea-cdad-494d-8f75-254d32b224d2" d="M11.4,8l-.09,0Z"/><g class="d9e3e2f7-3e7d-4b5d-842d-23a80cf5d762"><g class="c2870f17-7983-4faf-a4d9-f1714c62c887"><path class="dadef6ea-cdad-494d-8f75-254d32b224d2" d="M17.43,8.59s0,0,0,0a.58.58,0,0,0-.3-.45,3,3,0,0,0,.05-.52A2.4,2.4,0,0,0,15,5.05a2.36,2.36,0,0,0-2.22,2.23l0,0a.31.31,0,0,0,0-.09v.08h0v0a.44.44,0,0,1-.13.33s0,0,0,0a.84.84,0,0,0-.43-.16.45.45,0,0,1-.32-.13l-.06-.07.06.07h0l0,0a.43.43,0,0,1,.08.34.58.58,0,0,0,0,.29l-.08,0a.46.46,0,0,1-.34.08l-.09,0,.08,0h0a.45.45,0,0,1,.26.24.86.86,0,0,0,.37.34c-3.34.91-5.41,3.6-5.41,7.83,0,5.27,2.72,8.49,7.62,8.49s9.1-2.26,9.1-8.33C23,11.85,20.84,9.36,17.43,8.59Zm-8,9.11h0Z"/><path class="dadef6ea-cdad-494d-8f75-254d32b224d2" d="M12.69,7.19v-.1A.67.67,0,0,0,12.69,7.19Z"/></g></g><path class="aca27aad-dff6-44bc-87e9-035a30136f87" d="M21.65,11.34a6.89,6.89,0,0,0-4.32-2.8v0a.61.61,0,0,0-.3-.45,3,3,0,0,0,.05-.52A2.4,2.4,0,0,0,14.84,5a2.35,2.35,0,0,0-2.21,2.23.17.17,0,0,1,0-.05.31.31,0,0,0,0-.09v.08h0v0a.45.45,0,0,1-.13.33s0,0,0,.05A.76.76,0,0,0,12,7.41a.45.45,0,0,1-.32-.13.23.23,0,0,0-.06-.07l.06.06h0a.47.47,0,0,1,.08.35.59.59,0,0,0,0,.29l-.08,0a.41.41,0,0,1-.34.07l-.09,0,.08,0h0a.45.45,0,0,1,.26.24.86.86,0,0,0,.37.34c-3.34.9-5.41,3.6-5.41,7.82,0,5.28,2.72,8.5,7.62,8.5s9.1-2.26,9.1-8.33a12.59,12.59,0,0,0-1.05-4.14"/><path class="b0913607-aa20-46a4-9fb7-f170d17e902f" d="M12.61,7.17v-.1A.67.67,0,0,0,12.61,7.17Z"/><path class="dadef6ea-cdad-494d-8f75-254d32b224d2" d="M22,12a.13.13,0,1,0,0-.25A.13.13,0,0,0,22,12Z"/></g></svg>