<?xml version="1.0" encoding="utf-8"?>
<!-- Generator: Adobe Illustrator 22.1.0, SVG Export Plug-In . SVG Version: 6.00 Build 0)  -->
<svg version="1.1" xmlns="http://www.w3.org/2000/svg" xmlns:xlink="http://www.w3.org/1999/xlink" x="0px" y="0px"
	 viewBox="0 0 30 30" style="enable-background:new 0 0 30 30;" xml:space="preserve">
<style type="text/css">
	.st0{fill:#F7E07F;}
	.st1{fill:#FF3333;}
	.st2{fill:#FFAF99;}
	.st3{fill:#FF855F;}
	.st4{fill:#F7AA63;}
	.st5{fill:#B26212;}
	.st6{fill:#6CD1F4;}
	.st7{fill:#EDA9E4;}
	.st8{fill:#B994EA;}
	.st9{fill:#A9E0FF;}
	.st10{fill:#C69C6D;}
	.st11{fill:#F2F2F2;}
	.st12{fill:#E6E6E6;}
	.st13{fill:#F9DDC0;}
	.st14{fill:#CCFFFE;}
	.st15{fill:#FFB199;}
	.st16{fill:#808080;}
	.st17{fill:#FF5A5A;}
	.st18{fill:#FF8C69;}
	.st19{opacity:0.2;}
	.st20{fill:#FBB03B;}
	.st21{clip-path:url(#SVGID_2_);}
	.st22{fill:#FFFFFF;}
	.st23{clip-path:url(#SVGID_2_);fill:none;}
	.st24{clip-path:url(#SVGID_4_);fill:#FFFFFF;}
	.st25{fill:none;stroke:#333333;stroke-width:0.25;stroke-linecap:round;stroke-linejoin:round;stroke-miterlimit:10;}
	.st26{fill:none;stroke:#000000;stroke-width:0.25;stroke-linejoin:round;stroke-miterlimit:10;}
	.st27{clip-path:url(#SVGID_6_);}
	.st28{clip-path:url(#SVGID_6_);fill:none;}
	.st29{opacity:5.000000e-02;}
	.st30{fill:none;stroke:#000000;stroke-width:0.25;stroke-miterlimit:10;}
	.st31{opacity:0.8;fill:none;stroke:#FFFFFF;stroke-width:0.25;stroke-linecap:round;stroke-miterlimit:10;}
	.st32{fill:none;stroke:#FFFFFF;stroke-width:0.25;stroke-linecap:round;stroke-miterlimit:10;}
	.st33{clip-path:url(#SVGID_8_);}
	.st34{clip-path:url(#SVGID_8_);fill:none;}
	.st35{fill:#F9AAE4;}
	.st36{fill:none;stroke:#000000;stroke-width:0.5422;stroke-linecap:round;stroke-linejoin:round;stroke-miterlimit:10;}
	.st37{fill:#333333;}
	.st38{fill:#F9B964;}
	.st39{clip-path:url(#SVGID_10_);}
	.st40{fill:#FC6738;}
	.st41{clip-path:url(#SVGID_12_);}
	.st42{clip-path:url(#SVGID_14_);}
	.st43{fill:none;stroke:#000000;stroke-width:0.3324;stroke-linecap:round;stroke-linejoin:round;stroke-miterlimit:10;}
	.st44{clip-path:url(#SVGID_16_);fill:#FFFFFF;}
	.st45{fill:#DB0000;}
	.st46{fill:#FFC373;}
	.st47{fill:#7AD383;}
	.st48{fill:#39B54A;}
	.st49{fill:#A67C52;}
	.st50{fill:#FBAE17;}
	.st51{opacity:0.8;fill:none;stroke:#FFFFFF;stroke-width:0.2495;stroke-linecap:round;stroke-miterlimit:10;}
	.st52{fill:none;stroke:#000000;stroke-width:0.25;stroke-linecap:round;stroke-linejoin:round;stroke-miterlimit:10;}
	.st53{fill:none;stroke:#000000;stroke-width:0.3041;stroke-linecap:round;stroke-linejoin:round;stroke-miterlimit:10;}
	.st54{clip-path:url(#SVGID_18_);fill:#FFFFFF;}
	.st55{fill:none;stroke:#000000;stroke-width:0.3018;stroke-miterlimit:10;}
	.st56{fill:none;stroke:#000000;stroke-width:0.2593;stroke-linecap:round;stroke-miterlimit:10;}
	.st57{fill:#A5400E;}
	.st58{fill:none;stroke:#000000;stroke-width:0.2653;stroke-miterlimit:10;}
	.st59{fill:#FF0000;}
	.st60{fill:none;stroke:#000000;stroke-width:0.2412;stroke-linecap:round;stroke-linejoin:round;stroke-miterlimit:10;}
	.st61{opacity:0.2;stroke:#333333;stroke-width:0.25;stroke-linecap:round;stroke-linejoin:round;stroke-miterlimit:10;}
	.st62{fill:#FFC48A;}
	.st63{fill:#91E291;}
	.st64{fill:#FF8D8D;}
	.st65{fill:#73FFFB;}
	.st66{opacity:0.15;}
	.st67{opacity:5.000000e-02;clip-path:url(#SVGID_20_);}
	.st68{opacity:5.000000e-02;clip-path:url(#SVGID_22_);}
	.st69{opacity:0.8;fill:#EDA9E4;stroke:#FFFFFF;stroke-width:0.2;stroke-linecap:round;stroke-miterlimit:10;}
	.st70{opacity:5.000000e-02;clip-path:url(#SVGID_24_);}
	.st71{opacity:5.000000e-02;clip-path:url(#SVGID_26_);}
	.st72{opacity:5.000000e-02;clip-path:url(#SVGID_28_);}
	.st73{opacity:5.000000e-02;clip-path:url(#SVGID_30_);}
	.st74{opacity:0.8;fill:none;stroke:#FFFFFF;stroke-width:0.4184;stroke-linecap:round;stroke-miterlimit:10;}
	.st75{clip-path:url(#SVGID_32_);fill:#FFFFFF;}
	.st76{fill:#FBAE17;stroke:#000000;stroke-width:0.25;stroke-miterlimit:10;}
	.st77{fill:#FCEE21;stroke:#000000;stroke-width:0.25;stroke-miterlimit:10;}
	.st78{fill:#006837;stroke:#000000;stroke-width:0.25;stroke-miterlimit:10;}
	.st79{fill:#22B573;stroke:#000000;stroke-width:0.25;stroke-miterlimit:10;}
	.st80{fill:#CCFFE7;stroke:#000000;stroke-width:0.25;stroke-miterlimit:10;}
	.st81{clip-path:url(#SVGID_34_);fill:#ED1C24;stroke:#000000;stroke-width:0.25;stroke-miterlimit:10;}
	.st82{fill:#FFFF00;stroke:#000000;stroke-width:0.25;stroke-miterlimit:10;}
	.st83{fill:#ED1C24;stroke:#000000;stroke-width:0.25;stroke-miterlimit:10;}
	.st84{fill:#FFFFFF;stroke:#000000;stroke-width:0.25;stroke-miterlimit:10;}
	.st85{fill:none;stroke:#000000;stroke-width:0.5;stroke-miterlimit:10;}
	.st86{fill:#00FF00;stroke:#000000;stroke-width:0.25;stroke-miterlimit:10;}
	.st87{fill:#DDA97A;}
	.st88{fill:#EFC095;}
	.st89{fill:#FF80E4;}
	.st90{fill:#EDD7BE;}
	.st91{fill:#EDD7BE;stroke:#000000;stroke-width:0.25;stroke-miterlimit:10;}
	.st92{fill:none;stroke:#1A1A1A;stroke-width:0.25;stroke-linecap:round;stroke-miterlimit:10;}
	.st93{fill:#FF7B7B;}
	.st94{fill:#603813;}
	.st95{fill:#FFAA99;}
	.st96{clip-path:url(#SVGID_36_);}
	.st97{fill:#1A1A1A;}
	.st98{fill:none;stroke:#CCCCCC;stroke-width:0.25;stroke-linecap:round;stroke-miterlimit:10;}
	.st99{fill:#C1BFBD;}
	.st100{fill:#EA9A3B;}
	.st101{clip-path:url(#SVGID_38_);}
	.st102{fill:#FF3E3E;}
	.st103{fill:#AD0000;}
	.st104{opacity:0.2;clip-path:url(#SVGID_40_);fill:#FFFFFF;}
	.st105{opacity:0.2;clip-path:url(#SVGID_42_);fill:#FFFFFF;}
	.st106{fill:#3838FC;}
	.st107{fill:#E83434;}
	.st108{opacity:0.2;clip-path:url(#SVGID_44_);fill:#FFFFFF;}
	.st109{fill:none;stroke:#333333;stroke-width:0.2458;stroke-linecap:round;stroke-linejoin:round;stroke-miterlimit:10;}
	.st110{fill:none;stroke:#E6E6E6;stroke-width:0.25;stroke-linecap:round;stroke-linejoin:round;stroke-miterlimit:10;}
	.st111{opacity:0.1;}
	.st112{clip-path:url(#SVGID_46_);}
	.st113{fill:#F7D361;}
	.st114{clip-path:url(#SVGID_48_);}
	.st115{fill:#FFD366;}
	.st116{fill:#EDBE8E;}
</style>
<g id="Background">
	<circle class="st0" cx="15" cy="15" r="15"/>
</g>
<g id="PopCorn">
	<path class="st19" d="M20.8,13.1c0.1-0.2,0.2-0.4,0.2-0.7c0-0.7-0.6-1.3-1.3-1.3c-0.3,0-0.6,0.1-0.8,0.3c0.3-0.3,0.4-0.6,0.4-1
		c0-0.8-0.7-1.5-1.5-1.5c0,0,0,0,0,0c0-0.1,0-0.1,0-0.2c0-0.6-0.4-1-1-1.2c0-0.1,0-0.1,0-0.2c0-0.7-0.5-1.2-1.2-1.2
		c-0.7,0-1.2,0.5-1.2,1.2c0,0.2,0,0.3,0.1,0.5c-0.9,0.1-1.7,0.8-1.7,1.7c-0.7-0.6-1.8-0.6-2.5,0.1C9.9,10.3,9.8,11,10,11.6
		c-0.5,0.1-0.9,0.6-0.9,1.1c0,0.1,0,0.2,0.1,0.4c-0.2,0.2-0.4,0.5-0.4,0.8L10,24.5c0.1,0.5,0.5,0.8,1,0.8H19c0.5,0,1-0.4,1-0.8
		l1.2-10.6C21.2,13.6,21.1,13.3,20.8,13.1z"/>
	<path id="Outline_16_" class="st20" d="M19.8,10.4c-0.3,0-0.6,0.1-0.8,0.3c0.3-0.3,0.4-0.6,0.4-1c0-0.8-0.7-1.5-1.5-1.5
		c0,0,0,0,0,0c0-0.1,0-0.1,0-0.2c0-0.6-0.4-1-1-1.2c0-0.1,0-0.1,0-0.2c0-0.7-0.5-1.2-1.2-1.2S14.5,6,14.5,6.7c0,0.2,0,0.3,0.1,0.5
		c-0.9,0.1-1.7,0.8-1.7,1.7c-0.7-0.6-1.8-0.6-2.5,0.1c-0.5,0.5-0.6,1.2-0.4,1.8c-0.5,0.1-0.9,0.6-0.9,1.1c0,0.7,0.5,1.2,1.2,1.2
		c0.6,0,1.1-0.5,1.2-1.1c0.1,0,0.2,0.1,0.3,0.1c0.1,1,0.9,1.8,2,1.8c0.6,0,1.2-0.3,1.6-0.8c0.4,0.4,0.9,0.7,1.5,0.7
		c0.9,0,1.7-0.7,2-1.5c0.2,0.3,0.6,0.6,1,0.6c0.7,0,1.3-0.6,1.3-1.3C21,10.9,20.5,10.4,19.8,10.4z"/>
	<g>
		<defs>
			<path id="SVGID_1_" d="M19,24.5H11c-0.5,0-1-0.4-1-0.8L8.8,13.1c-0.1-0.5,0.4-1,1-1h10.4c0.6,0,1.1,0.5,1,1L20,23.7
				C20,24.2,19.6,24.5,19,24.5z"/>
		</defs>
		<clipPath id="SVGID_2_">
			<use xlink:href="#SVGID_1_"  style="overflow:visible;"/>
		</clipPath>
		<g class="st21">
			<rect x="8.8" y="11.7" class="st1" width="1.9" height="12.9"/>
			<rect x="10.7" y="11.7" class="st22" width="1.9" height="12.9"/>
			<rect x="12.6" y="11.7" class="st1" width="1.9" height="12.9"/>
			<rect x="14.5" y="11.7" class="st22" width="1.9" height="12.9"/>
			<rect x="16.4" y="11.7" class="st1" width="1.9" height="12.9"/>
			<rect x="18.3" y="11.7" class="st22" width="1.9" height="12.9"/>
			<rect x="20.2" y="11.7" class="st1" width="1.9" height="12.9"/>
		</g>
		<path class="st23" d="M19,24.5H11c-0.5,0-1-0.4-1-0.8L8.8,13.1c-0.1-0.5,0.4-1,1-1h10.4c0.6,0,1.1,0.5,1,1L20,23.7
			C20,24.2,19.6,24.5,19,24.5z"/>
	</g>
	<g class="st19">
		<defs>
			<rect id="SVGID_3_" x="8.8" y="2.4" class="st19" width="6.2" height="23"/>
		</defs>
		<clipPath id="SVGID_4_">
			<use xlink:href="#SVGID_3_"  style="overflow:visible;"/>
		</clipPath>
		<path class="st24" d="M20.9,12.3c0.1-0.2,0.2-0.4,0.2-0.7c0-0.7-0.6-1.3-1.3-1.3c-0.3,0-0.6,0.1-0.8,0.3c0.3-0.3,0.4-0.6,0.4-1
			c0-0.8-0.7-1.5-1.5-1.5c0,0,0,0,0,0c0-0.1,0-0.1,0-0.2c0-0.6-0.4-1-1-1.2c0-0.1,0-0.1,0-0.2c0-0.7-0.5-1.2-1.2-1.2
			c-0.7,0-1.2,0.5-1.2,1.2c0,0.2,0,0.3,0.1,0.5C13.7,7.3,13,8,12.9,8.9c-0.7-0.6-1.8-0.6-2.5,0.1C10,9.5,9.8,10.2,10,10.8
			c-0.5,0.1-0.9,0.6-0.9,1.1c0,0.1,0,0.2,0.1,0.4c-0.2,0.2-0.4,0.5-0.4,0.8L10,23.7c0.1,0.5,0.5,0.8,1,0.8h8.1c0.5,0,1-0.4,1-0.8
			l1.2-10.6C21.3,12.8,21.1,12.5,20.9,12.3z M11.5,12.1L11.5,12.1C11.5,12.1,11.5,12.1,11.5,12.1C11.5,12.1,11.5,12.1,11.5,12.1z"/>
	</g>
	<path id="Outline_15_" class="st25" d="M20.8,12.3c0.1-0.2,0.2-0.4,0.2-0.7c0-0.7-0.6-1.3-1.3-1.3c-0.3,0-0.6,0.1-0.8,0.3
		c0.3-0.3,0.4-0.6,0.4-1c0-0.2,0-0.4-0.1-0.6 M18.7,8.5c-0.2-0.2-0.5-0.3-0.8-0.3c0,0,0,0,0,0c0-0.1,0-0.1,0-0.2c0-0.6-0.4-1-1-1.2
		c0-0.1,0-0.1,0-0.2c0-0.7-0.5-1.2-1.2-1.2S14.5,6,14.5,6.7c0,0.2,0,0.3,0.1,0.5c-0.9,0.1-1.7,0.8-1.7,1.7c-0.7-0.6-1.8-0.6-2.5,0.1
		c-0.5,0.5-0.6,1.2-0.4,1.8c-0.5,0.1-0.9,0.6-0.9,1.1c0,0.1,0,0.2,0,0.3"/>
	<circle class="st22" cx="11.8" cy="16.6" r="0.2"/>
	<circle class="st22" cx="19" cy="16.6" r="0.2"/>
	<g>
		<g>
			<path class="st37" d="M19,8.9c0.2,0,0.2-0.3,0-0.3C18.8,8.7,18.8,8.9,19,8.9L19,8.9z"/>
		</g>
	</g>
	<path id="Outline_14_" class="st25" d="M19,24.5H11c-0.5,0-1-0.4-1-0.8L8.8,13.1c-0.1-0.5,0.4-1,1-1h10.4c0.6,0,1.1,0.5,1,1
		L20,23.7C20,24.2,19.6,24.5,19,24.5z"/>
	<path id="Outline_13_" class="st29" d="M19,24.5H11c-0.5,0-1-0.4-1-0.8L8.8,13.1c-0.1-0.5,0.4-1,1-1h10.4c0.6,0,1.1,0.5,1,1
		L20,23.7C20,24.2,19.6,24.5,19,24.5z"/>
</g>
<g id="Pizza">
</g>
<g id="Burger">
</g>
<g id="Drink">
</g>
<g id="Ice_Cream">
</g>
<g id="Alien">
</g>
<g id="Bear">
</g>
<g id="Chicken">
</g>
<g id="Deadpool">
</g>
<g id="Cpt_America">
</g>
<g id="Bat_Man">
</g>
<g id="Iron_Man">
</g>
<g id="Wolverine">
</g>
<g id="Assets">
</g>
</svg>
