<svg xmlns="http://www.w3.org/2000/svg" xmlns:xlink="http://www.w3.org/1999/xlink" viewBox="0 0 30 30"><defs><style>.\32 2c5e864-8db9-4d0f-ad97-4e2d282ecd9e,.cd89be1b-ce71-4787-a536-dff47c89e8c2,.ee2fab02-7304-4828-b366-e49e99c0e4cf{fill:none;}.a6c84c1d-1899-4001-bcff-b2b686a94fb5{fill:#ff97e9;}.e99598c4-18be-44d9-a967-6b8ad28072a1{opacity:0.2;}.c061d8f5-4b59-4d3d-aebf-a1e0ecfa65dd{fill:#f4d419;}.\39 a3909ad-a795-4fa7-911b-3373cb812549{fill:red;}.cd89be1b-ce71-4787-a536-dff47c89e8c2{stroke:#fff;stroke-miterlimit:10;opacity:0.8;}.\32 2c5e864-8db9-4d0f-ad97-4e2d282ecd9e,.cd89be1b-ce71-4787-a536-dff47c89e8c2,.f91ec0bb-de67-4349-aa30-1c6b44764c0e{stroke-linecap:round;stroke-width:0.25px;}.\30 d910cd4-2f2d-4246-8c89-6ee925e2fbe1{fill:#fcd2bb;}.a9f3e00d-7189-4740-ba92-59219bf6ea8b,.f91ec0bb-de67-4349-aa30-1c6b44764c0e{fill:#fee42a;}.\32 2c5e864-8db9-4d0f-ad97-4e2d282ecd9e,.f91ec0bb-de67-4349-aa30-1c6b44764c0e{stroke:#333;stroke-linejoin:round;}.\38 343d2a1-c084-4595-af98-7daf16c56d6f{fill:#fbb03b;}.\38 adaf79f-03e8-4d6e-8189-6f149f887aac{fill:blue;}.\35 f1b895f-00b4-4cd2-b171-31e917a1391a{fill:#fff;}.\34 f026b3d-fdd9-492e-872d-713a592cf1be{clip-path:url(#d99965b3-f846-4e50-889f-b06310030570);}.\32 08dbde3-e662-4a81-a586-fceedd90a207{fill:#edc500;}.cb44f1de-dc97-42f5-bf21-1b9bb59513cb{fill:#333;}</style><clipPath id="d99965b3-f846-4e50-889f-b06310030570"><rect class="ee2fab02-7304-4828-b366-e49e99c0e4cf" x="4.4" y="4.87" width="10.58" height="19.91"/></clipPath></defs><title>unnamed</title><g id="812f6782-51a0-4053-a13c-54599909e0ff" data-name="Background"><circle class="a6c84c1d-1899-4001-bcff-b2b686a94fb5" cx="15" cy="15.02" r="14.98"/></g><g id="b41d1c3e-b94d-4388-a630-1b7964adf2e0" data-name="Sailormoon"><path class="e99598c4-18be-44d9-a967-6b8ad28072a1" d="M24.49,19.58a49.24,49.24,0,0,1-2.38-8.34A2.51,2.51,0,1,0,19.43,7.4,4.78,4.78,0,0,0,15,7.51a4.83,4.83,0,0,0-4.45-.12,2.5,2.5,0,1,0-2.67,3.83,50.09,50.09,0,0,1-2.39,8.36A5.18,5.18,0,0,0,5,22.31a3.66,3.66,0,0,0,1.17,2.31,6.41,6.41,0,0,0,6.09.66s1.25-.66,1.38-1.47c0,0-4.47,3.48-5.63-1.2a7.38,7.38,0,0,1-.12-2.77c.12-.88.25-1.68.39-2.43a2.68,2.68,0,0,0,.07.27c0,.06,0,.12,0,.18a4.93,4.93,0,0,0,.19.54l0,.08q.12.29.27.57v0a6.8,6.8,0,0,0,1.14,1.56h0a6.86,6.86,0,0,0,11-1.57v0q.15-.29.27-.57l0-.08a4.93,4.93,0,0,0,.19-.54c0-.06,0-.12.05-.18l.06-.25c.14.74.27,1.54.39,2.41a7.38,7.38,0,0,1-.12,2.77c-1.16,4.68-5.63,1.2-5.63,1.2.13.81,1.38,1.47,1.38,1.47a6.4,6.4,0,0,0,6.09-.66,3.61,3.61,0,0,0,1.17-2.31A5.18,5.18,0,0,0,24.49,19.58Z"/><circle class="c061d8f5-4b59-4d3d-aebf-a1e0ecfa65dd" cx="21.53" cy="7.78" r="2.52"/><circle class="9a3909ad-a795-4fa7-911b-3373cb812549" cx="21.53" cy="7.78" r="1.33"/><path class="cd89be1b-ce71-4787-a536-dff47c89e8c2" d="M22.55,7.63s-.55-1.41-1.66-.4"/><circle class="c061d8f5-4b59-4d3d-aebf-a1e0ecfa65dd" cx="8.49" cy="7.78" r="2.5"/><circle class="9a3909ad-a795-4fa7-911b-3373cb812549" cx="8.49" cy="7.78" r="1.32"/><path class="cd89be1b-ce71-4787-a536-dff47c89e8c2" d="M9.06,7S7.68,6.4,7.6,7.89"/><circle class="0d910cd4-2f2d-4246-8c89-6ee925e2fbe1" cx="15" cy="14.83" r="6.86"/><path class="e99598c4-18be-44d9-a967-6b8ad28072a1" d="M21.86,15.1A6.86,6.86,0,1,0,10.1,19.89a5.68,5.68,0,0,1,.18-6.13,1.73,1.73,0,0,0,.56,1.41,1.93,1.93,0,0,1,.26-1.84,2,2,0,0,0,1.84,1.14,1.66,1.66,0,0,0,.32,0A1.43,1.43,0,0,1,12.13,13c-.08-1.61,2.73-1,2.87-.31.14-.65,2.95-1.3,2.88.31a1.44,1.44,0,0,1-1.14,1.4,1.66,1.66,0,0,0,.32,0,2.06,2.06,0,0,0,1.77-1,1.87,1.87,0,0,1,.22,1.64,1.85,1.85,0,0,0,.39-1.71,5.68,5.68,0,0,1,.46,6.5A6.84,6.84,0,0,0,21.86,15.1ZM15,12.27h0s0,.09,0,.14S15,12.31,15,12.27Z"/><path class="f91ec0bb-de67-4349-aa30-1c6b44764c0e" d="M21.86,14.83A6.86,6.86,0,1,0,10.1,19.62a5.68,5.68,0,0,1,.18-6.13,1.73,1.73,0,0,0,.56,1.41,1.93,1.93,0,0,1,.26-1.84,2,2,0,0,0,1.84,1.14,1.66,1.66,0,0,0,.32,0,1.44,1.44,0,0,1-1.13-1.41c-.08-1.61,2.73-.95,2.87-.3.14-.65,2.95-1.31,2.88.3a1.45,1.45,0,0,1-1.14,1.41,1.66,1.66,0,0,0,.32,0,2.06,2.06,0,0,0,1.77-1,1.87,1.87,0,0,1,.22,1.64,1.85,1.85,0,0,0,.39-1.71,5.68,5.68,0,0,1,.46,6.5A6.84,6.84,0,0,0,21.86,14.83ZM15,12h0s0,.09,0,.14S15,12,15,12Z"/><path class="a9f3e00d-7189-4740-ba92-59219bf6ea8b" d="M24.5,18.56A51.42,51.42,0,0,1,22,9.78l0-.06A2,2,0,0,0,22,9.51h0c-.36-1-2.24-5.18-7-3V8.68l5.51,2.93a43.58,43.58,0,0,1,1.55,7.2,7.42,7.42,0,0,1-.12,2.78c-1.16,4.68-5.62,1.2-5.62,1.2.12.81,1.37,1.47,1.37,1.47a6.4,6.4,0,0,0,6.09-.66A3.67,3.67,0,0,0,25,21.29,5.28,5.28,0,0,0,24.5,18.56Z"/><path class="a9f3e00d-7189-4740-ba92-59219bf6ea8b" d="M8,9.51a51.91,51.91,0,0,1-2.52,9,5.18,5.18,0,0,0-.44,2.73A3.66,3.66,0,0,0,6.22,23.6a6.41,6.41,0,0,0,6.09.66s1.25-.66,1.38-1.47c0,0-4.47,3.48-5.63-1.2a7.63,7.63,0,0,1-.12-2.78,35.88,35.88,0,0,1,2-8.57Z"/><path class="a9f3e00d-7189-4740-ba92-59219bf6ea8b" d="M7.94,9.72S9.64,4.06,15,6.49V8.68L8.76,12Z"/><path class="8343d2a1-c084-4595-af98-7daf16c56d6f" d="M15,13.72a.36.36,0,0,1-.32-.2.34.34,0,0,0,0,.17.38.38,0,0,0,.75,0,.34.34,0,0,0-.05-.17A.36.36,0,0,1,15,13.72Z"/><ellipse class="8adaf79f-03e8-4d6e-8189-6f149f887aac" cx="12.33" cy="17.33" rx="1.05" ry="1.53"/><ellipse class="5f1b895f-00b4-4cd2-b171-31e917a1391a" cx="12.97" cy="17.78" rx="0.35" ry="0.32"/><ellipse class="8adaf79f-03e8-4d6e-8189-6f149f887aac" cx="17.7" cy="17.33" rx="1.05" ry="1.53"/><ellipse class="5f1b895f-00b4-4cd2-b171-31e917a1391a" cx="18.34" cy="17.78" rx="0.35" ry="0.32"/><g class="e99598c4-18be-44d9-a967-6b8ad28072a1"><g class="4f026b3d-fdd9-492e-872d-713a592cf1be"><path class="5f1b895f-00b4-4cd2-b171-31e917a1391a" d="M24.49,18.61a49,49,0,0,1-2.38-8.35,2.51,2.51,0,1,0-2.68-3.84A4.76,4.76,0,0,0,15,6.54a4.77,4.77,0,0,0-4.45-.12,2.5,2.5,0,1,0-2.67,3.82,50.42,50.42,0,0,1-2.39,8.37A5.14,5.14,0,0,0,5,21.34a3.66,3.66,0,0,0,1.17,2.31,6.4,6.4,0,0,0,6.09.65s1.25-.65,1.38-1.46c0,0-4.47,3.48-5.63-1.2a7.44,7.44,0,0,1-.12-2.78c.12-.88.25-1.68.39-2.42a2.68,2.68,0,0,0,.07.27c0,.06,0,.12,0,.18s.12.36.19.54l0,.08a5.77,5.77,0,0,0,.27.56v0a7.27,7.27,0,0,0,1.14,1.56h0A6.85,6.85,0,0,0,21,18.1v0a5.77,5.77,0,0,0,.27-.56l0-.08c.07-.18.14-.36.19-.54s0-.12.05-.18l.06-.26c.14.74.27,1.54.39,2.41a7.44,7.44,0,0,1-.12,2.78c-1.16,4.68-5.63,1.2-5.63,1.2.13.81,1.38,1.46,1.38,1.46a6.4,6.4,0,0,0,6.09-.65,3.61,3.61,0,0,0,1.17-2.31A5.14,5.14,0,0,0,24.49,18.61Z"/></g></g><path class="208dbde3-e662-4a81-a586-fceedd90a207" d="M8.32,16.77a3.52,3.52,0,0,1-.2-1.29,2,2,0,0,1,.37-1.25,2.76,2.76,0,0,0-.1.63c0,.21,0,.42,0,.63C8.34,15.91,8.37,16.33,8.32,16.77Z"/><path class="208dbde3-e662-4a81-a586-fceedd90a207" d="M21.76,16.77c0-.44,0-.86,0-1.28q0-.32,0-.63a3.42,3.42,0,0,0-.09-.63A2.13,2.13,0,0,1,22,15.48,3.75,3.75,0,0,1,21.76,16.77Z"/><path class="22c5e864-8db9-4d0f-ad97-4e2d282ecd9e" d="M22.58,12.46c-.21-.89-.37-1.64-.47-2.15a2.51,2.51,0,1,0-2.68-3.84A4.78,4.78,0,0,0,15,6.58a4.83,4.83,0,0,0-4.45-.12,2.5,2.5,0,1,0-2.67,3.83,50.09,50.09,0,0,1-2.39,8.36A5.2,5.2,0,0,0,5,21.39a3.66,3.66,0,0,0,1.17,2.3,6.41,6.41,0,0,0,6.09.66s1.25-.66,1.38-1.47c0,0-4.47,3.48-5.63-1.2a7.38,7.38,0,0,1-.12-2.77c.12-.88.25-1.68.39-2.43a2.68,2.68,0,0,0,.07.27c0,.06,0,.12,0,.18a4.93,4.93,0,0,0,.19.54l0,.08q.12.28.27.57v0a6.8,6.8,0,0,0,1.14,1.56h0a6.86,6.86,0,0,0,11-1.57v0q.15-.29.27-.57l0-.08a4.93,4.93,0,0,0,.19-.54c0-.06,0-.12.05-.18l.06-.25c.14.74.27,1.54.39,2.41a7.38,7.38,0,0,1-.12,2.77c-1.16,4.68-5.63,1.2-5.63,1.2.13.81,1.38,1.47,1.38,1.47a6.4,6.4,0,0,0,6.09-.66,3.61,3.61,0,0,0,1.17-2.3,5.2,5.2,0,0,0-.44-2.74A40.3,40.3,0,0,1,23,14"/><path class="cb44f1de-dc97-42f5-bf21-1b9bb59513cb" d="M22.71,13.34a.13.13,0,0,0,0-.25.13.13,0,0,0,0,.25Z"/><path class="208dbde3-e662-4a81-a586-fceedd90a207" d="M11.1,13.06a.36.36,0,0,1-.15-.3.29.29,0,0,1,.15-.3A1,1,0,0,1,11.1,13.06Z"/><path class="208dbde3-e662-4a81-a586-fceedd90a207" d="M18.83,12.61a.42.42,0,0,1,.15.3.33.33,0,0,1-.15.31A1.06,1.06,0,0,1,18.83,12.61Z"/></g></svg>