<svg xmlns="http://www.w3.org/2000/svg" xmlns:xlink="http://www.w3.org/1999/xlink" viewBox="0 0 30 30"><defs><style>.\31 84be4b7-2ad7-4ad3-8319-fce1489118bf,.d2541341-cf70-4d96-8b79-a1a724b700c4{fill:none;}.\39 79a0f2d-d940-4289-b303-1d5456c1022a{fill:#66afff;}.\31 4ac58ea-96f2-448b-b84f-9bcf084ca108{opacity:0.2;}.\35 92b17ca-0b07-419b-a15e-1544cb55b823{fill:red;}.\36 6ff831e-3e2d-40b8-a73f-f64170b44680{fill:#f9d9bb;}.\36 5f56b63-7912-4737-9c42-1c1b6aa87a6f{clip-path:url(#0be2e693-e6df-4e37-9e68-2116799165d8);}.\39 5f5f3c5-fe3d-4063-87b2-089ab4445c6b{clip-path:url(#0cd03864-f05c-4ecc-8c2d-9c1c8e7189c1);}.\35 4509ee9-6784-4f7c-9eb9-099732c7db80{fill:#fff;}.\32 866e512-96c7-4fe8-a3dc-5a06106c760f{opacity:0.1;}.d76fdf9d-fd5a-4c28-bc66-2a24bbcdbfa7{clip-path:url(#85c803f2-6a7a-41c9-9835-ff4e0c426ff3);}.d2541341-cf70-4d96-8b79-a1a724b700c4{stroke:#fff;stroke-linecap:round;stroke-linejoin:round;stroke-width:0.25px;}</style><clipPath id="0be2e693-e6df-4e37-9e68-2116799165d8"><rect class="184be4b7-2ad7-4ad3-8319-fce1489118bf" x="5" y="5.63" width="10" height="18.88"/></clipPath><clipPath id="0cd03864-f05c-4ecc-8c2d-9c1c8e7189c1"><rect class="184be4b7-2ad7-4ad3-8319-fce1489118bf" x="15" y="5.63" width="10" height="18.88" transform="translate(40 30.13) rotate(-180)"/></clipPath><clipPath id="85c803f2-6a7a-41c9-9835-ff4e0c426ff3"><rect class="184be4b7-2ad7-4ad3-8319-fce1489118bf" x="5" y="5.54" width="9.95" height="18.82"/></clipPath></defs><title>unnamed</title><g id="93d49c8c-497d-403d-a4a7-37df18f56731" data-name="Background"><circle class="979a0f2d-d940-4289-b303-1d5456c1022a" cx="15" cy="15.02" r="14.98"/></g><g id="86c433a0-0c31-469c-85c1-30dd349ddb15" data-name="Snow White"><g class="14ac58ea-96f2-448b-b84f-9bcf084ca108"><path d="M22.45,10.8a7.56,7.56,0,0,0-1.27-1.66,2.39,2.39,0,0,1-.85-1.34c-.14-1-.59-1.36-1.56-1.07a7.36,7.36,0,0,0-1.3.62,1.69,1.69,0,0,1-.94.23l-3,0a1.46,1.46,0,0,1-.59-.14,4.76,4.76,0,0,0-1.85-.83,1.09,1.09,0,0,0-1.33.94,2.07,2.07,0,0,1-.15.65A10.22,10.22,0,0,1,8.7,9.51c-.11.13-.35.31-.47.43a8.23,8.23,0,0,0-1.82,5.59,3.63,3.63,0,0,1-.48,1.88,8.56,8.56,0,0,0-.88,2.89,3.11,3.11,0,0,0,2.62,3.77,8.21,8.21,0,0,0,2.8.08,1.63,1.63,0,0,1,1,.18,6.92,6.92,0,0,0,4.53.84h.08l.05,0a7.67,7.67,0,0,0,1.93-.64,2.2,2.2,0,0,1,1.59-.33,2.23,2.23,0,0,0,.78.06h.1c.59-.09,1.18-.11,1.74-.23a3,3,0,0,0,2.59-3.3,8.24,8.24,0,0,0-.32-1.85c-.24-.77-.62-1.48-.92-2.21a3.69,3.69,0,0,1-.12-.92c0-.59-.08-1.14-.14-1.73a9.4,9.4,0,0,0-.29-1.6"/></g><polygon class="592b17ca-0b07-419b-a15e-1544cb55b823" points="7.98 9.77 8.64 10.05 9.59 9.43 8.91 8.8 7.98 9.77"/><polygon class="592b17ca-0b07-419b-a15e-1544cb55b823" points="21.53 10.38 21.77 9.7 21.07 8.8 20.5 9.52 21.53 10.38"/><polygon class="592b17ca-0b07-419b-a15e-1544cb55b823" points="10.42 6.19 10 7.23 9.45 8.83 10 9.86 12.99 9.34 14.47 9.96 16.65 9.41 16.76 9.07 17.01 9.32 18.95 9.48 20.5 9.17 20.28 7.59 19.58 6.07 17.46 6.75 15.14 7.59 12.27 6.71 10.42 6.19"/><path class="66ff831e-3e2d-40b8-a73f-f64170b44680" d="M20.82,19.15a4.82,4.82,0,0,1-.37-1A3.16,3.16,0,0,1,20.39,17c0-.24.18-.38.21-.6s.32-.42.32-.42c0-.2-.06-.33,0-.53a8.24,8.24,0,0,0-2.3-2.37c-.15,0-.29,0-.44,0a4.87,4.87,0,0,1-3.08-.62,4.49,4.49,0,0,1-2.93.62c-.25,0-1.21-.19-1.47-.17-.8.59-.77,1.55-1.21,2.46,0,.13.09.24.12.37a3.44,3.44,0,0,1,.11.86V17a4.63,4.63,0,0,1-.51,2,1,1,0,0,0-.13.57c0,.11.05.25.09.37l.07.08.33.6a6.45,6.45,0,0,0,6.86,2.88A6.35,6.35,0,0,0,20.77,20a4.11,4.11,0,0,0,.15-.46A.94.94,0,0,0,20.82,19.15Z"/><g class="65f56b63-7912-4737-9c42-1c1b6aa87a6f"><path d="M20.56,23.24c.59-.09,1.18-.12,1.74-.23a3,3,0,0,0,2.59-3.3,8.33,8.33,0,0,0-.32-1.86c-.24-.76-.62-1.47-.92-2.2a3.65,3.65,0,0,1-.23-.89c0-.58,0-1.17,0-1.76a7.56,7.56,0,0,0-2.21-4.86,2.18,2.18,0,0,1-.71-1.32,1.17,1.17,0,0,0-1.7-1.09,7.36,7.36,0,0,0-1.3.62,1.77,1.77,0,0,1-.94.23l-3,0a1.32,1.32,0,0,1-.59-.15,4.89,4.89,0,0,0-1.85-.82,1.09,1.09,0,0,0-1.33.94,2.07,2.07,0,0,1-.15.65A10.22,10.22,0,0,1,8.7,8.51c-.11.13-.35.31-.47.43a8.23,8.23,0,0,0-1.82,5.59,3.68,3.68,0,0,1-.48,1.88,8.49,8.49,0,0,0-.88,2.89,3.1,3.1,0,0,0,2.62,3.76,8,8,0,0,0,2.8.09,1.56,1.56,0,0,1,1,.18,6.83,6.83,0,0,0,6.59.18,2.16,2.16,0,0,1,1.59-.33,2.23,2.23,0,0,0,.78.06ZM18.91,6.43c.56-.17.83,0,.83.59a1.73,1.73,0,0,0,.29.8,2.59,2.59,0,0,1,.36,1c0,.38-.18.47-.56.44-.68-.09-1.39-.12-2.09-.18A.44.44,0,0,1,17.41,9c-.29-.36-.59-.74-.88-1.12A7.31,7.31,0,0,1,18.91,6.43ZM15,8.26a1.91,1.91,0,0,1,1.65.91,5.25,5.25,0,0,1-3.3,0A1.91,1.91,0,0,1,15,8.26Zm-5.27.62A1.88,1.88,0,0,1,10,8a1.94,1.94,0,0,0,.41-1.11c0-.45.23-.59.65-.47A7.77,7.77,0,0,1,12.38,7c.44.27.82.59,1.18.83-.33.38-.59.76-.89,1.12a.51.51,0,0,1-.35.17c-.7,0-1.41,0-2.12.12C9.82,9.32,9.7,9.11,9.73,8.88ZM9,9.11c.08.15.11.27.17.39l-.73.38-.06-.06C8.58,9.61,8.76,9.38,9,9.11ZM20.65,20a6.17,6.17,0,0,1-4.33,3.45,6.28,6.28,0,0,1-6.74-2.77c-.11-.21-.2-.38-.32-.59a.94.94,0,0,1,0-1,4.66,4.66,0,0,0,.5-2c0-.09,0-.18,0-.27s0-.08,0-.11a3.28,3.28,0,0,0-.09-.85c-.09-.32-.17-.61-.29-.94a1.05,1.05,0,0,1,.5-1.29,4.41,4.41,0,0,1,2.3-.39A4.19,4.19,0,0,0,15,12.86c.92.65,2,.37,3.09.34a6.74,6.74,0,0,1,1.74.21,1.11,1.11,0,0,1,.67,1.41,5.5,5.5,0,0,0-.32,1.12s0,.13,0,.3a5.09,5.09,0,0,0-.05.69,3.83,3.83,0,0,0,.22,1.31,5.36,5.36,0,0,0,.36,1A.76.76,0,0,1,20.65,20Zm1-9.92c-.26-.14-.5-.29-.79-.47a1.78,1.78,0,0,0,.2-.44c.24.33.44.59.65.89C21.68,10,21.68,10.05,21.65,10.05Z"/></g><g class="95f5f3c5-fe3d-4063-87b2-089ab4445c6b"><path class="184be4b7-2ad7-4ad3-8319-fce1489118bf" d="M10.17,9.29c.68-.09,1.39-.12,2.09-.18A.44.44,0,0,0,12.59,9c.29-.36.59-.74.88-1.12a7.31,7.31,0,0,0-2.38-1.45c-.56-.17-.83,0-.83.59a1.73,1.73,0,0,1-.29.8,2.59,2.59,0,0,0-.36,1C9.58,9.23,9.79,9.32,10.17,9.29Z"/><path class="184be4b7-2ad7-4ad3-8319-fce1489118bf" d="M17.68,9.14c.7,0,1.41,0,2.12.12.38.06.5-.15.47-.38A1.88,1.88,0,0,0,20,8a1.94,1.94,0,0,1-.41-1.11c0-.45-.23-.59-.65-.47A7.77,7.77,0,0,0,17.62,7c-.44.27-.82.59-1.18.83.33.38.59.76.89,1.12A.51.51,0,0,0,17.68,9.14Z"/><path class="184be4b7-2ad7-4ad3-8319-fce1489118bf" d="M8.29,10s0,0,.06,0c.26-.14.5-.29.79-.47a1.78,1.78,0,0,1-.2-.44C8.7,9.47,8.5,9.73,8.29,10Z"/><path class="184be4b7-2ad7-4ad3-8319-fce1489118bf" d="M16.65,9.17a2,2,0,0,0-3.3,0A5.25,5.25,0,0,0,16.65,9.17Z"/><path class="184be4b7-2ad7-4ad3-8319-fce1489118bf" d="M20.27,17.05c0-.09,0-.18,0-.27s0-.08,0-.11a3.28,3.28,0,0,1,.09-.85,9.15,9.15,0,0,1,.29-.94,1.05,1.05,0,0,0-.5-1.29,4.41,4.41,0,0,0-2.3-.39A4.37,4.37,0,0,1,15,12.59a4.77,4.77,0,0,1-3,.61,6.74,6.74,0,0,0-1.74.21,1.11,1.11,0,0,0-.67,1.41,5.5,5.5,0,0,1,.32,1.12s0,.13,0,.3a5.09,5.09,0,0,1,0,.69,3.83,3.83,0,0,1-.22,1.31,5.36,5.36,0,0,1-.36,1,.76.76,0,0,0,0,.76,6.17,6.17,0,0,0,4.33,3.45,6.28,6.28,0,0,0,6.74-2.77c.11-.21.2-.38.32-.59a.94.94,0,0,0,0-1A4.66,4.66,0,0,1,20.27,17.05Z"/><path class="184be4b7-2ad7-4ad3-8319-fce1489118bf" d="M20.83,9.5l.73.38.06-.06c-.2-.21-.38-.44-.62-.71C20.92,9.26,20.89,9.38,20.83,9.5Z"/><path d="M25,19.3a8.49,8.49,0,0,0-.88-2.89,3.68,3.68,0,0,1-.48-1.88,8.23,8.23,0,0,0-1.82-5.59l-.35-.36a6.7,6.7,0,0,1-1-1.35,2.07,2.07,0,0,1-.15-.65,1.09,1.09,0,0,0-1.33-.94,4.89,4.89,0,0,0-1.85.82,1.32,1.32,0,0,1-.59.15l-3,0a1.77,1.77,0,0,1-.94-.23,7.36,7.36,0,0,0-1.3-.62,1.17,1.17,0,0,0-1.7,1.09,2.18,2.18,0,0,1-.71,1.32A7.56,7.56,0,0,0,6.61,13c-.06.59,0,1.18,0,1.76a3.65,3.65,0,0,1-.23.89c-.3.73-.68,1.44-.92,2.2a8.33,8.33,0,0,0-.32,1.86A3,3,0,0,0,7.7,23c.56.11,1.15.14,1.74.23h.1a2.23,2.23,0,0,0,.78-.06,2.16,2.16,0,0,1,1.59.33,6.83,6.83,0,0,0,6.59-.18,1.56,1.56,0,0,1,1-.18,8,8,0,0,0,2.8-.09A3.1,3.1,0,0,0,25,19.3ZM17.62,7A7.77,7.77,0,0,1,19,6.41c.42-.12.65,0,.65.47A1.94,1.94,0,0,0,20,8a1.88,1.88,0,0,1,.24.89c0,.23-.09.44-.47.38-.71-.09-1.42-.09-2.12-.12A.51.51,0,0,1,17.33,9c-.3-.36-.56-.74-.89-1.12C16.8,7.61,17.18,7.29,17.62,7ZM15,8.26a1.91,1.91,0,0,1,1.65.91,5.25,5.25,0,0,1-3.3,0A1.91,1.91,0,0,1,15,8.26Zm-5-.44a1.73,1.73,0,0,0,.29-.8c0-.59.27-.76.83-.59a7.31,7.31,0,0,1,2.38,1.45c-.29.38-.59.76-.88,1.12a.44.44,0,0,1-.33.11c-.7.06-1.41.09-2.09.18-.38,0-.59-.06-.56-.44A2.59,2.59,0,0,1,10,7.82ZM8.35,10.05s0,0-.06,0c.21-.3.41-.56.65-.89a1.78,1.78,0,0,0,.2.44C8.85,9.76,8.61,9.91,8.35,10.05Zm12.39,10c-.12.21-.21.38-.32.59a6.28,6.28,0,0,1-6.74,2.77A6.17,6.17,0,0,1,9.35,20a.76.76,0,0,1,0-.76,5.36,5.36,0,0,0,.36-1,3.83,3.83,0,0,0,.22-1.31,5.09,5.09,0,0,0,0-.69c0-.17,0-.3,0-.3a5.5,5.5,0,0,0-.32-1.12,1.11,1.11,0,0,1,.67-1.41,6.74,6.74,0,0,1,1.74-.21c1.06,0,2.12.31,3-.34a4.38,4.38,0,0,0,2.88.34,4.41,4.41,0,0,1,2.3.39,1.05,1.05,0,0,1,.5,1.29,9.15,9.15,0,0,0-.29.94,3.28,3.28,0,0,0-.09.85s0,.07,0,.11,0,.18,0,.27a4.66,4.66,0,0,0,.5,2A.94.94,0,0,1,20.74,20.06Zm.82-10.18-.73-.38c.06-.12.09-.24.17-.39.24.27.42.5.62.71Z"/></g><path d="M9.5,15.5s.46-2,1.92-2.4l-3.11.18Z"/><path d="M18.63,13.2a3.85,3.85,0,0,1,1.94,2.3l.67-3Z"/><ellipse cx="17.78" cy="18.36" rx="0.99" ry="1.5"/><ellipse cx="12.17" cy="18.36" rx="0.99" ry="1.5"/><circle class="54509ee9-6784-4f7c-9eb9-099732c7db80" cx="12.72" cy="18.81" r="0.4"/><circle class="54509ee9-6784-4f7c-9eb9-099732c7db80" cx="18.36" cy="18.81" r="0.4"/><g class="2866e512-96c7-4fe8-a3dc-5a06106c760f"><g class="d76fdf9d-fd5a-4c28-bc66-2a24bbcdbfa7"><path class="54509ee9-6784-4f7c-9eb9-099732c7db80" d="M24.57,17.76c-.24-.76-.62-1.47-.92-2.2a3.65,3.65,0,0,1-.23-.89c0-.58,0-1.17,0-1.76a7.56,7.56,0,0,0-2.21-4.86,2.18,2.18,0,0,1-.71-1.32,1.17,1.17,0,0,0-1.7-1.09,7.36,7.36,0,0,0-1.3.62,1.77,1.77,0,0,1-.94.23l-3,0a1.32,1.32,0,0,1-.59-.15,4.89,4.89,0,0,0-1.85-.82,1.09,1.09,0,0,0-1.33.94,2.07,2.07,0,0,1-.15.65A10.22,10.22,0,0,1,8.7,8.42c-.11.13-.35.31-.47.43a8.21,8.21,0,0,0-1.82,5.59,3.68,3.68,0,0,1-.48,1.88,8.49,8.49,0,0,0-.88,2.89A3.1,3.1,0,0,0,7.67,23a8,8,0,0,0,2.8.09,1.56,1.56,0,0,1,1,.18,6.92,6.92,0,0,0,4.53.84h.08l.05,0a7.67,7.67,0,0,0,1.93-.64,2.16,2.16,0,0,1,1.59-.33,2.23,2.23,0,0,0,.78.06h.1c.59-.09,1.18-.12,1.74-.24a3,3,0,0,0,2.59-3.29A8.33,8.33,0,0,0,24.57,17.76Z"/></g></g><path class="d2541341-cf70-4d96-8b79-a1a724b700c4" d="M22.45,9.8a7.56,7.56,0,0,0-1.27-1.66,2.39,2.39,0,0,1-.85-1.34c-.14-1-.59-1.36-1.56-1.07a7.36,7.36,0,0,0-1.3.62,1.69,1.69,0,0,1-.94.23l-3,0a1.46,1.46,0,0,1-.59-.14,4.76,4.76,0,0,0-1.85-.83,1.09,1.09,0,0,0-1.33.94,2.07,2.07,0,0,1-.15.65A10.22,10.22,0,0,1,8.7,8.51c-.11.13-.35.31-.47.43a8.23,8.23,0,0,0-1.82,5.59,3.63,3.63,0,0,1-.48,1.88,8.56,8.56,0,0,0-.88,2.89,3.11,3.11,0,0,0,2.62,3.77,8.21,8.21,0,0,0,2.8.08,1.63,1.63,0,0,1,1,.18,6.92,6.92,0,0,0,4.53.84h.08l.05,0a7.67,7.67,0,0,0,1.93-.64,2.2,2.2,0,0,1,1.59-.33,2.23,2.23,0,0,0,.78.06h.1c.59-.09,1.18-.11,1.74-.23a3,3,0,0,0,2.59-3.3,8.24,8.24,0,0,0-.32-1.85c-.24-.77-.62-1.47-.92-2.21a3.69,3.69,0,0,1-.12-.92c0-.59-.08-1.14-.14-1.73a9.4,9.4,0,0,0-.29-1.6"/><path class="54509ee9-6784-4f7c-9eb9-099732c7db80" d="M22.74,10.68a.13.13,0,0,0,0-.25.13.13,0,0,0,0,.25Z"/></g></svg>