<svg viewBox="0 0 30 30" xmlns="http://www.w3.org/2000/svg" xmlns:xlink="http://www.w3.org/1999/xlink"><clipPath id="a"><path d="m6.54 3.62h8.46v21.38h-8.46z"/></clipPath><circle cx="15" cy="15.02" fill="#9cfffc" r="14.98"/><path d="m24.55 1.87h41.62v25.56h-41.62z" fill="none"/><path d="m22 21.62a.54.54 0 0 0 .05-.11 4.08 4.08 0 0 0 .19-.42 7.6 7.6 0 0 0 -.48-6.85 8.09 8.09 0 0 0 -2.44-2.81 2.6 2.6 0 0 0 -.56-.86 2.46 2.46 0 0 0 1.22-2.12 2.5 2.5 0 0 0 -2.54-2.45 2.41 2.41 0 0 0 -1.24.35 2.41 2.41 0 0 0 -1.2-.35 2.36 2.36 0 0 0 -1.24.35 2.42 2.42 0 0 0 -1.29-.35 2.48 2.48 0 0 0 -1.09 4.71 1.92 1.92 0 0 0 -.26.32c-5.34 2.44-4.21 10.7-4.21 10.7l.09-.11a7.43 7.43 0 0 1 .73-.4c.06.13.12.26.19.38a.24.24 0 0 0 -.19.23.25.25 0 0 0 .25.25.28.28 0 0 0 .19-.08 7.78 7.78 0 0 0 13.21.59c-.14.21-.24.33-.24.33a3.29 3.29 0 0 0 .53-.79c-.08.14-.16.26-.23.37.09-.13.16-.26.24-.38a.35.35 0 0 0 0-.08.26.26 0 0 0 .12 0 .25.25 0 0 0 .25-.25.24.24 0 0 0 -.05-.17z" opacity=".2"/><path d="m17.48 5a2.51 2.51 0 0 0 -1.24.35 2.37 2.37 0 0 0 -2.48 0 2.46 2.46 0 0 0 -3.76 2.12 2.48 2.48 0 0 0 3.73 2.14 2.43 2.43 0 0 0 2.48 0 2.48 2.48 0 1 0 1.27-4.61z" fill="#d98828"/><ellipse cx="15.13" cy="11.19" fill="#29abe2" rx="4.34" ry="2.91"/><circle cx="15" cy="17.23" fill="#f9d6b4" r="7.79"/><ellipse cx="18.31" cy="20.23" rx=".91" ry="1.73"/><circle cx="18.7" cy="20.85" fill="#fff" r=".42"/><ellipse cx="11.69" cy="20.23" rx=".91" ry="1.73"/><circle cx="12.1" cy="20.85" fill="#fff" r=".42"/><path d="m21.76 13.26a7 7 0 0 0 -3.9-3.52c-12.86-2.96-10.86 10.98-10.86 10.98l.13-.08a6.4 6.4 0 0 1 2-.83 10.79 10.79 0 0 0 7.19-5.66 4.94 4.94 0 0 0 3.24 3.35c2.87 1.16 2.69 2.73 2.24 3.67a7.7 7.7 0 0 0 -.04-7.91z" fill="#d98828"/><path d="m21.71 21.17a6.09 6.09 0 0 1 -.53.8 3.49 3.49 0 0 0 .53-.8z" fill="#d98828"/><circle cx="21.9" cy="20.85" fill="#29abe2" r=".25"/><circle cx="8.06" cy="20.85" fill="#29abe2" r=".25"/><g clip-path="url(#a)"><path d="m22 20.62.05-.1c.07-.14.13-.28.19-.42a7.57 7.57 0 0 0 -.48-6.85 8.13 8.13 0 0 0 -2.44-2.82 2.56 2.56 0 0 0 -.56-.85 2.48 2.48 0 0 0 -1.32-4.58 2.51 2.51 0 0 0 -1.24.34 2.51 2.51 0 0 0 -1.2-.34 2.45 2.45 0 0 0 -1.24.34 2.51 2.51 0 0 0 -1.29-.34 2.48 2.48 0 0 0 -1.09 4.7 1.92 1.92 0 0 0 -.26.32c-5.34 2.42-4.21 10.68-4.21 10.68l.09-.08a7.33 7.33 0 0 1 .73-.39c.06.13.12.25.19.38a.23.23 0 0 0 -.19.22.25.25 0 0 0 .25.25.28.28 0 0 0 .19-.08 7.78 7.78 0 0 0 13.21.6l-.24.33a3.49 3.49 0 0 0 .53-.8c-.08.14-.16.26-.23.37.09-.12.16-.25.24-.38a.22.22 0 0 0 0-.08.26.26 0 0 0 .12 0 .25.25 0 0 0 .25-.25.24.24 0 0 0 -.05-.17z" fill="#fff" opacity=".15"/></g><path d="m21.48 12.8a7.82 7.82 0 0 0 -2.17-2.35 2.45 2.45 0 0 0 -.56-.86 2.45 2.45 0 0 0 1.25-2.12 2.46 2.46 0 0 0 -3.73-2.14 2.51 2.51 0 0 0 -1.27-.33 2.46 2.46 0 0 0 -1.24.35 2.46 2.46 0 0 0 -3.76 2.12 2.48 2.48 0 0 0 1.39 2.22 4 4 0 0 0 -.26.32c-5.31 2.44-4.13 10.71-4.13 10.71l.13-.08a6.58 6.58 0 0 1 .74-.4c0 .13.12.26.18.38a.24.24 0 0 0 .06.48.25.25 0 0 0 .1-.1 7.78 7.78 0 0 0 13.21.59c-.14.21-.24.34-.24.34a3.49 3.49 0 0 0 .53-.8l-.22.37.23-.38a.35.35 0 0 0 .05-.08.26.26 0 0 0 .12.05.25.25 0 0 0 .25-.25.24.24 0 0 0 -.15-.21s0-.07 0-.11a4.08 4.08 0 0 0 .19-.42 7.54 7.54 0 0 0 -.24-6.4" fill="none" stroke="#333" stroke-linecap="round" stroke-linejoin="round" stroke-width=".25"/><path d="m21.75 13.35a.13.13 0 0 0 0-.25.13.13 0 0 0 0 .25z" fill="#333"/><path d="m21.76 13.26a7 7 0 0 0 -3.9-3.52c-12.86-2.96-10.86 10.98-10.86 10.98l.13-.08a6.4 6.4 0 0 1 2-.83 10.79 10.79 0 0 0 7.19-5.66 4.94 4.94 0 0 0 3.24 3.35c2.87 1.16 2.69 2.73 2.24 3.67a7.7 7.7 0 0 0 -.04-7.91z" fill="none" stroke="#333" stroke-linecap="round" stroke-linejoin="round" stroke-width=".25"/></svg>