<svg viewBox="0 0 30 30" xmlns="http://www.w3.org/2000/svg"><circle cx="15" cy="15.02" fill="#fcd2ac" r="14.98"/><path d="m25 16a10 10 0 0 0 -16.45-7.67 2.1 2.1 0 0 0 -1.65 1.78 10 10 0 0 0 12.35 14.89 1.63 1.63 0 0 0 .45.07 1.7 1.7 0 0 0 1.68-1.42 10 10 0 0 0 3.62-7.65z" opacity=".2"/><circle cx="15" cy="15.02" fill="#dd902a" r="10"/><g fill="#754c24"><circle cx="8.97" cy="9.44" r="2.09"/><circle cx="11.44" cy="13.96" r="1"/><circle cx="16.88" cy="9.27" r="1"/><circle cx="20.16" cy="18.54" r="1"/><circle cx="20.97" cy="13.72" r=".61"/><circle cx="9.58" cy="18.93" r=".61"/><circle cx="6.72" cy="16.25" r="1.59"/><circle cx="21.16" cy="10.27" r="1.59"/><circle cx="16.46" cy="14.96" r="1.41"/><circle cx="12.07" cy="16.91" r=".67"/><circle cx="13.34" cy="20.45" r="2.41"/><circle cx="19.7" cy="22.43" r="1.7"/><circle cx="22.75" cy="16.25" r="1.41"/><circle cx="14.09" cy="10.45" r="1.41"/></g><path d="m23.3 9.56a.13.13 0 0 0 0-.25.13.13 0 0 0 0 .25z" fill="#333"/><path d="m25 15a10 10 0 0 0 -16.45-7.61 2.08 2.08 0 0 0 -1.65 1.78 10 10 0 0 0 12.35 14.89 1.33 1.33 0 0 0 .45.08 1.71 1.71 0 0 0 1.68-1.42 10 10 0 0 0 3.62-7.72z" fill="#fff" opacity=".05"/><path d="m23 9a10 10 0 0 0 -14.45-1.61 2.08 2.08 0 0 0 -1.65 1.78 10 10 0 0 0 12.35 14.89 1.33 1.33 0 0 0 .45.08 1.71 1.71 0 0 0 1.68-1.42 10 10 0 0 0 2.66-12 8.68 8.68 0 0 0 -.46-.85" fill="none" stroke="#333" stroke-linecap="round" stroke-linejoin="round" stroke-width=".25"/></svg>