<svg enable-background="new 0 0 30 30" viewBox="0 0 30 30" xmlns="http://www.w3.org/2000/svg" xmlns:xlink="http://www.w3.org/1999/xlink"><clipPath id="a"><path d="m6.5 7.4h10v22.2h-10z" transform="matrix(.7071 -.7071 .7071 .7071 -9.7442 13.5366)"/></clipPath><circle cx="15" cy="15" fill="#e6e6e6" r="15"/><circle cx="15" cy="16" opacity=".2" r="10"/><circle cx="15" cy="15" r="10"/><path d="m15 5c-5.5 0-10 4.5-10 10s4.5 10 10 10 10-4.5 10-10-4.5-10-10-10zm-8.1 10c0-4.1 3.1-7.5 7.1-8v16.1c-4-.5-7.1-3.9-7.1-8.1zm9.1 8.1v-16.1c4 .5 7.1 3.9 7.1 8.1 0 4.1-3.1 7.5-7.1 8z" fill="#ff3e3e"/><path d="m8.9 13.6s-.7-.6-.6 0c.2.6.5 2.8 2 3s2.2-.3 2.1-.6c-.1-.2-3.4-2.2-3.5-2.4z" fill="#f2f2f2"/><path d="m21.1 13.6s.7-.6.6 0-.5 2.8-2 3c-1.4.2-2.2-.3-2.1-.6.1-.2 3.4-2.2 3.5-2.4z" fill="#f2f2f2"/><circle clip-path="url(#a)" cx="15" cy="15" fill="#fff" opacity=".2" r="10"/><path d="m24.4 11.5c-1.5-3.8-5.1-6.5-9.4-6.5-5.5 0-10 4.5-10 10s4.5 10 10 10 10-4.5 10-10c0-.6-.1-1.2-.2-1.8" style="fill:none;stroke:#333;stroke-width:.25;stroke-linecap:round;stroke-linejoin:round;stroke-miterlimit:10"/><path d="m24.7 12.6c.2 0 .2-.3 0-.3-.2.1-.2.3 0 .3z" fill="#333"/></svg>