<svg viewBox="0 0 30 30" xmlns="http://www.w3.org/2000/svg"
    xmlns:xlink="http://www.w3.org/1999/xlink">
    <clipPath id="a">
        <path d="m5.92 25 9.08.02v-20l-9.08-.02z" />
    </clipPath>
    <circle cx="15" cy="15.02" fill="#ffb776" r="14.98" />
    <path
        d="m21.84 16.67a7.12 7.12 0 0 0 -.53-.73 8.11 8.11 0 0 1 -.89-1.37 5.45 5.45 0 0 0 -1.08-2.08.76.76 0 0 0 .92-.33.78.78 0 0 0 -.26-1.06l-.54-.31a.42.42 0 0 0 .36-.2.41.41 0 0 0 0-.39.79.79 0 0 0 .37.1.93.93 0 1 0 0-1.85h-.08a1.66 1.66 0 0 0 .25-.85 1.63 1.63 0 1 0 -2.36 1.48l.63.37-.54-.31a.41.41 0 0 0 -.56.15.4.4 0 0 0 0 .41l-.36-.22a.78.78 0 0 0 -1.06.29.75.75 0 0 0 0 .79 5.8 5.8 0 0 0 -1.11-.11h-.26a1.85 1.85 0 0 0 0-1 .15.15 0 0 0 -.15-.07.14.14 0 0 0 -.13.15 2.06 2.06 0 0 1 0 1h-.11a2 2 0 0 0 -.78-1.34.16.16 0 0 0 -.16 0 .14.14 0 0 0 0 .2 1.89 1.89 0 0 1 .64 1.13 1.76 1.76 0 0 0 -.76-.55.17.17 0 0 0 -.15.07.14.14 0 0 0 .05.19 2.44 2.44 0 0 1 .51.36 5.58 5.58 0 0 0 -3.38 2.34 5.6 5.6 0 0 0 -.65 1.35 9.58 9.58 0 0 1 -1 1.64c-.82 1-3.32 5.29-2.67 7.82s2.13 1.79 2.1.27c0-1.25-.21-2.91.44-3.91v.39c0 3 2.92 5.49 6.52 5.49s6.51-2.46 6.51-5.49a2.13 2.13 0 0 0 0-.25c.55 1 .39 2.57.36 3.77 0 1.52 1.45 2.26 2.1-.27.44-1.74-.59-4.33-1.56-6.09"
        opacity=".2" />
    <path
        d="m21.31 14.94a8.11 8.11 0 0 1 -.89-1.37 5.59 5.59 0 0 0 -10-1.63 5.6 5.6 0 0 0 -.65 1.35 9.58 9.58 0 0 1 -1 1.64c-.82 1-3.32 5.29-2.67 7.82s2.13 1.79 2.1.27c0-1.25-.21-2.91.44-3.91v.39c0 3 2.92 5.49 6.52 5.49s6.51-2.46 6.51-5.49a2.13 2.13 0 0 0 0-.25c.55 1 .39 2.57.36 3.77 0 1.52 1.45 2.26 2.1-.27s-2-6.85-2.82-7.81z" />
    <path
        d="m17.35 12.18c-1-.07-1.86.89-2.3 2.3-.41-1.4-1.28-2.36-2.24-2.3-1.25.07-2.16 1.83-2 3.93s1.23 3.75 2.48 3.68a1.6 1.6 0 0 0 1-.5h1.52a1.63 1.63 0 0 0 1 .5c1.25.09 2.39-1.53 2.55-3.63s-.76-3.88-2.01-3.98z"
        fill="#fff" />
    <g stroke-width=".25">
        <path
            d="m15 24.13c3.12 0 5.65-2.2 5.65-4.92l-1.65-.21a28.81 28.81 0 0 0 -7.87 0l-1.72.24c-.04 2.69 2.49 4.89 5.59 4.89z"
            fill="#ffe7cc" stroke="#000" stroke-miterlimit="10" />
        <rect fill="#6ce577" height="1.55" rx=".77" stroke="#fff" stroke-linecap="round"
            stroke-linejoin="round" transform="matrix(.8660254 .5 -.5 .8660254 7.42 -7.76)"
            width="4.77" x="15.81" y="9.2" />
        <path
            d="m20.16 7.45h-.08a1.66 1.66 0 0 0 .25-.85 1.63 1.63 0 1 0 -2.33 1.48l1.43.84a.89.89 0 0 0 .71.37.93.93 0 1 0 0-1.85z"
            fill="#6ce577" stroke="#fff" stroke-linejoin="round" />
    </g>
    <ellipse cx="16.97" cy="16.4" rx="1.46" ry=".96"
        transform="matrix(.10348695 -.99463081 .99463081 .10348695 -1.1 31.58)" />
    <ellipse cx="12.95" cy="16.4" rx=".96" ry="1.46" />
    <ellipse cx="15" cy="19.94" rx="1.37" ry=".62" />
    <circle cx="11.54" cy="20.07" opacity=".3" r=".13" />
    <circle cx="11.8" cy="20.43" opacity=".3" r=".13" />
    <circle cx="11.28" cy="20.43" opacity=".3" r=".13" />
    <circle cx="18.35" cy="20.07" opacity=".3" r=".13" />
    <circle cx="18.61" cy="20.43" opacity=".3" r=".13" />
    <circle cx="18.09" cy="20.43" opacity=".3" r=".13" />
    <rect height=".83" rx=".41" stroke="#fff" stroke-linecap="round" stroke-linejoin="round"
        stroke-width=".25" transform="matrix(.8660254 .5 -.5 .8660254 6.97 -8.13)" width="2.58"
        x="17.37" y="8.53" />
    <path
        d="m13.6 8.15a2.14 2.14 0 0 1 .77 2.06s0 0 0 0a.13.13 0 0 1 -.19 0 .14.14 0 0 1 -.05-.1 1.86 1.86 0 0 0 -.65-1.73.14.14 0 0 1 0-.2.16.16 0 0 1 .12-.03z" />
    <path
        d="m14.8 8.43a2.14 2.14 0 0 1 -.65 2.1h-.05a.15.15 0 0 1 -.1-.13.17.17 0 0 1 0-.1 1.84 1.84 0 0 0 .54-1.76.14.14 0 0 1 .13-.15.15.15 0 0 1 .13.04z" />
    <path
        d="m13.33 9a2.15 2.15 0 0 1 1.29 1.78s0 0 0 .05a.14.14 0 0 1 -.2 0 .27.27 0 0 1 -.07-.08 1.85 1.85 0 0 0 -1.08-1.49.14.14 0 0 1 -.09-.26.17.17 0 0 1 .15 0z" />
    <g clip-path="url(#a)" opacity=".2">
        <path
            d="m21.31 14.94a8.11 8.11 0 0 1 -.89-1.37 5.45 5.45 0 0 0 -1.08-2.08.76.76 0 0 0 .92-.33.78.78 0 0 0 -.26-1.06l-.54-.31a.42.42 0 0 0 .36-.2.41.41 0 0 0 0-.39.79.79 0 0 0 .37.1.93.93 0 1 0 0-1.85h-.08a1.66 1.66 0 0 0 .25-.85 1.63 1.63 0 1 0 -2.36 1.48l.63.37-.54-.31a.41.41 0 0 0 -.56.15.4.4 0 0 0 0 .41l-.36-.22a.78.78 0 0 0 -1.06.29.75.75 0 0 0 0 .79 5.8 5.8 0 0 0 -1.11-.11h-.26a1.85 1.85 0 0 0 0-1 .15.15 0 0 0 -.15-.07.14.14 0 0 0 -.13.15 2.06 2.06 0 0 1 0 1h-.11a2 2 0 0 0 -.78-1.34.16.16 0 0 0 -.16 0 .14.14 0 0 0 0 .2 1.89 1.89 0 0 1 .64 1.13 1.76 1.76 0 0 0 -.72-.52.17.17 0 0 0 -.15.07.14.14 0 0 0 .05.19 2.44 2.44 0 0 1 .51.36 5.58 5.58 0 0 0 -3.38 2.34 5.6 5.6 0 0 0 -.65 1.35 9.58 9.58 0 0 1 -1 1.64c-.82 1-3.32 5.29-2.67 7.82s2.13 1.79 2.1.27c0-1.25-.21-2.91.44-3.91v.39c0 3 2.92 5.49 6.52 5.49s6.51-2.46 6.51-5.49a2.13 2.13 0 0 0 0-.25c.55 1 .39 2.57.36 3.77 0 1.52 1.45 2.26 2.1-.27s-1.94-6.87-2.76-7.83z"
            fill="#fff" />
    </g>
    <path
        d="m21.84 15.67a7.12 7.12 0 0 0 -.53-.73 8.11 8.11 0 0 1 -.89-1.37 5.45 5.45 0 0 0 -1.08-2.08.76.76 0 0 0 .92-.33.78.78 0 0 0 -.26-1.06l-.54-.31a.42.42 0 0 0 .36-.2.41.41 0 0 0 0-.39.79.79 0 0 0 .37.1.93.93 0 1 0 0-1.85h-.08a1.66 1.66 0 0 0 .25-.85 1.63 1.63 0 1 0 -2.36 1.48l.63.37-.54-.31a.41.41 0 0 0 -.56.15.4.4 0 0 0 0 .41l-.36-.22a.78.78 0 0 0 -1.06.29.75.75 0 0 0 0 .79 5.8 5.8 0 0 0 -1.11-.11h-.26a1.85 1.85 0 0 0 0-1 .15.15 0 0 0 -.15-.07.14.14 0 0 0 -.13.15 2.06 2.06 0 0 1 0 1h-.11a2 2 0 0 0 -.78-1.34.16.16 0 0 0 -.16 0 .14.14 0 0 0 0 .2 1.89 1.89 0 0 1 .64 1.13 1.76 1.76 0 0 0 -.72-.52.17.17 0 0 0 -.15.07.14.14 0 0 0 .05.19 2.44 2.44 0 0 1 .51.36 5.58 5.58 0 0 0 -3.38 2.34 5.6 5.6 0 0 0 -.65 1.35 9.58 9.58 0 0 1 -1 1.64c-.82 1-3.32 5.29-2.67 7.82s2.13 1.79 2.1.27c0-1.25-.21-2.91.44-3.91v.39c0 3 2.92 5.49 6.52 5.49s6.51-2.46 6.51-5.49a2.13 2.13 0 0 0 0-.25c.55 1 .39 2.57.36 3.77 0 1.52 1.45 2.26 2.1-.27.44-1.74-.59-4.33-1.56-6.09"
        fill="none" stroke="#fff" stroke-linecap="round" stroke-linejoin="round"
        stroke-width=".25" />
    <path d="m22.13 16.2a.13.13 0 0 0 0-.25.13.13 0 1 0 0 .25z" fill="#fff" />
</svg>