<svg viewBox="0 0 30 30" xmlns="http://www.w3.org/2000/svg"><circle cx="15" cy="15.02" fill="#fcbdac" r="14.98"/><path d="m20.52 12v-2.21a2.82 2.82 0 0 0 -2.81-2.79 2.58 2.58 0 0 0 -.4 0 2.69 2.69 0 0 0 -4.62 0 2.58 2.58 0 0 0 -.4 0 2.82 2.82 0 0 0 -2.81 2.79v12.46a2.81 2.81 0 0 0 2.81 2.81 2.58 2.58 0 0 0 .4 0 2.69 2.69 0 0 0 4.62 0 2.58 2.58 0 0 0 .4 0 2.81 2.81 0 0 0 2.81-2.81v-9.25" opacity=".2"/><rect fill="#f9b75f" height="18.08" rx="2.81" width="5.62" x="9.48" y="5.98"/><rect fill="#f9b75f" height="18.08" rx="2.81" width="5.62" x="14.9" y="5.98"/><rect fill="#f93253" height="20.62" rx="2.71" stroke="#333" stroke-miterlimit="10" stroke-width=".25" width="5.42" x="12.29" y="4.71"/><path d="m15 7.31a4.48 4.48 0 0 0 0 4.5 5.6 5.6 0 0 1 0 5 6.39 6.39 0 0 0 0 5.35" fill="none" stroke="#f9b75f" stroke-linecap="round" stroke-miterlimit="10" stroke-width=".5"/><path d="m20.52 11.6a.13.13 0 0 0 0-.25.13.13 0 0 0 0 .25z" fill="#333"/><path d="m20.52 11v-2.22a2.82 2.82 0 0 0 -2.81-2.78c-.14 0-.27 0-.4 0a2.69 2.69 0 0 0 -4.62 0c-.13 0-.26 0-.4 0a2.82 2.82 0 0 0 -2.81 2.78v12.45a2.82 2.82 0 0 0 2.81 2.82h.4a2.69 2.69 0 0 0 4.62 0h.4a2.82 2.82 0 0 0 2.81-2.82v-9.23" fill="#fff" opacity=".2"/><g fill="none" stroke="#333" stroke-miterlimit="10" stroke-width=".25"><path d="m20.52 11v-2.21a2.82 2.82 0 0 0 -2.81-2.79 2.58 2.58 0 0 0 -.4 0 2.69 2.69 0 0 0 -4.62 0 2.58 2.58 0 0 0 -.4 0 2.82 2.82 0 0 0 -2.81 2.79v12.46a2.81 2.81 0 0 0 2.81 2.81 2.58 2.58 0 0 0 .4 0 2.69 2.69 0 0 0 4.62 0 2.58 2.58 0 0 0 .4 0 2.81 2.81 0 0 0 2.81-2.81v-9.25" stroke-linecap="round"/><rect height="20.62" rx="2.71" width="5.42" x="12.29" y="4.71"/></g></svg>