<svg enable-background="new 0 0 11 11" viewBox="0 0 11 11" xmlns="http://www.w3.org/2000/svg"><path d="m1.3 6 1.9-1.9c1-1 2.7-1 3.8 0 .2.2.3.3.4.5l-1 .9s-.1.1-.1.1c-.1-.2-.2-.4-.3-.6-.5-.5-1.4-.5-1.9 0l-1.9 1.9c-.5.5-.5 1.4 0 1.9s1.4.5 1.9 0l.7-.7c.5.2 1.1.3 1.7.2l-1.5 1.4c-1 1-2.7 1-3.8 0-1-1-1-2.7.1-3.7zm4.9-3.1.7-.7c.5-.5 1.4-.5 1.9 0s.5 1.4 0 1.9l-1.9 1.9c-.5.5-1.4.5-1.9 0-.1-.2-.2-.4-.3-.6 0 0-.1.1-.1.1l-.9.9c.1.2.2.4.4.5 1 1 2.7 1 3.8 0l1.8-1.9c1-1 1-2.7 0-3.8-1-1-2.7-1-3.8 0l-1.4 1.5c.6-.1 1.2 0 1.7.2zm0 0" fill="#f2f2f2"/></svg>