<svg viewBox="0 0 30 30" xmlns="http://www.w3.org/2000/svg" xmlns:xlink="http://www.w3.org/1999/xlink"><clipPath id="a"><path d="m4.4 4.87h10.58v19.91h-10.58z"/></clipPath><circle cx="15" cy="15.02" fill="#ff97e9" r="14.98"/><path d="m24.49 19.58a49.24 49.24 0 0 1 -2.38-8.34 2.51 2.51 0 1 0 -2.68-3.84 4.78 4.78 0 0 0 -4.43.11 4.83 4.83 0 0 0 -4.45-.12 2.5 2.5 0 1 0 -2.67 3.83 50.09 50.09 0 0 1 -2.39 8.36 5.18 5.18 0 0 0 -.49 2.73 3.66 3.66 0 0 0 1.17 2.31 6.41 6.41 0 0 0 6.09.66s1.25-.66 1.38-1.47c0 0-4.47 3.48-5.63-1.2a7.38 7.38 0 0 1 -.12-2.77c.12-.88.25-1.68.39-2.43a2.68 2.68 0 0 0 .07.27v.18a4.93 4.93 0 0 0 .19.54v.08q.12.29.27.57a6.8 6.8 0 0 0 1.14 1.56 6.86 6.86 0 0 0 11-1.57q.15-.29.27-.57v-.08a4.93 4.93 0 0 0 .19-.54c0-.06 0-.12.05-.18l.06-.25c.14.74.27 1.54.39 2.41a7.38 7.38 0 0 1 -.12 2.77c-1.16 4.68-5.63 1.2-5.63 1.2.13.81 1.38 1.47 1.38 1.47a6.4 6.4 0 0 0 6.09-.66 3.61 3.61 0 0 0 1.17-2.31 5.18 5.18 0 0 0 -.31-2.72z" opacity=".2"/><circle cx="21.53" cy="7.78" fill="#f4d419" r="2.52"/><circle cx="21.53" cy="7.78" fill="#f00" r="1.33"/><path d="m22.55 7.63s-.55-1.41-1.66-.4" style="fill:none;stroke:#fff;stroke-miterlimit:10;opacity:.8;stroke-linecap:round;stroke-width:.25"/><circle cx="8.49" cy="7.78" fill="#f4d419" r="2.5"/><circle cx="8.49" cy="7.78" fill="#f00" r="1.32"/><path d="m9.06 7s-1.38-.6-1.46.89" style="fill:none;stroke:#fff;stroke-miterlimit:10;opacity:.8;stroke-linecap:round;stroke-width:.25"/><circle cx="15" cy="14.83" fill="#fcd2bb" r="6.86"/><path d="m21.86 15.1a6.86 6.86 0 1 0 -11.76 4.79 5.68 5.68 0 0 1 .18-6.13 1.73 1.73 0 0 0 .56 1.41 1.93 1.93 0 0 1 .26-1.84 2 2 0 0 0 1.84 1.14 1.66 1.66 0 0 0 .32 0 1.43 1.43 0 0 1 -1.13-1.47c-.08-1.61 2.73-1 2.87-.31.14-.65 2.95-1.3 2.88.31a1.44 1.44 0 0 1 -1.14 1.4 1.66 1.66 0 0 0 .32 0 2.06 2.06 0 0 0 1.77-1 1.87 1.87 0 0 1 .22 1.64 1.85 1.85 0 0 0 .39-1.71 5.68 5.68 0 0 1 .46 6.5 6.84 6.84 0 0 0 1.96-4.73zm-6.86-2.83s0 .09 0 .14 0-.1 0-.14z" opacity=".2"/><g fill="#fee42a"><path d="m21.86 14.83a6.86 6.86 0 1 0 -11.76 4.79 5.68 5.68 0 0 1 .18-6.13 1.73 1.73 0 0 0 .56 1.41 1.93 1.93 0 0 1 .26-1.84 2 2 0 0 0 1.84 1.14 1.66 1.66 0 0 0 .32 0 1.44 1.44 0 0 1 -1.13-1.41c-.08-1.61 2.73-.95 2.87-.3.14-.65 2.95-1.31 2.88.3a1.45 1.45 0 0 1 -1.14 1.41 1.66 1.66 0 0 0 .32 0 2.06 2.06 0 0 0 1.77-1 1.87 1.87 0 0 1 .22 1.64 1.85 1.85 0 0 0 .39-1.71 5.68 5.68 0 0 1 .46 6.5 6.84 6.84 0 0 0 1.96-4.8zm-6.86-2.83s0 .09 0 .14 0-.14 0-.14z" stroke="#333" stroke-linecap="round" stroke-linejoin="round" stroke-width=".25"/><path d="m24.5 18.56a51.42 51.42 0 0 1 -2.5-8.78v-.06a2 2 0 0 0 0-.21c-.36-1-2.24-5.18-7-3v2.17l5.51 2.93a43.58 43.58 0 0 1 1.55 7.2 7.42 7.42 0 0 1 -.12 2.78c-1.16 4.68-5.62 1.2-5.62 1.2.12.81 1.37 1.47 1.37 1.47a6.4 6.4 0 0 0 6.09-.66 3.67 3.67 0 0 0 1.22-2.31 5.28 5.28 0 0 0 -.5-2.73z"/><path d="m8 9.51a51.91 51.91 0 0 1 -2.52 9 5.18 5.18 0 0 0 -.44 2.73 3.66 3.66 0 0 0 1.18 2.36 6.41 6.41 0 0 0 6.09.66s1.25-.66 1.38-1.47c0 0-4.47 3.48-5.63-1.2a7.63 7.63 0 0 1 -.12-2.78 35.88 35.88 0 0 1 2-8.57z"/><path d="m7.94 9.72s1.7-5.66 7.06-3.23v2.19l-6.24 3.32z"/></g><path d="m15 13.72a.36.36 0 0 1 -.32-.2.34.34 0 0 0 0 .17.38.38 0 0 0 .75 0 .34.34 0 0 0 -.05-.17.36.36 0 0 1 -.38.2z" fill="#fbb03b"/><ellipse cx="12.33" cy="17.33" fill="#00f" rx="1.05" ry="1.53"/><ellipse cx="12.97" cy="17.78" fill="#fff" rx=".35" ry=".32"/><ellipse cx="17.7" cy="17.33" fill="#00f" rx="1.05" ry="1.53"/><ellipse cx="18.34" cy="17.78" fill="#fff" rx=".35" ry=".32"/><g clip-path="url(#a)" opacity=".2"><path d="m24.49 18.61a49 49 0 0 1 -2.38-8.35 2.51 2.51 0 1 0 -2.68-3.84 4.76 4.76 0 0 0 -4.43.12 4.77 4.77 0 0 0 -4.45-.12 2.5 2.5 0 1 0 -2.67 3.82 50.42 50.42 0 0 1 -2.39 8.37 5.14 5.14 0 0 0 -.49 2.73 3.66 3.66 0 0 0 1.17 2.31 6.4 6.4 0 0 0 6.09.65s1.25-.65 1.38-1.46c0 0-4.47 3.48-5.63-1.2a7.44 7.44 0 0 1 -.12-2.78c.12-.88.25-1.68.39-2.42a2.68 2.68 0 0 0 .07.27v.18s.12.36.19.54v.08a5.77 5.77 0 0 0 .27.56 7.27 7.27 0 0 0 1.14 1.56 6.85 6.85 0 0 0 11.05-1.53 5.77 5.77 0 0 0 .27-.56v-.08c.07-.18.14-.36.19-.54s0-.12.05-.18l.06-.26c.14.74.27 1.54.39 2.41a7.44 7.44 0 0 1 -.12 2.78c-1.16 4.68-5.63 1.2-5.63 1.2.13.81 1.38 1.46 1.38 1.46a6.4 6.4 0 0 0 6.09-.65 3.61 3.61 0 0 0 1.17-2.31 5.14 5.14 0 0 0 -.36-2.76z" fill="#fff"/></g><path d="m8.32 16.77a3.52 3.52 0 0 1 -.2-1.29 2 2 0 0 1 .37-1.25 2.76 2.76 0 0 0 -.1.63v.63c-.05.42-.02.84-.07 1.28z" fill="#edc500"/><path d="m21.76 16.77c0-.44 0-.86 0-1.28q0-.32 0-.63a3.42 3.42 0 0 0 -.09-.63 2.13 2.13 0 0 1 .33 1.25 3.75 3.75 0 0 1 -.24 1.29z" fill="#edc500"/><path d="m22.58 12.46c-.21-.89-.37-1.64-.47-2.15a2.51 2.51 0 1 0 -2.68-3.84 4.78 4.78 0 0 0 -4.43.11 4.83 4.83 0 0 0 -4.45-.12 2.5 2.5 0 1 0 -2.67 3.83 50.09 50.09 0 0 1 -2.39 8.36 5.2 5.2 0 0 0 -.49 2.74 3.66 3.66 0 0 0 1.17 2.3 6.41 6.41 0 0 0 6.09.66s1.25-.66 1.38-1.47c0 0-4.47 3.48-5.63-1.2a7.38 7.38 0 0 1 -.12-2.77c.12-.88.25-1.68.39-2.43a2.68 2.68 0 0 0 .07.27v.18a4.93 4.93 0 0 0 .19.54v.08q.12.28.27.57a6.8 6.8 0 0 0 1.14 1.56 6.86 6.86 0 0 0 11-1.57q.15-.29.27-.57v-.08a4.93 4.93 0 0 0 .19-.54c0-.06 0-.12.05-.18l.06-.25c.14.74.27 1.54.39 2.41a7.38 7.38 0 0 1 -.12 2.77c-1.16 4.68-5.63 1.2-5.63 1.2.13.81 1.38 1.47 1.38 1.47a6.4 6.4 0 0 0 6.09-.66 3.61 3.61 0 0 0 1.17-2.3 5.2 5.2 0 0 0 -.44-2.74 40.3 40.3 0 0 1 -1.36-4.64" fill="none" stroke="#333" stroke-linecap="round" stroke-linejoin="round" stroke-width=".25"/><path d="m22.71 13.34a.13.13 0 0 0 0-.25.13.13 0 0 0 0 .25z" fill="#333"/><path d="m11.1 13.06a.36.36 0 0 1 -.15-.3.29.29 0 0 1 .15-.3 1 1 0 0 1 0 .6z" fill="#edc500"/><path d="m18.83 12.61a.42.42 0 0 1 .15.3.33.33 0 0 1 -.15.31 1.06 1.06 0 0 1 0-.61z" fill="#edc500"/></svg>