<svg enable-background="new 0 0 30 30" viewBox="0 0 30 30" xmlns="http://www.w3.org/2000/svg"><circle cx="15" cy="15" fill="#ff8c69" r="15"/><path d="m25 11.9-4.2 2.2c-.6-2.7-3-4.7-5.8-4.7s-5.3 2-5.8 4.7l-4.2-2.2 3.2 6.4.8.2c.3.6 2.7 4.9 2.9 5.2.1.1-.2-.8-.4-1.8l3.5 2 3.5-2c-.3 1.1-.5 2-.4 1.8.1-.3 2.6-4.6 2.9-5.2l.8-.1zm-13.8 8.6c0 .1 0 .1 0 0z" opacity=".2"/><path d="m21 14.3c0-3.3-2.7-6-6-6s-6 2.7-6 6 2.9 7.3 6.2 7.3 5.8-4 5.8-7.3z" fill="#ffd366"/><path d="m18.8 20.6v-4.4l-3.8 1.5-3.8-1.5v4.4l3.8 2.2z" fill="#edbe8e"/><path d="m14.8 18.4-6.6-1-3.2-6.5 8.8 4.6z"/><path d="m11.3 16.8 2.1.5s-.7.4-1.1.3c-.5-.1-1.6-1-1.6-1z" fill="#fff"/><path d="m9 17.4s2.8 4.9 2.9 5.2-1.2-4.9-1.2-4.9z"/><path d="m15.2 18.4 6.6-1 3.2-6.5-8.8 4.6z"/><path d="m18.7 16.8-2.1.5s.7.4 1.1.3c.5-.1 1.6-1 1.6-1z" fill="#fff"/><path d="m21 17.4s-2.8 4.9-2.9 5.2 1.2-4.9 1.2-4.9z"/><path d="m18.4 9.4c-1-.7-2.1-1.1-3.4-1.1-2.9 0-5.3 2-5.8 4.7l-4.2-2.1 3.2 6.4.8.2c.3.6 2.7 4.9 2.9 5.2.1.1-.2-.8-.4-1.8l3.5 2 3.5-2c-.3 1.1-.5 2-.4 1.8.1-.3 2.6-4.6 2.9-5.2l.8-.1 3.2-6.4-4.2 2.2c-.3-1.2-.9-2.2-1.7-3" style="fill:none;stroke:#333;stroke-width:.25;stroke-linecap:round;stroke-linejoin:round;stroke-miterlimit:10"/><path d="m18.8 9.8c.2 0 .2-.3 0-.3-.2.1-.2.3 0 .3z" fill="#333"/></svg>