<?xml version="1.0" encoding="utf-8"?>
<!-- Generator: Adobe Illustrator 22.1.0, SVG Export Plug-In . SVG Version: 6.00 Build 0)  -->
<svg version="1.1" xmlns="http://www.w3.org/2000/svg" xmlns:xlink="http://www.w3.org/1999/xlink" x="0px" y="0px"
	 viewBox="0 0 11 11" style="enable-background:new 0 0 11 11;" xml:space="preserve">
<style type="text/css">
	.st0{fill:#1A1A1A;}
	.st1{fill:#FF3333;}
	.st2{fill:#E6E6E6;}
	.st3{fill:#CCCCCC;}
	.st4{fill:#F2F2F2;}
	.st5{fill:#666666;}
	.st6{fill:#999999;}
	.st7{opacity:0.5;fill:#FF3333;}
	.st8{fill:#808080;}
	.st9{opacity:0.2;}
	.st10{fill:#FFFFFF;}
	.st11{fill:none;stroke:#E6E6E6;stroke-width:0.25;stroke-linecap:round;stroke-linejoin:round;stroke-miterlimit:10;}
	.st12{opacity:0.1;}
	.st13{clip-path:url(#SVGID_2_);}
	.st14{fill:#333333;}
	.st15{clip-path:url(#SVGID_4_);fill:#E6E6E6;}
	.st16{fill:none;stroke:#000000;stroke-width:0.75;stroke-miterlimit:10;}
	.st17{fill:#FFD15F;}
	.st18{fill:#FAA40F;}
	.st19{clip-path:url(#SVGID_6_);fill:#FFFFFF;}
	.st20{fill:none;stroke:#333333;stroke-width:0.4172;stroke-linecap:round;stroke-linejoin:round;stroke-miterlimit:10;}
	.st21{fill:#ABEFAC;}
	.st22{fill:#FF0000;}
	.st23{fill:#EFCDB1;}
	.st24{fill:#C9AF9B;}
	.st25{fill:#F9D6B4;}
	.st26{clip-path:url(#SVGID_8_);}
	.st27{fill:none;stroke:#FFFFFF;stroke-width:0.4172;stroke-linecap:round;stroke-linejoin:round;stroke-miterlimit:10;}
	.st28{fill:none;stroke:#FFFFFF;stroke-width:0.4172;stroke-linejoin:round;stroke-miterlimit:10;}
	.st29{fill:#66AFFF;}
	.st30{fill:#F9D9BB;}
	.st31{clip-path:url(#SVGID_10_);}
	.st32{clip-path:url(#SVGID_12_);}
	.st33{fill:none;}
	.st34{clip-path:url(#SVGID_14_);fill:#FFFFFF;}
	.st35{fill:#9CFFFC;}
	.st36{fill:#D98828;}
	.st37{fill:#29ABE2;}
	.st38{opacity:0.15;clip-path:url(#SVGID_16_);fill:#FFFFFF;}
	.st39{clip-path:url(#SVGID_18_);}
	.st40{clip-path:url(#SVGID_20_);}
	.st41{clip-path:url(#SVGID_22_);}
	.st42{fill:#FFB199;}
	.st43{fill:#3838FC;}
	.st44{fill:#E83434;}
	.st45{opacity:0.2;clip-path:url(#SVGID_24_);fill:#FFFFFF;}
	.st46{fill:none;stroke:#333333;stroke-width:0.4103;stroke-linecap:round;stroke-linejoin:round;stroke-miterlimit:10;}
	.st47{opacity:0.2;clip-path:url(#SVGID_26_);fill:#FFFFFF;}
	.st48{fill:none;stroke:#333333;stroke-width:0.2462;stroke-linecap:round;stroke-linejoin:round;stroke-miterlimit:10;}
	.st49{opacity:0.2;clip-path:url(#SVGID_28_);fill:#FFFFFF;}
	.st50{opacity:0.2;clip-path:url(#SVGID_30_);fill:#FFFFFF;}
	.st51{fill:#FFB776;}
	.st52{fill:#FFE7CC;stroke:#000000;stroke-width:0.4217;stroke-miterlimit:10;}
	.st53{fill:#6CE577;stroke:#FFFFFF;stroke-width:0.4172;stroke-linecap:round;stroke-linejoin:round;stroke-miterlimit:10;}
	.st54{fill:#6CE577;stroke:#FFFFFF;stroke-width:0.4172;stroke-linejoin:round;stroke-miterlimit:10;}
	.st55{opacity:0.3;}
	.st56{stroke:#FFFFFF;stroke-width:0.4172;stroke-linecap:round;stroke-linejoin:round;stroke-miterlimit:10;}
	.st57{clip-path:url(#SVGID_32_);fill:#FFFFFF;}
	.st58{fill:#FF5A5A;}
	.st59{fill:#F7D361;}
	.st60{clip-path:url(#SVGID_34_);}
	.st61{fill:#FF3E3E;}
	.st62{opacity:0.2;clip-path:url(#SVGID_36_);fill:#FFFFFF;}
	.st63{fill:#BF8AF9;}
	.st64{fill:#FFFF00;}
	.st65{clip-path:url(#SVGID_38_);fill:#FFFFFF;}
	.st66{fill:#FF97E9;}
	.st67{fill:#F4D419;}
	.st68{opacity:0.8;fill:none;stroke:#FFFFFF;stroke-width:0.4172;stroke-linecap:round;stroke-miterlimit:10;}
	.st69{fill:#FCD2BB;}
	.st70{fill:#FEE42A;stroke:#333333;stroke-width:0.4172;stroke-linecap:round;stroke-linejoin:round;stroke-miterlimit:10;}
	.st71{fill:#FCEE21;}
	.st72{fill:#FEE42A;}
	.st73{fill:#FBB03B;}
	.st74{fill:#0000FF;}
	.st75{clip-path:url(#SVGID_40_);fill:#FFFFFF;}
	.st76{fill:#EDC500;}
	.st77{fill:#BDEFBD;}
	.st78{fill:#300A02;}
	.st79{fill:#39B54A;stroke:#333333;stroke-width:0.4172;stroke-linejoin:round;stroke-miterlimit:10;}
	.st80{fill:#FBB03B;stroke:#333333;stroke-width:0.4172;stroke-linejoin:round;stroke-miterlimit:10;}
	.st81{fill:#571802;stroke:#333333;stroke-width:0.4172;stroke-linecap:round;stroke-linejoin:round;stroke-miterlimit:10;}
	.st82{fill:#39B54A;stroke:#333333;stroke-width:0.4172;stroke-miterlimit:10;}
	.st83{fill:#006837;}
	.st84{fill:none;stroke:#333333;stroke-width:0.4172;stroke-linejoin:round;stroke-miterlimit:10;}
	.st85{fill:#FF8C69;}
	.st86{fill:#FFD366;}
	.st87{fill:#EDBE8E;}
	.st88{clip-path:url(#SVGID_42_);fill:#FFFFFF;}
	.st89{clip-path:url(#SVGID_44_);}
	.st90{clip-path:url(#SVGID_46_);}
	.st91{clip-path:url(#SVGID_48_);}
	.st92{clip-path:url(#SVGID_50_);}
	.st93{opacity:0.2;clip-path:url(#SVGID_52_);fill:#FFFFFF;}
	.st94{opacity:0.2;clip-path:url(#SVGID_54_);fill:#FFFFFF;}
	.st95{opacity:0.2;clip-path:url(#SVGID_56_);fill:#FFFFFF;}
	.st96{fill:none;stroke:#FF0000;stroke-width:0.5;stroke-linecap:round;stroke-miterlimit:10;}
	.st97{fill:none;stroke:#FF0000;stroke-width:0.5;stroke-miterlimit:10;}
	.st98{fill:none;stroke:#FF0000;stroke-width:0.5;stroke-linecap:round;stroke-linejoin:round;stroke-miterlimit:10;}
	.st99{opacity:0.5;fill:none;stroke:#0000FF;stroke-width:0.25;stroke-miterlimit:10;}
	.st100{fill:none;stroke:#FF0000;stroke-width:0.6124;stroke-miterlimit:10;}
	.st101{fill:none;stroke:#FF0000;stroke-width:0.75;stroke-miterlimit:10;}
	.st102{fill:none;stroke:#ED1C24;stroke-linecap:round;stroke-miterlimit:10;}
	.st103{fill:none;stroke:#FF3333;stroke-width:0.75;stroke-miterlimit:10;}
</style>
<g id="Color">
</g>
<g id="Layer_1">
</g>
<g id="Specs">
	<path class="st4" d="M1.3,6l1.9-1.9c1-1,2.7-1,3.8,0c0.2,0.2,0.3,0.3,0.4,0.5L6.4,5.5c0,0-0.1,0.1-0.1,0.1C6.2,5.4,6.1,5.2,6,5
		C5.5,4.5,4.6,4.5,4.1,5L2.2,6.9c-0.5,0.5-0.5,1.4,0,1.9c0.5,0.5,1.4,0.5,1.9,0l0.7-0.7c0.5,0.2,1.1,0.3,1.7,0.2L5,9.7
		c-1,1-2.7,1-3.8,0C0.2,8.7,0.2,7,1.3,6L1.3,6z M6.2,2.9l0.7-0.7c0.5-0.5,1.4-0.5,1.9,0c0.5,0.5,0.5,1.4,0,1.9L6.9,6
		C6.4,6.5,5.5,6.5,5,6C4.9,5.8,4.8,5.6,4.7,5.4c0,0-0.1,0.1-0.1,0.1L3.7,6.4c0.1,0.2,0.2,0.4,0.4,0.5c1,1,2.7,1,3.8,0L9.7,5
		c1-1,1-2.7,0-3.8c-1-1-2.7-1-3.8,0L4.5,2.7C5.1,2.6,5.7,2.7,6.2,2.9L6.2,2.9z M6.2,2.9"/>
</g>
</svg>
