<svg xmlns="http://www.w3.org/2000/svg" xmlns:xlink="http://www.w3.org/1999/xlink" viewBox="0 0 30 30"><defs><style>.\33 f5572cb-57b1-4aec-985d-e629dabcc863,.c5f3a47f-8eb6-43fe-99ee-9b33b0e7cdfd{fill:none;}.\34 21c90b5-59f9-469b-ab61-0abf56b33b2e{fill:#bf8af9;}.e9735cac-4d54-4ab9-b792-06c1a410a068{opacity:0.2;}.\34 cfd0248-c18e-4206-b9fd-4ccf13e3eee9{fill:#ff0;}.\33 f5572cb-57b1-4aec-985d-e629dabcc863{stroke:#fff;stroke-linecap:round;stroke-linejoin:round;stroke-width:0.25px;}.\34 8ebb4a4-d043-42b3-aa6e-922a360a2896{opacity:0.1;}.a52e5cec-2b4e-4ff1-aafc-6d240be4ad4b{clip-path:url(#517c28cf-a79f-423e-b710-ed1513148a4c);}.\34 db96654-5336-4d9c-ac46-8df1ac7a76c3{fill:#fff;}</style><clipPath id="517c28cf-a79f-423e-b710-ed1513148a4c"><rect class="c5f3a47f-8eb6-43fe-99ee-9b33b0e7cdfd" x="5.02" y="7.68" width="9.98" height="14.64"/></clipPath></defs><title>unnamed</title><g id="383347e3-6f2e-4fd3-b56d-8771cb8f707b" data-name="Background"><circle class="421c90b5-59f9-469b-ab61-0abf56b33b2e" cx="15" cy="15.02" r="14.98"/></g><g id="b96ba613-d7a5-45e8-9b14-094e24aa70cc" data-name="Cat SailorMoon"><path class="e9735cac-4d54-4ab9-b792-06c1a410a068" d="M24.88,20.36h0a8.44,8.44,0,0,0-2-.71,10.06,10.06,0,0,0-1.16-.16,3.92,3.92,0,0,1,.54-.12,3.27,3.27,0,0,1,1.44.05h0a.16.16,0,0,0,.14-.19c0-.07-.06-.1-.12-.12h0a4.5,4.5,0,0,0-2.39.18,4.73,4.73,0,0,0,0-.52V15.21h0s2.14-5.14.66-6.48c0,0-.23-.35-1.82.79A10.93,10.93,0,0,1,18,10.9,5.44,5.44,0,0,0,15,10a5.36,5.36,0,0,0-3,.86,10.45,10.45,0,0,1-2.3-1.37c-1.59-1.14-1.84-.77-1.84-.77-1.23,1.11.06,4.87.53,6.08a2.39,2.39,0,0,1,.15.83v2.52a4.56,4.56,0,0,0,.14,1.11,4.21,4.21,0,0,0-.88-.23,4.32,4.32,0,0,0-1.57,0h0c-.06,0-.12,0-.13.12a.17.17,0,0,0,.15.19h.05a3.27,3.27,0,0,1,1.44-.05,4.28,4.28,0,0,1,.54.12,10.06,10.06,0,0,0-1.16.16,8.44,8.44,0,0,0-2,.71h0c-.07,0-.12.1-.1.16s.13.14.26.12l.06,0h0a6.27,6.27,0,0,1,1.84-.67,6.49,6.49,0,0,1,1.64-.16l0,.06A5.44,5.44,0,0,0,8,20a4.59,4.59,0,0,0-1.4.7h0a.15.15,0,0,0-.06.16.16.16,0,0,0,.21.11s0,0,0,0h0A3.37,3.37,0,0,1,8.1,20.3,3.6,3.6,0,0,1,9,20.15a4.37,4.37,0,0,0,2.21,2.19,14.37,14.37,0,0,0,2.84.88,4.58,4.58,0,0,0,1.88,0,11.89,11.89,0,0,0,3.79-1.37,3.49,3.49,0,0,0,1.43-1.7,4.54,4.54,0,0,1,.77.15,3.37,3.37,0,0,1,1.28.67h0s0,0,0,0a.16.16,0,0,0,.21-.11.15.15,0,0,0-.06-.16h0A4.71,4.71,0,0,0,22,20a5.14,5.14,0,0,0-.76-.16l0-.07a6.66,6.66,0,0,1,1.54.16,6.27,6.27,0,0,1,1.84.67h0l.06,0c.13,0,.24,0,.26-.12S25,20.4,24.88,20.36Z"/><path d="M22.12,7.73s-.23-.35-1.83.79A10.77,10.77,0,0,1,18,9.9h0A5.47,5.47,0,0,0,15,9a5.39,5.39,0,0,0-3,.86h0A10.31,10.31,0,0,1,9.73,8.52c-1.6-1.14-1.84-.77-1.84-.77-1.24,1.11.06,4.87.52,6.08a2.39,2.39,0,0,1,.15.83v2.52a4.52,4.52,0,0,0,2.66,4.16,14,14,0,0,0,2.84.88,4.58,4.58,0,0,0,1.88,0,11.82,11.82,0,0,0,3.78-1.37,3.6,3.6,0,0,0,1.71-3.1V14.21h0S23.6,9.07,22.12,7.73Z"/><path class="4cfd0248-c18e-4206-b9fd-4ccf13e3eee9" d="M15.88,11.71v0a.89.89,0,1,1-1.78,0v0a1,1,0,0,0-.18.55,1.07,1.07,0,0,0,2.14,0A1,1,0,0,0,15.88,11.71Z"/><circle cx="6.3" cy="18.25" r="0.17"/><path d="M9,18.74a3.53,3.53,0,0,0-1.2-.38,3.26,3.26,0,0,0-1.44.05l-.08-.32a4.26,4.26,0,0,1,1.56,0,4.91,4.91,0,0,1,1.28.38.17.17,0,0,0-.2.13Z"/><circle cx="9.04" cy="18.59" r="0.16"/><circle cx="6.74" cy="19.83" r="0.17"/><path d="M9.37,19.13a3.82,3.82,0,0,0-1.26.17A3.33,3.33,0,0,0,6.84,20l-.21-.26a4.59,4.59,0,0,1,2.71-.9.16.16,0,0,0-.12.2Z"/><circle cx="9.36" cy="18.97" r="0.16"/><ellipse cx="5.26" cy="19.47" rx="0.23" ry="0.17" transform="translate(-4.03 1.57) rotate(-12.3)"/><path d="M8.93,18.77a7.07,7.07,0,0,0-1.71.17,6.34,6.34,0,0,0-1.85.67l-.23-.26a8.6,8.6,0,0,1,2-.71A10,10,0,0,1,9,18.44c-.12,0-.23.12-.21.21Z"/><ellipse cx="8.95" cy="18.61" rx="0.22" ry="0.16" transform="translate(-3.76 2.33) rotate(-12.3)"/><circle cx="23.73" cy="18.25" r="0.17"/><path d="M21.06,18.74a3.53,3.53,0,0,1,1.2-.38,3.26,3.26,0,0,1,1.44.05l.08-.32a4.26,4.26,0,0,0-1.56,0,4.8,4.8,0,0,0-1.28.38.17.17,0,0,1,.2.13Z"/><circle cx="20.99" cy="18.59" r="0.16"/><circle cx="23.3" cy="19.83" r="0.17"/><path d="M20.67,19.13a3.76,3.76,0,0,1,1.25.17A3.37,3.37,0,0,1,23.2,20l.21-.26a4.65,4.65,0,0,0-2.71-.9.16.16,0,0,1,.12.2Z"/><circle cx="20.68" cy="18.97" r="0.16"/><ellipse cx="24.77" cy="19.47" rx="0.17" ry="0.23" transform="translate(0.47 39.53) rotate(-77.7)"/><path d="M21.11,18.77a7.07,7.07,0,0,1,1.71.17,6.16,6.16,0,0,1,1.84.67l.24-.26a8.6,8.6,0,0,0-2-.71,10,10,0,0,0-1.81-.2c.12,0,.22.12.21.21Z"/><ellipse cx="21.09" cy="18.61" rx="0.16" ry="0.22" transform="translate(-1.59 35.25) rotate(-77.7)"/><path class="3f5572cb-57b1-4aec-985d-e629dabcc863" d="M22.47,10.81c.24-1.25.26-2.51-.37-3.08,0,0-.23-.35-1.82.79A10.93,10.93,0,0,1,18,9.9,5.44,5.44,0,0,0,15,9a5.36,5.36,0,0,0-3,.86,10.45,10.45,0,0,1-2.3-1.37c-1.59-1.14-1.84-.77-1.84-.77-1.23,1.11.06,4.87.53,6.08a2.39,2.39,0,0,1,.15.83v2.52a4.56,4.56,0,0,0,.14,1.11,4.21,4.21,0,0,0-.88-.23,4.32,4.32,0,0,0-1.57,0h0c-.06,0-.12,0-.13.12a.17.17,0,0,0,.15.19h.05a3.27,3.27,0,0,1,1.44-.05,4.28,4.28,0,0,1,.54.12,10.06,10.06,0,0,0-1.16.16,8.44,8.44,0,0,0-2,.71h0c-.07,0-.12.1-.1.16s.13.14.26.12l.06,0h0a6.27,6.27,0,0,1,1.84-.67,6.49,6.49,0,0,1,1.64-.16l0,.06A5.44,5.44,0,0,0,8,19a4.59,4.59,0,0,0-1.4.7h0a.15.15,0,0,0-.06.16.16.16,0,0,0,.21.11s0,0,0,0h0A3.37,3.37,0,0,1,8.1,19.3,3.6,3.6,0,0,1,9,19.15a4.37,4.37,0,0,0,2.21,2.19,14.37,14.37,0,0,0,2.84.88,4.58,4.58,0,0,0,1.88,0,11.89,11.89,0,0,0,3.79-1.37,3.49,3.49,0,0,0,1.43-1.7,4.54,4.54,0,0,1,.77.15,3.37,3.37,0,0,1,1.28.67h0s0,0,0,0a.16.16,0,0,0,.21-.11.15.15,0,0,0-.06-.16h0A4.71,4.71,0,0,0,22,19a5.14,5.14,0,0,0-.76-.16l0-.07a6.66,6.66,0,0,1,1.54.16,6.27,6.27,0,0,1,1.84.67h0l.06,0c.13,0,.24,0,.26-.12s0-.12-.1-.16h0a8.44,8.44,0,0,0-2-.71,10.06,10.06,0,0,0-1.16-.16,3.92,3.92,0,0,1,.54-.12,3.27,3.27,0,0,1,1.44.05h0a.16.16,0,0,0,.14-.19c0-.07-.06-.1-.12-.12h0a4.5,4.5,0,0,0-2.39.18,4.73,4.73,0,0,0,0-.52V14.21h0a21,21,0,0,0,.83-2.5"/><g class="48ebb4a4-d043-42b3-aa6e-922a360a2896"><g class="a52e5cec-2b4e-4ff1-aafc-6d240be4ad4b"><path class="4db96654-5336-4d9c-ac46-8df1ac7a76c3" d="M24.88,19.36h0a8.44,8.44,0,0,0-2-.71,10.06,10.06,0,0,0-1.16-.16,3.92,3.92,0,0,1,.54-.12,3.27,3.27,0,0,1,1.44.05h0a.16.16,0,0,0,.14-.19c0-.07-.06-.1-.12-.12h0a4.5,4.5,0,0,0-2.39.18,4.73,4.73,0,0,0,0-.52V14.21h0s2.14-5.14.66-6.48c0,0-.23-.35-1.82.79A10.93,10.93,0,0,1,18,9.9,5.44,5.44,0,0,0,15,9a5.36,5.36,0,0,0-3,.86,10.45,10.45,0,0,1-2.3-1.37c-1.59-1.14-1.84-.77-1.84-.77-1.23,1.11.06,4.87.53,6.08a2.39,2.39,0,0,1,.15.83v2.52a4.56,4.56,0,0,0,.14,1.11,4.21,4.21,0,0,0-.88-.23,4.32,4.32,0,0,0-1.57,0h0c-.06,0-.12,0-.13.12a.17.17,0,0,0,.15.19h.05a3.27,3.27,0,0,1,1.44-.05,4.28,4.28,0,0,1,.54.12,10.06,10.06,0,0,0-1.16.16,8.44,8.44,0,0,0-2,.71h0c-.07,0-.12.1-.1.16s.13.14.26.12l.06,0h0a6.27,6.27,0,0,1,1.84-.67,6.49,6.49,0,0,1,1.64-.16l0,.06A5.44,5.44,0,0,0,8,19a4.59,4.59,0,0,0-1.4.7h0a.15.15,0,0,0-.06.16.16.16,0,0,0,.21.11s0,0,0,0h0A3.37,3.37,0,0,1,8.1,19.3,3.6,3.6,0,0,1,9,19.15a4.37,4.37,0,0,0,2.21,2.19,14.37,14.37,0,0,0,2.84.88,4.58,4.58,0,0,0,1.88,0,11.89,11.89,0,0,0,3.79-1.37,3.49,3.49,0,0,0,1.43-1.7,4.54,4.54,0,0,1,.77.15,3.37,3.37,0,0,1,1.28.67h0s0,0,0,0a.16.16,0,0,0,.21-.11.15.15,0,0,0-.06-.16h0A4.71,4.71,0,0,0,22,19a5.14,5.14,0,0,0-.76-.16l0-.07a6.66,6.66,0,0,1,1.54.16,6.27,6.27,0,0,1,1.84.67h0l.06,0c.13,0,.24,0,.26-.12S25,19.4,24.88,19.36Z"/></g></g><path class="4db96654-5336-4d9c-ac46-8df1ac7a76c3" d="M22.41,11.45a.13.13,0,0,0,0-.25.13.13,0,0,0,0,.25Z"/></g></svg>