<svg xmlns="http://www.w3.org/2000/svg" xmlns:xlink="http://www.w3.org/1999/xlink" viewBox="0 0 30 30"><defs><style>.\30 d3f133c-160a-4760-884d-d14d804da014,.\32 b364745-7671-420d-8003-acb023107ef3{fill:none;}.\31 430f0db-6cd5-4adb-875f-aacb2aad5490{fill:#fcd2ac;}.a5090bb7-e49c-40ad-b3ea-933d4f2df27c{opacity:0.2;}.a47a9ba6-619f-47c0-8cfd-5a32615dc5fb{fill:#dd902a;}.\30 68ec3b8-d086-4705-a68d-8ab61ca125e9{fill:#754c24;}.\37 11d9ef6-5b80-448a-9d86-adde8c286044{fill:#333;}.cf698cd1-48f9-47b8-9ccb-dcfadcc1f20b{opacity:0.05;}.\34 a96b0e9-92d8-4636-8548-f2528197c3de{clip-path:url(#2af9d90b-170a-44c9-b82f-0a33bf1669df);}.\35 0c95b84-b864-41ab-9d3e-8091da7890b7{fill:#fff;}.\30 d3f133c-160a-4760-884d-d14d804da014{stroke:#333;stroke-linecap:round;stroke-linejoin:round;stroke-width:0.25px;}</style><clipPath id="2af9d90b-170a-44c9-b82f-0a33bf1669df"><rect class="2b364745-7671-420d-8003-acb023107ef3" x="5" y="5.02" width="10" height="20"/></clipPath></defs><title>unnamed</title><g id="aa75d2da-3cca-4f3d-abc4-0bbcc0ac2a2a" data-name="Background"><circle class="1430f0db-6cd5-4adb-875f-aacb2aad5490" cx="15" cy="15.02" r="14.98"/></g><g id="77a764e9-b5a7-463c-98db-e3423c325005" data-name="Cookie"><path class="a5090bb7-e49c-40ad-b3ea-933d4f2df27c" d="M25,16A10,10,0,0,0,8.55,8.33,2.1,2.1,0,0,0,6.9,10.11,10,10,0,0,0,19.25,25a1.63,1.63,0,0,0,.45.07,1.7,1.7,0,0,0,1.68-1.42A10,10,0,0,0,25,16Z"/><circle class="a47a9ba6-619f-47c0-8cfd-5a32615dc5fb" cx="15" cy="15.02" r="10"/><circle class="068ec3b8-d086-4705-a68d-8ab61ca125e9" cx="8.97" cy="9.44" r="2.09"/><circle class="068ec3b8-d086-4705-a68d-8ab61ca125e9" cx="11.44" cy="13.96" r="1"/><circle class="068ec3b8-d086-4705-a68d-8ab61ca125e9" cx="16.88" cy="9.27" r="1"/><circle class="068ec3b8-d086-4705-a68d-8ab61ca125e9" cx="20.16" cy="18.54" r="1"/><circle class="068ec3b8-d086-4705-a68d-8ab61ca125e9" cx="20.97" cy="13.72" r="0.61"/><circle class="068ec3b8-d086-4705-a68d-8ab61ca125e9" cx="9.58" cy="18.93" r="0.61"/><circle class="068ec3b8-d086-4705-a68d-8ab61ca125e9" cx="6.72" cy="16.25" r="1.59"/><circle class="068ec3b8-d086-4705-a68d-8ab61ca125e9" cx="21.16" cy="10.27" r="1.59"/><circle class="068ec3b8-d086-4705-a68d-8ab61ca125e9" cx="16.46" cy="14.96" r="1.41"/><circle class="068ec3b8-d086-4705-a68d-8ab61ca125e9" cx="12.07" cy="16.91" r="0.67"/><circle class="068ec3b8-d086-4705-a68d-8ab61ca125e9" cx="13.34" cy="20.45" r="2.41"/><circle class="068ec3b8-d086-4705-a68d-8ab61ca125e9" cx="19.7" cy="22.43" r="1.7"/><circle class="068ec3b8-d086-4705-a68d-8ab61ca125e9" cx="22.75" cy="16.25" r="1.41"/><circle class="068ec3b8-d086-4705-a68d-8ab61ca125e9" cx="14.09" cy="10.45" r="1.41"/><path class="711d9ef6-5b80-448a-9d86-adde8c286044" d="M23.3,9.56a.13.13,0,0,0,0-.25.13.13,0,0,0,0,.25Z"/><g class="cf698cd1-48f9-47b8-9ccb-dcfadcc1f20b"><g class="4a96b0e9-92d8-4636-8548-f2528197c3de"><path class="50c95b84-b864-41ab-9d3e-8091da7890b7" d="M25,15A10,10,0,0,0,8.55,7.39,2.08,2.08,0,0,0,6.9,9.17,10,10,0,0,0,19.25,24.06a1.33,1.33,0,0,0,.45.08,1.71,1.71,0,0,0,1.68-1.42A10,10,0,0,0,25,15Z"/></g></g><path class="0d3f133c-160a-4760-884d-d14d804da014" d="M23,9A10,10,0,0,0,8.55,7.39,2.08,2.08,0,0,0,6.9,9.17,10,10,0,0,0,19.25,24.06a1.33,1.33,0,0,0,.45.08,1.71,1.71,0,0,0,1.68-1.42,10,10,0,0,0,2.66-12,8.68,8.68,0,0,0-.46-.85"/></g></svg>