<svg xmlns="http://www.w3.org/2000/svg" xmlns:xlink="http://www.w3.org/1999/xlink" viewBox="0 0 30 30"><defs><style>.\31 c6dc4f1-60a5-4351-8126-68ceabceda27,.f3e3b71e-d124-43e4-849a-5d2e29bbfbd6{fill:none;}.\38 588c868-8766-4e2a-824a-187ab0083afa{fill:#ffd15f;}.\31 af1ac3f-5ad1-4728-a28e-9a8d23ea69d9{opacity:0.2;}.\37 d093a83-9ac5-4542-a934-4c8387c431bf{fill:#faa40f;}.\34 70c7d12-7d22-49a6-954e-7537d7da374f{fill:#fff;}.\35 1feba6d-8fb6-4fe1-bd2c-26301ab01993{fill:#333;}.\35 37e62db-1e99-4d96-a746-68f2403d1a5c{clip-path:url(#7c83a2e2-8a9f-4783-9db2-dbff301dfa09);}.\31 c6dc4f1-60a5-4351-8126-68ceabceda27{stroke:#333;stroke-linecap:round;stroke-linejoin:round;stroke-width:0.25px;}</style><clipPath id="7c83a2e2-8a9f-4783-9db2-dbff301dfa09"><polygon class="f3e3b71e-d124-43e4-849a-5d2e29bbfbd6" points="5.01 24.35 15.01 25.17 15.01 5.06 5.01 5.06 5.01 24.35"/></clipPath></defs><title>unnamed</title><g id="a23d8e1c-3021-4309-a208-8d6547d4c457" data-name="Background"><circle class="8588c868-8766-4e2a-824a-187ab0083afa" cx="15" cy="15.02" r="14.98"/></g><g id="7bfce347-d2ee-4667-97d4-673901a6c81a" data-name="Pooh"><path class="1af1ac3f-5ad1-4728-a28e-9a8d23ea69d9" d="M23.81,14.25a8.25,8.25,0,0,1,0,3.32,1.11,1.11,0,0,0,.13.81,4,4,0,0,1-.48,4.38,9.28,9.28,0,0,1-5.21,2.85,15.64,15.64,0,0,1-5.15.22,11.21,11.21,0,0,1-4.89-1.69,5.39,5.39,0,0,1-2-2.05,3.87,3.87,0,0,1,0-3.84.67.67,0,0,0,.09-.41,9.29,9.29,0,0,1,.59-5.58s0,0,0-.07C4.76,11.44,4.52,8.43,5.71,7a2.19,2.19,0,0,1,3.71.27A11.51,11.51,0,0,1,10,8.61,8.9,8.9,0,0,1,15,7,8.73,8.73,0,0,1,20,8.5a10,10,0,0,1,.86-1.59,2.13,2.13,0,0,1,3.24-.19,3.56,3.56,0,0,1-.27,5.07c-.19.14-.41.24-.59.35l.36,1.17"/><path class="7d093a83-9ac5-4542-a934-4c8387c431bf" d="M20,7.5a10,10,0,0,1,.86-1.59,2.13,2.13,0,0,1,3.24-.19,3.56,3.56,0,0,1-.27,5.07c-.19.14-.41.24-.59.35.21.7.45,1.4.6,2.12a8.2,8.2,0,0,1,0,3.31,1.11,1.11,0,0,0,.13.81,4,4,0,0,1-.48,4.38,9.28,9.28,0,0,1-5.21,2.85,15.64,15.64,0,0,1-5.15.22,11.21,11.21,0,0,1-4.89-1.69,5.39,5.39,0,0,1-2-2.05,3.87,3.87,0,0,1,0-3.84.67.67,0,0,0,.09-.41,9.29,9.29,0,0,1,.59-5.58s0,0,0-.07C4.76,10.44,4.52,7.43,5.71,6a2.19,2.19,0,0,1,3.71.27A11.51,11.51,0,0,1,10,7.61,8.9,8.9,0,0,1,15,6,8.73,8.73,0,0,1,20,7.5Z"/><path d="M7.17,10.6A20.21,20.21,0,0,1,8.91,8.53,1.12,1.12,0,0,0,9.2,7.15a3.77,3.77,0,0,0-.28-.57,1.68,1.68,0,0,0-3,0A3,3,0,0,0,6,9.75,1.81,1.81,0,0,0,7.17,10.6Z"/><path d="M24.06,9.75a3,3,0,0,0,0-3.17,1.68,1.68,0,0,0-3,0,3.77,3.77,0,0,0-.28.57,1.1,1.1,0,0,0,.29,1.38,20.21,20.21,0,0,1,1.74,2.07A1.81,1.81,0,0,0,24.06,9.75Z"/><path d="M15,16.5c.79,0,1.38.47,1.38,1.09A1.55,1.55,0,0,1,15,19a1.55,1.55,0,0,1-1.38-1.4C13.65,17,14.26,16.5,15,16.5Z"/><path d="M10,16a6.15,6.15,0,0,1,.48-1,.74.74,0,0,1,1.2,0,1.7,1.7,0,0,1,0,2.11.75.75,0,0,1-1.23,0A5.43,5.43,0,0,1,10,16Z"/><path d="M20.14,16a6.17,6.17,0,0,1-.5,1,.73.73,0,0,1-1.17,0,1.69,1.69,0,0,1,0-2.14.74.74,0,0,1,1.2,0A5.86,5.86,0,0,1,20.14,16Z"/><path d="M11.74,11.55a2.22,2.22,0,0,0-2.11.9h0a.14.14,0,0,0,0,.06.17.17,0,0,0,.17.13l.11,0h0a2,2,0,0,1,1.78-.75h0a.15.15,0,0,0,.15-.15A.15.15,0,0,0,11.74,11.55Z"/><path d="M18.53,11.55a2.23,2.23,0,0,1,2.12.9h0a.13.13,0,0,1,0,.06.15.15,0,0,1-.16.13l-.11,0h0a1.94,1.94,0,0,0-1.78-.75h0a.14.14,0,0,1-.14-.15A.16.16,0,0,1,18.53,11.55Z"/><ellipse cx="11.04" cy="15.97" rx="1.13" ry="1.56"/><circle class="470c7d12-7d22-49a6-954e-7537d7da374f" cx="11.68" cy="16.73" r="0.4"/><ellipse cx="19.11" cy="15.97" rx="1.13" ry="1.56"/><circle class="470c7d12-7d22-49a6-954e-7537d7da374f" cx="19.75" cy="16.73" r="0.4"/><path class="51feba6d-8fb6-4fe1-bd2c-26301ab01993" d="M23.72,12.94a.13.13,0,0,0,0-.25.13.13,0,0,0,0,.25Z"/><g class="1af1ac3f-5ad1-4728-a28e-9a8d23ea69d9"><g class="537e62db-1e99-4d96-a746-68f2403d1a5c"><path class="470c7d12-7d22-49a6-954e-7537d7da374f" d="M20,7.5a11.91,11.91,0,0,1,.86-1.59,2.13,2.13,0,0,1,3.24-.19,3.56,3.56,0,0,1-.27,5.07c-.19.14-.41.24-.59.35.21.7.45,1.4.61,2.12a8.38,8.38,0,0,1,0,3.31,1.11,1.11,0,0,0,.13.81,4,4,0,0,1-.48,4.38,9.28,9.28,0,0,1-5.21,2.85,15.64,15.64,0,0,1-5.15.22,11.21,11.21,0,0,1-4.89-1.69,5.3,5.3,0,0,1-2-2.05,3.85,3.85,0,0,1,0-3.84.76.76,0,0,0,.1-.41A9.21,9.21,0,0,1,7,11.26s0,0,0-.07C4.77,10.44,4.53,7.43,5.72,6a2.19,2.19,0,0,1,3.71.27A11.51,11.51,0,0,1,10,7.61,8.9,8.9,0,0,1,15,6,8.73,8.73,0,0,1,20,7.5Z"/></g></g><path class="1c6dc4f1-60a5-4351-8126-68ceabceda27" d="M23.81,13.26a8.2,8.2,0,0,1,0,3.31,1.11,1.11,0,0,0,.13.81,4,4,0,0,1-.48,4.38,9.28,9.28,0,0,1-5.21,2.85,15.64,15.64,0,0,1-5.15.22,11.21,11.21,0,0,1-4.89-1.69,5.39,5.39,0,0,1-2-2.05,3.87,3.87,0,0,1,0-3.84.67.67,0,0,0,.09-.41,9.29,9.29,0,0,1,.59-5.58s0,0,0-.07C4.76,10.44,4.52,7.43,5.71,6a2.19,2.19,0,0,1,3.71.27A11.51,11.51,0,0,1,10,7.61,8.9,8.9,0,0,1,15,6,8.73,8.73,0,0,1,20,7.5a10,10,0,0,1,.86-1.59,2.13,2.13,0,0,1,3.24-.19,3.56,3.56,0,0,1-.27,5.07c-.19.14-.41.24-.59.35l.36,1.17"/></g></svg>